Preview_recursive-mono-casual-a_b-slant_0.00_weight_450.00.ufo
<glyph name="quotedbl" format="2">
	<unicode hex="0022"/>
	<advance width="600"/>
	<outline>
		<contour>
			<point x="227.2" y="440.4" type="curve"/>
			<point x="238.4" y="675.5" type="line" smooth="yes"/>
			<point x="241.6" y="728.2"/>
			<point x="216" y="754"/>
			<point x="157.1" y="754" type="curve" smooth="yes"/>
			<point x="141.8" y="754"/>
			<point x="130.3" y="752.3"/>
			<point x="121.3" y="750" type="curve"/>
			<point x="129.6" y="726.4"/>
			<point x="131.8" y="712.8"/>
			<point x="134.4" y="657.3" type="curve" smooth="yes"/>
			<point x="144.4" y="480.3" type="line" smooth="yes"/>
			<point x="146" y="450"/>
			<point x="162.4" y="438.6"/>
			<point x="203.5" y="438.6" type="curve" smooth="yes"/>
			<point x="212.5" y="438.6"/>
			<point x="220.6" y="439.2"/>
		</contour>
		<contour>
			<point x="453.2" y="440.4" type="curve"/>
			<point x="465.3" y="667.1" type="line" smooth="yes"/>
			<point x="468.8" y="728.2"/>
			<point x="442.9" y="754"/>
			<point x="386.2" y="754" type="curve" smooth="yes"/>
			<point x="374.9" y="754"/>
			<point x="366.1" y="753"/>
			<point x="355.7" y="750.3" type="curve"/>
			<point x="371.3" y="480.3" type="line" smooth="yes"/>
			<point x="372.9" y="450"/>
			<point x="389.3" y="438.6"/>
			<point x="430.4" y="438.6" type="curve" smooth="yes"/>
			<point x="439.4" y="438.6"/>
			<point x="446.6" y="439.2"/>
		</contour>
	</outline>
</glyph>
<glyph name="asterisk" format="2">
	<unicode hex="002A"/>
	<advance width="600"/>
	<outline>
		<contour>
			<point x="251.9" y="570.1" type="curve"/>
			<point x="258.7" y="549.9"/>
			<point x="264.2" y="532"/>
			<point x="266.3" y="503.7" type="curve" smooth="yes"/>
			<point x="280.7" y="309" type="line"/>
			<point x="258.8" y="119.5" type="line" smooth="yes"/>
			<point x="251.3" y="70.3"/>
			<point x="266.2" y="43.1"/>
			<point x="315.3" y="43.1" type="curve" smooth="yes"/>
			<point x="327.3" y="43.1"/>
			<point x="339.2" y="44.7"/>
			<point x="351.6" y="48.9" type="curve"/>
			<point x="344.4" y="69.1"/>
			<point x="339.3" y="87"/>
			<point x="336.5" y="114.6" type="curve" smooth="yes"/>
			<point x="322.4" y="309" type="line"/>
			<point x="344" y="498.8" type="line" smooth="yes"/>
			<point x="351.5" y="549"/>
			<point x="336.6" y="576.6"/>
			<point x="287.5" y="576.6" type="curve" smooth="yes"/>
			<point x="275.8" y="575.9"/>
			<point x="264.6" y="573.6"/>
		</contour>
		<contour>
			<point x="508.3" y="477.4" type="curve"/>
			<point x="287.3" y="328.7" type="line"/>
			<point x="85.4" y="234.6" type="line" smooth="yes"/>
			<point x="62.7" y="224.4"/>
			<point x="58.7" y="196.7"/>
			<point x="75" y="169.8" type="curve" smooth="yes"/>
			<point x="81.2" y="158.7"/>
			<point x="88.3" y="151.3"/>
			<point x="95.8" y="143.8" type="curve"/>
			<point x="315.5" y="293.2" type="line"/>
			<point x="518.4" y="388" type="line" smooth="yes"/>
			<point x="541.4" y="398.5"/>
			<point x="543.6" y="422.5"/>
			<point x="527.8" y="451.7" type="curve" smooth="yes"/>
			<point x="523.6" y="460.2"/>
			<point x="518.4" y="468.1"/>
		</contour>
		<contour>
			<point x="548.9" y="217.1" type="curve"/>
			<point x="315.5" y="328" type="line"/>
			<point x="126.7" y="457.1" type="line" smooth="yes"/>
			<point x="105.5" y="473"/>
			<point x="82.7" y="464.7"/>
			<point x="65.5" y="436.1" type="curve" smooth="yes"/>
			<point x="60" y="427.4"/>
			<point x="57.1" y="416"/>
			<point x="53.5" y="405.9" type="curve"/>
			<point x="286.6" y="292.5" type="line"/>
			<point x="475.7" y="162.4" type="line" smooth="yes"/>
			<point x="496.9" y="147.2"/>
			<point x="519.3" y="156.6"/>
			<point x="536.9" y="185.8" type="curve" smooth="yes"/>
			<point x="542.5" y="196.4"/>
			<point x="545.7" y="204.5"/>
		</contour>
	</outline>
</glyph>
<glyph name="plus" format="2">
	<unicode hex="002B"/>
	<advance width="600"/>
	<outline>
		<contour>
			<point x="56.7" y="340" type="line"/>
			<point x="56.7" y="336.1"/>
			<point x="56.7" y="331.5"/>
			<point x="56.7" y="327.3" type="curve" smooth="yes"/>
			<point x="56.7" y="298.4"/>
			<point x="61.2" y="280.5"/>
			<point x="72.2" y="269.5" type="curve" smooth="yes"/>
			<point x="78.8" y="262.9"/>
			<point x="87.6" y="260"/>
			<point x="104.9" y="260" type="curve" smooth="yes"/>
			<point x="544.2" y="260" type="line"/>
			<point x="545.4" y="268.4"/>
			<point x="546.3" y="278.1"/>
			<point x="546.3" y="285.9" type="curve" smooth="yes"/>
			<point x="546.3" y="321.1"/>
			<point x="537.7" y="340"/>
			<point x="508.3" y="340" type="curve" smooth="yes"/>
		</contour>
		<contour>
			<point x="340.3" y="58.8" type="curve"/>
			<point x="340.3" y="456.8" type="line" smooth="yes"/>
			<point x="340.3" y="491.3"/>
			<point x="336.8" y="511.5"/>
			<point x="322.4" y="525.9" type="curve" smooth="yes"/>
			<point x="308.8" y="539.5"/>
			<point x="289.1" y="543"/>
			<point x="272.5" y="543" type="curve" smooth="yes"/>
			<point x="264.8" y="543"/>
			<point x="256.4" y="542"/>
			<point x="248.7" y="539.7" type="curve"/>
			<point x="257.7" y="510"/>
			<point x="260.3" y="491.6"/>
			<point x="260.3" y="447" type="curve" smooth="yes"/>
			<point x="260.3" y="91.7" type="line" smooth="yes"/>
			<point x="260.3" y="62.9"/>
			<point x="283.4" y="57"/>
			<point x="315.9" y="57" type="curve" smooth="yes"/>
			<point x="324.9" y="57"/>
			<point x="333.7" y="57.6"/>
		</contour>
	</outline>
</glyph>
<glyph name="zero" format="2">
	<unicode hex="0030"/>
	<advance width="600"/>
	<outline>
		<contour>
			<point x="303.4" y="720" type="curve" smooth="yes"/>
			<point x="170.47" y="720"/>
			<point x="67.5" y="591.3"/>
			<point x="67.5" y="360.5" type="curve" smooth="yes"/>
			<point x="67.5" y="313.5" type="line" smooth="yes"/>
			<point x="67.5" y="101.8"/>
			<point x="160.0388034188" y="-20"/>
			<point x="296.5" y="-20" type="curve" smooth="yes"/>
			<point x="323.4166666667" y="-20"/>
			<point x="335.1" y="4"/>
			<point x="335.1" y="29.2" type="curve"/>
			<point x="182.2347925322" y="43.3162900564"/>
			<point x="147.5" y="178.6"/>
			<point x="147.5" y="307.9" type="curve" smooth="yes"/>
			<point x="147.5" y="351.5" type="line" smooth="yes"/>
			<point x="147.5" y="516.2"/>
			<point x="204.2" y="640.3"/>
			<point x="313.5" y="640.3" type="curve" smooth="yes"/>
			<point x="359.8" y="640.3"/>
			<point x="383.7" y="632.1"/>
			<point x="417" y="615" type="curve"/>
			<point x="431.2577947063" y="648.1577947063"/>
			<point x="376.6921259843" y="720"/>
		</contour>
		<contour>
			<point x="296.5" y="-20" type="curve" smooth="yes"/>
			<point x="429.775" y="-20"/>
			<point x="532.5" y="102.7"/>
			<point x="532.5" y="324.5" type="curve" smooth="yes"/>
			<point x="532.5" y="371.5" type="line" smooth="yes"/>
			<point x="532.5" y="592.5"/>
			<point x="439.9458803418" y="720"/>
			<point x="303.4" y="720" type="curve" smooth="yes"/>
			<point x="276.7066666667" y="720"/>
			<point x="264.9" y="696"/>
			<point x="264.9" y="670.8" type="curve"/>
			<point x="417.5" y="656.8"/>
			<point x="452.5" y="517.2"/>
			<point x="452.5" y="377.1" type="curve" smooth="yes"/>
			<point x="452.5" y="333.5" type="line" smooth="yes"/>
			<point x="452.5" y="177.5"/>
			<point x="395.8" y="59.7"/>
			<point x="286.5" y="59.7" type="curve" smooth="yes"/>
			<point x="240.2" y="59.7"/>
			<point x="216.3" y="67.2"/>
			<point x="183" y="85" type="curve"/>
			<point x="168.6299603183" y="47.5299603183"/>
			<point x="225.2968503937" y="-20"/>
		</contour>
		<contour>
			<point x="139.4" y="147.9" type="curve"/>
			<point x="269.1145103341" y="252.1720994815"/>
			<point x="364.7659318868" y="355.9426809031"/>
			<point x="460" y="491.4" type="curve" smooth="yes"/>
			<point x="479.3" y="517.6"/>
			<point x="474.1" y="551.8"/>
			<point x="451.9" y="573.2" type="curve"/>
			<point x="345.2103027853" y="415.2733139881"/>
			<point x="248.6253318445" y="316.9458557072"/>
			<point x="127.5" y="211.6" type="curve" smooth="yes"/>
			<point x="113.7" y="201.5"/>
			<point x="119.6" y="167.3"/>
		</contour>
	</outline>
</glyph>
<glyph name="one" format="2">
	<unicode hex="0031"/>
	<advance width="600"/>
	<outline>
		<contour>
			<point x="375" y="40.6" type="curve"/>
			<point x="375" y="254.7793205317"/>
			<point x="375" y="468.3270479135"/>
			<point x="375" y="680.4" type="curve" smooth="yes"/>
			<point x="375" y="703.4333333333"/>
			<point x="345.3" y="710"/>
			<point x="309.5" y="710" type="curve" smooth="yes"/>
			<point x="295" y="710" type="line"/>
			<point x="295" y="521.1229886132"/>
			<point x="295" y="327.7"/>
			<point x="295" y="138.2" type="curve" smooth="yes"/>
			<point x="295" y="68.3"/>
			<point x="325.4" y="40.6"/>
		</contour>
		<contour>
			<point x="79.3" y="80" type="line"/>
			<point x="77.9" y="75.4"/>
			<point x="77.2" y="70.1"/>
			<point x="77.2" y="63.1" type="curve" smooth="yes"/>
			<point x="77.2" y="37.7"/>
			<point x="81" y="21.2"/>
			<point x="91.3" y="10.9" type="curve" smooth="yes"/>
			<point x="99.3" y="2.9"/>
			<point x="108.8" y="0"/>
			<point x="129.6" y="0" type="curve" smooth="yes"/>
			<point x="554.6" y="0" type="line"/>
			<point x="555.8" y="5.6"/>
			<point x="556.4" y="12.3"/>
			<point x="556.4" y="18.5" type="curve" smooth="yes"/>
			<point x="556.4" y="53.5"/>
			<point x="480.4" y="80"/>
			<point x="360.5" y="80" type="curve" smooth="yes"/>
		</contour>
		<contour>
			<point x="119.6" y="455.3" type="curve" smooth="yes"/>
			<point x="145.7" y="455.3"/>
			<point x="200.1" y="492.8"/>
			<point x="238.5" y="531.2" type="curve" smooth="yes"/>
			<point x="281.2715717519" y="573.9715717519"/>
			<point x="316.3" y="637.0719626168"/>
			<point x="316.3" y="674" type="curve" smooth="yes"/>
			<point x="316.3" y="697.4"/>
			<point x="307.7578947369" y="710"/>
			<point x="297.7" y="710" type="curve" smooth="yes"/>
			<point x="282" y="710" type="line"/>
			<point x="260.4" y="675"/>
			<point x="239.1" y="644.6"/>
			<point x="207.8" y="613" type="curve" smooth="yes"/>
			<point x="170" y="575.2"/>
			<point x="132.4" y="548.4"/>
			<point x="91.1" y="529.2" type="curve"/>
			<point x="91.1" y="518.2" type="line" smooth="yes"/>
			<point x="91.1" y="474.4"/>
			<point x="105.7" y="455.3"/>
		</contour>
	</outline>
</glyph>
<glyph name="two" format="2">
	<unicode hex="0032"/>
	<advance width="600"/>
	<outline>
		<contour>
			<point x="381.1" y="650.4" type="curve"/>
			<point x="416.6" y="611.8"/>
			<point x="435.9" y="583.4"/>
			<point x="435.9" y="530" type="curve" smooth="yes"/>
			<point x="435.9" y="450"/>
			<point x="392.2" y="385.4"/>
			<point x="279" y="314.7" type="curve" smooth="yes"/>
			<point x="154.3" y="236.2"/>
			<point x="67.5" y="160.5"/>
			<point x="67.5" y="64.3" type="curve" smooth="yes"/>
			<point x="67.5" y="45"/>
			<point x="84.4" y="38.1"/>
			<point x="137" y="38.1" type="curve"/>
			<point x="137" y="119.3"/>
			<point x="174.1" y="164"/>
			<point x="322.2" y="254.9" type="curve" smooth="yes"/>
			<point x="442.3" y="328.6"/>
			<point x="517.5" y="416.5"/>
			<point x="517.5" y="523.8" type="curve" smooth="yes"/>
			<point x="517.5" y="529.6" type="line" smooth="yes"/>
			<point x="517.5" y="606.6"/>
			<point x="457.2" y="677.7"/>
		</contour>
		<contour>
			<point x="531" y="0" type="line"/>
			<point x="532.2" y="7.8"/>
			<point x="533.1" y="17.5"/>
			<point x="533.1" y="25.9" type="curve"/>
			<point x="533.1" y="61.1"/>
			<point x="524.5" y="80"/>
			<point x="495.1" y="80" type="curve" smooth="yes"/>
			<point x="148.2" y="80" type="line" smooth="yes"/>
			<point x="116.2" y="80"/>
			<point x="91.4" y="76.2"/>
			<point x="67.5" y="64.3" type="curve"/>
			<point x="67.5" y="62.3"/>
			<point x="67.5" y="61.3"/>
			<point x="67.5" y="60" type="curve" smooth="yes"/>
			<point x="67.5" y="35.4"/>
			<point x="85.2" y="0"/>
			<point x="105.2" y="0" type="curve" smooth="yes"/>
		</contour>
		<contour>
			<point x="305" y="720" type="curve" smooth="yes"/>
			<point x="229.8" y="720"/>
			<point x="172.5" y="697.2"/>
			<point x="136.7" y="662.1" type="curve" smooth="yes"/>
			<point x="107" y="633.1"/>
			<point x="89.4" y="593.9"/>
			<point x="89.4" y="555" type="curve" smooth="yes"/>
			<point x="89.4" y="533.6"/>
			<point x="100" y="515.5"/>
			<point x="112.9" y="504.7" type="curve"/>
			<point x="117.6" y="504.7" type="line"/>
			<point x="149.1" y="595.9"/>
			<point x="214" y="640"/>
			<point x="307.1" y="640" type="curve" smooth="yes"/>
			<point x="406.17" y="640"/>
			<point x="463.3" y="591.1"/>
			<point x="463.3" y="526.8" type="curve" smooth="yes"/>
			<point x="463.3" y="507.2"/>
			<point x="460.9612999096" y="489.3949568973"/>
			<point x="455.4" y="469.8" type="curve"/>
			<point x="488.8" y="469.8"/>
			<point x="517.5" y="499.9"/>
			<point x="517.5" y="529.6" type="curve" smooth="yes"/>
			<point x="517.5" y="643.9"/>
			<point x="429.8" y="720"/>
		</contour>
	</outline>
</glyph>
<glyph name="three" format="2">
	<unicode hex="0033"/>
	<advance width="600"/>
	<outline>
		<contour>
			<point x="293.7" y="639.3" type="curve" smooth="yes"/>
			<point x="410.2" y="639.3"/>
			<point x="465.7" y="578.2"/>
			<point x="465.7" y="494.1" type="curve" smooth="yes"/>
			<point x="465.7" y="484.5"/>
			<point x="464.7" y="474.1"/>
			<point x="462" y="462.3" type="curve"/>
			<point x="486.7" y="462.9"/>
			<point x="521.8" y="503.3"/>
			<point x="521.8" y="535.8" type="curve" smooth="yes"/>
			<point x="521.8" y="544.5" type="line" smooth="yes"/>
			<point x="521.8" y="647"/>
			<point x="436" y="719.3"/>
			<point x="300" y="719.3" type="curve" smooth="yes"/>
			<point x="213.3" y="719.3"/>
			<point x="144.3" y="690.1"/>
			<point x="111.9" y="657.7" type="curve" smooth="yes"/>
			<point x="89.4" y="635.2"/>
			<point x="82.5" y="619"/>
			<point x="82.5" y="588.3" type="curve" smooth="yes"/>
			<point x="82.5" y="570.4"/>
			<point x="83.8" y="558"/>
			<point x="89.1" y="542.6" type="curve"/>
			<point x="93.1" y="542.6" type="line"/>
			<point x="142.2" y="607.9"/>
			<point x="200.5" y="639.3"/>
		</contour>
		<contour>
			<point x="203.4" y="306.7" type="curve" smooth="yes"/>
			<point x="404.2" y="306.7"/>
			<point x="521.5" y="412.1190954774"/>
			<point x="521.5" y="535.8" type="curve" smooth="yes"/>
			<point x="521.5" y="565.1"/>
			<point x="478.5" y="596.3"/>
			<point x="452" y="598.4" type="curve"/>
			<point x="454.1" y="586.3"/>
			<point x="454.1" y="576"/>
			<point x="454.1" y="559.7" type="curve" smooth="yes"/>
			<point x="454.1" y="427.6"/>
			<point x="340" y="359.2"/>
			<point x="174.8" y="359.2" type="curve"/>
			<point x="172.2" y="349.6"/>
			<point x="171.2" y="342.4"/>
			<point x="171.2" y="330.7" type="curve" smooth="yes"/>
			<point x="171.2" y="316.2"/>
			<point x="188.9" y="306.7"/>
		</contour>
		<contour>
			<point x="199.9" y="284.3" type="curve" smooth="yes"/>
			<point x="351.6425178806" y="281.6805985695"/>
			<point x="465.1" y="234.6"/>
			<point x="465.1" y="141.8" type="curve" smooth="yes"/>
			<point x="465.1" y="128.3"/>
			<point x="465.1" y="121.5"/>
			<point x="463" y="111.5" type="curve"/>
			<point x="494.7422018348" y="115"/>
			<point x="531.8" y="139.9"/>
			<point x="531.8" y="163.5" type="curve" smooth="yes"/>
			<point x="531.8" y="278"/>
			<point x="403.6" y="341.6"/>
			<point x="174.4" y="341.6" type="curve"/>
			<point x="172.4" y="337.4"/>
			<point x="171.2" y="335.0363636364"/>
			<point x="171.2" y="330.7" type="curve" smooth="yes"/>
			<point x="171.2" y="303.4"/>
			<point x="177.9" y="285.2"/>
		</contour>
		<contour>
			<point x="293.7" y="60" type="curve" smooth="yes"/>
			<point x="194.6" y="60"/>
			<point x="130.8" y="90.5"/>
			<point x="78.7" y="156.7" type="curve"/>
			<point x="74.7" y="156.7" type="line"/>
			<point x="70.8" y="142.7"/>
			<point x="69.5" y="129.6"/>
			<point x="69.5" y="111" type="curve" smooth="yes"/>
			<point x="69.5" y="82.4"/>
			<point x="74.3" y="63.4"/>
			<point x="94" y="43.7" type="curve" smooth="yes"/>
			<point x="133" y="4.7"/>
			<point x="207.1" y="-20"/>
			<point x="300" y="-20" type="curve" smooth="yes"/>
			<point x="442" y="-20"/>
			<point x="531.8" y="52.3242331878"/>
			<point x="531.8" y="154.8" type="curve" smooth="yes"/>
			<point x="531.8" y="163.5" type="line" smooth="yes"/>
			<point x="531.8" y="195.28"/>
			<point x="498.4086124412" y="226.3995898837"/>
			<point x="474.6" y="228.4" type="curve"/>
			<point x="475.2" y="220.8"/>
			<point x="475.5" y="211.8"/>
			<point x="475.5" y="202.2" type="curve" smooth="yes"/>
			<point x="475.5" y="116.9"/>
			<point x="418.1" y="60"/>
		</contour>
	</outline>
</glyph>
<glyph name="four" format="2">
	<unicode hex="0034"/>
	<advance width="600"/>
	<outline>
		<contour>
			<point x="112.4" y="198.8" type="curve"/>
			<point x="167.6" y="364.9"/>
			<point x="343.1" y="593.7"/>
			<point x="489.8" y="687.5" type="curve"/>
			<point x="489.8" y="691.5" type="line"/>
			<point x="476.3" y="704.9"/>
			<point x="453.4" y="714.2"/>
			<point x="417.5" y="714.2" type="curve" smooth="yes"/>
			<point x="390.8" y="714.2"/>
			<point x="372.7" y="707.5"/>
			<point x="318.9" y="653.7" type="curve" smooth="yes"/>
			<point x="177.7" y="512.5"/>
			<point x="48.4" y="307.9"/>
			<point x="48.4" y="224" type="curve" smooth="yes"/>
			<point x="48.4" y="206.2"/>
			<point x="85.3" y="198.8"/>
		</contour>
		<contour>
			<point x="565" y="150" type="line"/>
			<point x="566.2" y="156.6"/>
			<point x="566.8" y="164.5"/>
			<point x="566.8" y="171.1" type="curve" smooth="yes"/>
			<point x="566.8" y="200"/>
			<point x="560.2" y="230"/>
			<point x="537.2" y="230" type="curve" smooth="yes"/>
			<point x="306.8" y="230" type="line"/>
			<point x="227.576744186" y="230"/>
			<point x="131.6" y="228.2"/>
			<point x="48.4" y="224" type="curve"/>
			<point x="48.4" y="216" type="line" smooth="yes"/>
			<point x="48.4" y="190.4"/>
			<point x="56.2" y="169.3"/>
			<point x="67.8" y="157.7" type="curve" smooth="yes"/>
			<point x="73.2" y="152.3"/>
			<point x="78.7" y="150"/>
			<point x="89.7" y="150" type="curve" smooth="yes"/>
		</contour>
		<contour>
			<point x="491.1" y="-4.5" type="curve"/>
			<point x="482" y="29.5"/>
			<point x="479" y="53.4019417476"/>
			<point x="479" y="98.8" type="curve" smooth="yes"/>
			<point x="479" y="353.8" type="line" smooth="yes"/>
			<point x="479" y="367.9714285714"/>
			<point x="456.95" y="387.1"/>
			<point x="422.2" y="387.1" type="curve" smooth="yes"/>
			<point x="414" y="387.1" type="line"/>
			<point x="405" y="325"/>
			<point x="396" y="252.2"/>
			<point x="396" y="189.5" type="curve"/>
			<point x="396" y="55.8" type="line" smooth="yes"/>
			<point x="396" y="3.1"/>
			<point x="427.8" y="-8.8"/>
			<point x="461.1" y="-8.8" type="curve" smooth="yes"/>
			<point x="472.4" y="-8.8"/>
			<point x="482.7" y="-7.5"/>
		</contour>
	</outline>
</glyph>
<glyph name="six" format="2">
	<unicode hex="0036"/>
	<advance width="600"/>
	<outline>
		<contour>
			<point x="145.4" y="129.8" type="curve"/>
			<point x="131.8" y="57.5"/>
			<point x="215.9984126984" y="-20"/>
			<point x="310" y="-20" type="curve"/>
			<point x="443.6" y="-20"/>
			<point x="534.6" y="63.4142857143"/>
			<point x="534.6" y="186" type="curve" smooth="yes"/>
			<point x="534.6" y="191" type="line" smooth="yes"/>
			<point x="534.6" y="286.4938931298"/>
			<point x="460.2973439013" y="350.0484164521"/>
			<point x="407.5" y="323.9" type="curve"/>
			<point x="442" y="285"/>
			<point x="454.6" y="247.2"/>
			<point x="454.6" y="194.8" type="curve" smooth="yes"/>
			<point x="454.6" y="189.7" type="line" smooth="yes"/>
			<point x="454.6" y="109.4"/>
			<point x="398.6" y="57.9"/>
			<point x="305.8" y="57.9" type="curve" smooth="yes"/>
			<point x="240.2205714286" y="57.9"/>
			<point x="197.1" y="76.3"/>
		</contour>
		<contour>
			<point x="168.2" y="558.7" type="curve"/>
			<point x="218.5" y="614.9"/>
			<point x="273.2797752809" y="640"/>
			<point x="349.2" y="640" type="curve" smooth="yes"/>
			<point x="415.0318181818" y="640"/>
			<point x="459.1307432083" y="624.8626641286"/>
			<point x="498.4" y="592.7" type="curve"/>
			<point x="502.4" y="592.7" type="line"/>
			<point x="505.4" y="602.8"/>
			<point x="506.7" y="611.8"/>
			<point x="506.7" y="625.7" type="curve" smooth="yes"/>
			<point x="506.7" y="655.1165048544"/>
			<point x="498.5365792925" y="672.2634207075"/>
			<point x="488.7" y="682.1" type="curve" smooth="yes"/>
			<point x="467.3066446909" y="703.4933553091"/>
			<point x="420.9431699688" y="720"/>
			<point x="348.3" y="720" type="curve" smooth="yes"/>
			<point x="244.1746322306" y="720"/>
			<point x="131.2821155488" y="642.1300648161"/>
		</contour>
		<contour>
			<point x="67.5" y="326.4" type="curve" smooth="yes"/>
			<point x="67.5" y="318" type="line" smooth="yes"/>
			<point x="67.5" y="87.8"/>
			<point x="152.3" y="-20"/>
			<point x="310" y="-20" type="curve" smooth="yes"/>
			<point x="321.2" y="-20"/>
			<point x="339.6" y="-7.4285714286"/>
			<point x="339.6" y="20.2" type="curve"/>
			<point x="203.5" y="28.9"/>
			<point x="148.7" y="120.1"/>
			<point x="148.7" y="316.3" type="curve" smooth="yes"/>
			<point x="148.7" y="324.7" type="line" smooth="yes"/>
			<point x="148.7" y="551.5"/>
			<point x="216.9" y="659.3"/>
			<point x="374.8" y="682.1" type="curve"/>
			<point x="374.8" y="702.7"/>
			<point x="363.2204081633" y="720"/>
			<point x="348.3" y="720" type="curve" smooth="yes"/>
			<point x="174.624692971" y="720"/>
			<point x="67.5" y="594.9"/>
		</contour>
		<contour>
			<point x="322.4" y="387.2" type="curve" smooth="yes"/>
			<point x="255.1" y="387.2"/>
			<point x="175.6" y="360.6"/>
			<point x="139.9" y="325.6" type="curve" smooth="yes"/>
			<point x="128.1" y="313.8"/>
			<point x="124.1" y="293.2"/>
			<point x="122.9" y="254.1" type="curve"/>
			<point x="178.2" y="294.3"/>
			<point x="243.7" y="315"/>
			<point x="313.7" y="315" type="curve" smooth="yes"/>
			<point x="424.6" y="315"/>
			<point x="488.9" y="255"/>
			<point x="488.9" y="160.2" type="curve" smooth="yes"/>
			<point x="488.9" y="148.8"/>
			<point x="487.9" y="136.9"/>
			<point x="484.3" y="127.8" type="curve"/>
			<point x="509.9" y="127.8"/>
			<point x="534.6" y="165.2129032258"/>
			<point x="534.6" y="190.7" type="curve" smooth="yes"/>
			<point x="534.6" y="315.7857142857"/>
			<point x="451.6" y="387.2"/>
		</contour>
	</outline>
</glyph>
<glyph name="seven" format="2">
	<unicode hex="0037"/>
	<advance width="600"/>
	<outline>
		<contour>
			<point x="451.8" y="620" type="line" smooth="yes"/>
			<point x="482.4" y="620"/>
			<point x="507" y="621.2"/>
			<point x="529.7" y="623.9" type="curve"/>
			<point x="529.7" y="633" type="line" smooth="yes"/>
			<point x="529.7" y="662.5"/>
			<point x="519.9" y="700"/>
			<point x="497.1" y="700" type="curve"/>
			<point x="100" y="700" type="line"/>
			<point x="100" y="685.7" type="line" smooth="yes"/>
			<point x="100" y="642.5"/>
			<point x="109.3" y="620"/>
			<point x="132.6" y="620" type="curve" smooth="yes"/>
		</contour>
		<contour>
			<point x="315" y="-10" type="line"/>
			<point x="315" y="224.1"/>
			<point x="529.7" y="470.6"/>
			<point x="529.7" y="623.9" type="curve" smooth="yes"/>
			<point x="529.7" y="641.3"/>
			<point x="495.5" y="646"/>
			<point x="449.7" y="645.3" type="curve"/>
			<point x="449.7" y="490.8"/>
			<point x="236.2" y="229.5"/>
			<point x="236.2" y="31.6" type="curve" smooth="yes"/>
			<point x="236.2" y="2.6"/>
			<point x="269.8" y="-10"/>
			<point x="300.5" y="-10" type="curve" smooth="yes"/>
		</contour>
		<contour>
			<point x="150.6" y="471" type="curve"/>
			<point x="150.6" y="580.6790960452"/>
			<point x="171.4" y="664.4672316384"/>
			<point x="171.4" y="687.7" type="curve" smooth="yes"/>
			<point x="171.4" y="710.5"/>
			<point x="137.6" y="720"/>
			<point x="105.2" y="720" type="curve" smooth="yes"/>
			<point x="96.4" y="720" type="line"/>
			<point x="78.954701312" y="649.2748212381"/>
			<point x="71.2" y="574.975141243"/>
			<point x="71.2" y="503.9" type="curve" smooth="yes"/>
			<point x="71.2" y="475.1"/>
			<point x="94" y="469.2"/>
			<point x="126.2" y="469.2" type="curve" smooth="yes"/>
			<point x="135.2" y="469.2"/>
			<point x="144" y="469.8"/>
		</contour>
	</outline>
	<guideline x="0" y="0" angle="0" identifier="YPRW51zchG"/>
	<guideline x="0" y="0" angle="90" identifier="f4Pb7neEU5"/>
	<guideline x="50" y="0" angle="90" identifier="L85AVT5p3y"/>
	<guideline x="100" y="0" angle="90" identifier="LJwcmKA4fO"/>
	<guideline x="150" y="0" angle="90" identifier="KH09e1BFd4"/>
	<guideline x="200" y="0" angle="90" identifier="8DG63zEskz"/>
	<guideline x="250" y="0" angle="90" identifier="Wke7AECd66"/>
	<guideline x="300" y="0" angle="90" identifier="JBS3j1va8A"/>
	<guideline x="350" y="0" angle="90" identifier="ZJDe5wN9NM"/>
	<guideline x="400" y="0" angle="90" identifier="5Q1ECkqGm3"/>
	<guideline x="450" y="0" angle="90" identifier="Bw5U3MPP9L"/>
	<guideline x="500" y="0" angle="90" identifier="koAfY77QvU"/>
	<guideline x="550" y="0" angle="90" identifier="lVwKaCWn8J"/>
	<guideline x="600" y="0" angle="90" identifier="n0uEu4pBAB"/>
	<guideline x="0" y="-250" angle="0" identifier="MHRo7jlFHF"/>
	<guideline x="0" y="-200" angle="0" identifier="09kQZHIQ3j"/>
	<guideline x="0" y="-150" angle="0" identifier="EaZDCVoSit"/>
	<guideline x="0" y="-100" angle="0" identifier="fvYSjKWSMt"/>
	<guideline x="0" y="-50" angle="0" identifier="vlMeFWZSHo"/>
	<guideline x="0" y="50" angle="0" identifier="RoxIY6msa5"/>
	<guideline x="0" y="100" angle="0" identifier="G09S7j4k08"/>
	<guideline x="0" y="150" angle="0" identifier="4eqOlcuCjw"/>
	<guideline x="0" y="200" angle="0" identifier="pKLW2uiOOc"/>
	<guideline x="0" y="250" angle="0" identifier="IHw5r6qjsx"/>
	<guideline x="0" y="300" angle="0" identifier="TvPkb79riD"/>
	<guideline x="0" y="350" angle="0" identifier="O1TWJBoujs"/>
	<guideline x="0" y="400" angle="0" identifier="5Sm1TpVUoX"/>
	<guideline x="0" y="450" angle="0" identifier="gICdD5RIaZ"/>
	<guideline x="0" y="500" angle="0" identifier="EuqF4ouNrl"/>
	<guideline x="0" y="550" angle="0" identifier="ID3PwPATV5"/>
	<guideline x="0" y="600" angle="0" identifier="GmjQtrLpC6"/>
	<guideline x="0" y="650" angle="0" identifier="vzSqZSVGfX"/>
	<guideline x="0" y="700" angle="0" identifier="ytLbHnnVzI"/>
</glyph>
<glyph name="eight" format="2">
	<unicode hex="0038"/>
	<advance width="600"/>
	<outline>
		<contour>
			<point x="375.8" y="328.1" type="curve" smooth="yes"/>
			<point x="287.8" y="360" type="line" smooth="yes"/>
			<point x="183.5" y="397.8"/>
			<point x="155.9" y="447.7"/>
			<point x="155.9" y="508.4" type="curve" smooth="yes"/>
			<point x="155.9" y="527.9"/>
			<point x="156.8" y="551.3"/>
			<point x="160.7" y="581.6" type="curve"/>
			<point x="121.8" y="574.3"/>
			<point x="81.1" y="554.7"/>
			<point x="81.1" y="509.2" type="curve" smooth="yes"/>
			<point x="81.1" y="431.1"/>
			<point x="126.6" y="351.6"/>
			<point x="265.3" y="300.5" type="curve" smooth="yes"/>
			<point x="353.1" y="267.9" type="line" smooth="yes"/>
			<point x="445.4" y="233.4"/>
			<point x="471.4" y="199.8"/>
			<point x="471.4" y="122.7" type="curve" smooth="yes"/>
			<point x="471.4" y="115.3"/>
			<point x="471.4" y="106.4"/>
			<point x="471.4" y="98.1" type="curve"/>
			<point x="500" y="101.6"/>
			<point x="538.8" y="139.1"/>
			<point x="538.8" y="163.5" type="curve"/>
			<point x="538.8" y="222.8"/>
			<point x="494.7" y="285"/>
		</contour>
		<contour>
			<point x="297" y="-20" type="curve" smooth="yes"/>
			<point x="445" y="-20"/>
			<point x="538.8" y="53.9"/>
			<point x="538.8" y="158.2" type="curve" smooth="yes"/>
			<point x="538.8" y="163.5" type="line" smooth="yes"/>
			<point x="538.8" y="183"/>
			<point x="506.4" y="199.8"/>
			<point x="482.7" y="201.8" type="curve"/>
			<point x="482.7" y="197.8"/>
			<point x="482.7" y="193"/>
			<point x="482.7" y="188.3" type="curve" smooth="yes"/>
			<point x="482.7" y="106.5"/>
			<point x="417.8" y="59.1"/>
			<point x="297" y="59.1" type="curve" smooth="yes"/>
			<point x="202.2" y="59.1"/>
			<point x="149.9" y="91.2"/>
			<point x="113.4" y="167.1" type="curve"/>
			<point x="54" y="109.7"/>
			<point x="132.1" y="-20"/>
		</contour>
		<contour>
			<point x="321.1" y="720" type="curve" smooth="yes"/>
			<point x="187.8" y="720"/>
			<point x="81.1" y="633.7"/>
			<point x="81.1" y="513.6" type="curve" smooth="yes"/>
			<point x="81.1" y="509.2" type="line" smooth="yes"/>
			<point x="81.1" y="476.1"/>
			<point x="125" y="449.1"/>
			<point x="160.1" y="444.9" type="curve"/>
			<point x="158.3" y="465.4"/>
			<point x="155.9" y="484.9"/>
			<point x="155.9" y="508.4" type="curve" smooth="yes"/>
			<point x="155.9" y="602.1"/>
			<point x="254.6" y="644.2"/>
			<point x="321.7" y="644.2" type="curve" smooth="yes"/>
			<point x="380" y="644.2"/>
			<point x="431" y="627.8"/>
			<point x="470.6" y="580.9" type="curve"/>
			<point x="515" y="642.7"/>
			<point x="411.9" y="720"/>
		</contour>
		<contour>
			<point x="344.5" y="315.3" type="curve" smooth="yes"/>
			<point x="424.9" y="315.3"/>
			<point x="539" y="411"/>
			<point x="539" y="519.4" type="curve" smooth="yes"/>
			<point x="539" y="524.4" type="line" smooth="yes"/>
			<point x="539" y="637.6"/>
			<point x="445.2" y="720"/>
			<point x="321.1" y="720" type="curve" smooth="yes"/>
			<point x="308.1" y="720"/>
			<point x="287.1" y="712.5"/>
			<point x="285.3" y="676.6" type="curve"/>
			<point x="397.3" y="676.6"/>
			<point x="461.6" y="620.7"/>
			<point x="461.6" y="524.1" type="curve" smooth="yes"/>
			<point x="461.6" y="520.1" type="line" smooth="yes"/>
			<point x="461.6" y="439.3"/>
			<point x="399.6" y="375"/>
			<point x="286.1" y="336.2" type="curve"/>
			<point x="307.8" y="321"/>
			<point x="321.8" y="315.3"/>
		</contour>
		<contour>
			<point x="336.6" y="25.7" type="curve"/>
			<point x="215.3" y="25.7"/>
			<point x="141.4" y="81.3288553551"/>
			<point x="141.4" y="136.5" type="curve" smooth="yes"/>
			<point x="141.4" y="140.2" type="line" smooth="yes"/>
			<point x="141.4" y="214"/>
			<point x="198.1" y="266.2"/>
			<point x="312.1" y="301.6" type="curve"/>
			<point x="294.9" y="319.1"/>
			<point x="285.4" y="328"/>
			<point x="263.1" y="328" type="curve" smooth="yes"/>
			<point x="170.6" y="328"/>
			<point x="66.8" y="249.4"/>
			<point x="66.8" y="153.3" type="curve" smooth="yes"/>
			<point x="66.8" y="148" type="line" smooth="yes"/>
			<point x="66.8" y="55"/>
			<point x="157.3" y="-20"/>
			<point x="297" y="-20" type="curve" smooth="yes"/>
			<point x="314.4" y="-20"/>
			<point x="336.6" y="-2.4137931035"/>
		</contour>
	</outline>
</glyph>
<glyph name="nine" format="2">
	<unicode hex="0039"/>
	<advance width="600"/>
	<outline>
		<contour>
			<point x="455.3" y="570.2" type="curve"/>
			<point x="485.7" y="636.9"/>
			<point x="384.7" y="720"/>
			<point x="290.7" y="720" type="curve"/>
			<point x="157.1" y="720"/>
			<point x="66.1" y="620.5454545455"/>
			<point x="66.1" y="462.8" type="curve" smooth="yes"/>
			<point x="66.1" y="457.8" type="line" smooth="yes"/>
			<point x="66.1" y="348.15"/>
			<point x="141.628731719" y="274.5467495343"/>
			<point x="196.7" y="301.1" type="curve"/>
			<point x="156.574804407" y="345.6845787427"/>
			<point x="146.1" y="392.0530120482"/>
			<point x="146.1" y="454" type="curve" smooth="yes"/>
			<point x="146.1" y="459.1" type="line" smooth="yes"/>
			<point x="146.1" y="570.4728971963"/>
			<point x="204.2666666666" y="642.1"/>
			<point x="300.5" y="642.1" type="curve" smooth="yes"/>
			<point x="363.7780487805" y="642.1"/>
			<point x="404.3" y="623"/>
		</contour>
		<contour>
			<point x="436.7" y="141.3" type="curve"/>
			<point x="385.7131584183" y="84.4939633103"/>
			<point x="328.7779005525" y="60"/>
			<point x="251.5" y="60" type="curve" smooth="yes"/>
			<point x="185.4" y="60"/>
			<point x="141.8" y="74.9"/>
			<point x="102.3" y="107.3" type="curve"/>
			<point x="98.3" y="107.3" type="line"/>
			<point x="95.3" y="97.2"/>
			<point x="94" y="88.2"/>
			<point x="94" y="74.3" type="curve" smooth="yes"/>
			<point x="94" y="45"/>
			<point x="102.2" y="27.7"/>
			<point x="112" y="17.9" type="curve" smooth="yes"/>
			<point x="133.0846203962" y="-3.1846203962"/>
			<point x="179.8726027397" y="-20"/>
			<point x="253.6" y="-20" type="curve" smooth="yes"/>
			<point x="359.7859649123" y="-20"/>
			<point x="469.5283848143" y="67.8505976236"/>
		</contour>
		<contour>
			<point x="533.2" y="373.6" type="curve" smooth="yes"/>
			<point x="533.2" y="382" type="line" smooth="yes"/>
			<point x="533.2" y="612.2"/>
			<point x="448.4" y="720"/>
			<point x="290.7" y="720" type="curve" smooth="yes"/>
			<point x="279.5" y="720"/>
			<point x="261.1" y="707.3"/>
			<point x="261.1" y="679.8" type="curve"/>
			<point x="397.2" y="671.1"/>
			<point x="452" y="579.9"/>
			<point x="452" y="383.7" type="curve" smooth="yes"/>
			<point x="452" y="375.3" type="line" smooth="yes"/>
			<point x="452" y="148.5"/>
			<point x="384.3378184705" y="40.4716750323"/>
			<point x="227.1" y="17.9" type="curve"/>
			<point x="227.1" y="-2.7"/>
			<point x="238.6" y="-20"/>
			<point x="253.6" y="-20" type="curve" smooth="yes"/>
			<point x="428.3" y="-20"/>
			<point x="533.2" y="100"/>
		</contour>
		<contour>
			<point x="276.2" y="230.3" type="curve" smooth="yes"/>
			<point x="344.2" y="230.3"/>
			<point x="425.1" y="256.9"/>
			<point x="460.8" y="291.9" type="curve" smooth="yes"/>
			<point x="472.6" y="303.7"/>
			<point x="476.6" y="324.3"/>
			<point x="477.8" y="363.4" type="curve"/>
			<point x="422.5" y="323.2"/>
			<point x="355.6" y="302.5"/>
			<point x="284.9" y="302.5" type="curve" smooth="yes"/>
			<point x="175.4" y="302.5"/>
			<point x="111.8" y="369.3495145631"/>
			<point x="111.8" y="476.7" type="curve" smooth="yes"/>
			<point x="111.8" y="497.9"/>
			<point x="113.5" y="513.3"/>
			<point x="119.2" y="530.1" type="curve"/>
			<point x="91.5" y="530.1"/>
			<point x="66.1" y="496.8"/>
			<point x="66.1" y="458.1" type="curve" smooth="yes"/>
			<point x="66.1" y="312.7"/>
			<point x="148.4" y="230.3"/>
		</contour>
	</outline>
</glyph>
<glyph name="less" format="2">
	<unicode hex="003C"/>
	<advance width="600"/>
	<outline>
		<contour>
			<point x="525.3" y="496.3" type="curve"/>
			<point x="525.3" y="510.2" type="line" smooth="yes"/>
			<point x="525.3" y="541.3"/>
			<point x="509.8" y="568.2"/>
			<point x="490.4" y="568.2" type="curve" smooth="yes"/>
			<point x="477.4" y="568.2"/>
			<point x="445.2" y="560.5"/>
			<point x="400.3" y="544.2" type="curve" smooth="yes"/>
			<point x="255.5" y="490.9"/>
			<point x="149.9" y="417.8"/>
			<point x="69.4" y="326.2" type="curve"/>
			<point x="69.4" y="297.9" type="line"/>
			<point x="69.4" y="279.9"/>
			<point x="91.7" y="270.5"/>
			<point x="130.8" y="281" type="curve" smooth="yes"/>
			<point x="242" y="390.6"/>
			<point x="320.1" y="447.4"/>
		</contour>
		<contour>
			<point x="519.9" y="25.9" type="curve"/>
			<point x="522.8" y="34.6"/>
			<point x="524.1" y="43.6"/>
			<point x="524.1" y="55.7" type="curve" smooth="yes"/>
			<point x="524.1" y="84.1"/>
			<point x="516.3" y="106.6"/>
			<point x="499.1" y="112.1" type="curve" smooth="yes"/>
			<point x="316.1" y="165"/>
			<point x="244.6" y="211.7"/>
			<point x="129.4" y="319.3" type="curve" smooth="yes"/>
			<point x="122.4" y="325.9"/>
			<point x="119.7" y="332.5"/>
			<point x="119.7" y="337.9" type="curve" smooth="yes"/>
			<point x="119.7" y="341.8"/>
			<point x="119.7" y="347.9"/>
			<point x="119.7" y="356.7" type="curve"/>
			<point x="84.9" y="337.6"/>
			<point x="69.4" y="319.6"/>
			<point x="69.4" y="301.9" type="curve" smooth="yes"/>
			<point x="69.4" y="292.2" type="line" smooth="yes"/>
			<point x="69.4" y="271.2"/>
			<point x="76.9" y="258.7"/>
			<point x="104.5" y="235.2" type="curve" smooth="yes"/>
			<point x="210.1" y="145.1"/>
			<point x="306.9" y="75"/>
		</contour>
	</outline>
</glyph>
<glyph name="at" format="2">
	<unicode hex="0040"/>
	<advance width="600"/>
	<outline>
		<contour>
			<point x="482" y="514.6" type="curve" smooth="yes"/>
			<point x="467.3" y="529.3"/>
			<point x="439.6" y="539.6"/>
			<point x="391.5" y="539.6" type="curve" smooth="yes"/>
			<point x="361.5" y="539.6"/>
			<point x="331.2" y="530.4"/>
			<point x="306.1" y="505.3" type="curve" smooth="yes"/>
			<point x="289.8" y="489"/>
			<point x="288.5" y="454.1"/>
			<point x="301.3" y="437.1" type="curve"/>
			<point x="336.9" y="462.7"/>
			<point x="361.3" y="472.5"/>
			<point x="397.4" y="472.5" type="curve" smooth="yes"/>
			<point x="435.1" y="472.5"/>
			<point x="455.7" y="467.4"/>
			<point x="481.2" y="447.3" type="curve"/>
			<point x="495" y="480.5"/>
			<point x="491.3" y="505.3"/>
		</contour>
		<contour>
			<point x="495" y="166" type="curve"/>
			<point x="455.8" y="110.4"/>
			<point x="406.1" y="81"/>
			<point x="369.2" y="81" type="curve" smooth="yes"/>
			<point x="328.5" y="81"/>
			<point x="306" y="109.6042341221"/>
			<point x="306" y="199.2" type="curve" smooth="yes"/>
			<point x="306" y="204.1" type="line" smooth="yes"/>
			<point x="306" y="353.233976834"/>
			<point x="317.4613569865" y="423.3635833189"/>
			<point x="374.6" y="503.2" type="curve"/>
			<point x="348.9" y="516.5"/>
			<point x="317.9" y="517.1"/>
			<point x="306.1" y="505.3" type="curve" smooth="yes"/>
			<point x="256.1610655757" y="455.3610655757"/>
			<point x="230.6" y="357.7477031802"/>
			<point x="230.6" y="200.4" type="curve" smooth="yes"/>
			<point x="230.6" y="194.2" type="line" smooth="yes"/>
			<point x="230.6" y="73.0580340173"/>
			<point x="275" y="10"/>
			<point x="358.7" y="10" type="curve" smooth="yes"/>
			<point x="399.5" y="10"/>
			<point x="436.7" y="24.4"/>
			<point x="488.1" y="79.7" type="curve" smooth="yes"/>
			<point x="502.2" y="95.6"/>
			<point x="506.4" y="130.5"/>
		</contour>
		<contour>
			<point x="543.1" y="16.1" type="line"/>
			<point x="534.3" y="48.2"/>
			<point x="533" y="65.4"/>
			<point x="533" y="107.6" type="curve" smooth="yes"/>
			<point x="533" y="516" type="line" smooth="yes"/>
			<point x="533" y="684.3"/>
			<point x="472.4" y="760"/>
			<point x="344.8" y="760" type="curve" smooth="yes"/>
			<point x="319.7" y="760"/>
			<point x="321.9" y="735.7"/>
			<point x="321.9" y="719.2" type="curve"/>
			<point x="439.2" y="708.6"/>
			<point x="459" y="658.8"/>
			<point x="459" y="522" type="curve" smooth="yes"/>
			<point x="459" y="82.3" type="line" smooth="yes"/>
			<point x="459" y="41.1"/>
			<point x="490.1" y="16.1"/>
			<point x="534.4" y="16.1" type="curve"/>
		</contour>
		<contour>
			<point x="58.4" y="200" type="curve" smooth="yes"/>
			<point x="58.4" y="191.9" type="line" smooth="yes"/>
			<point x="58.4" y="37.4"/>
			<point x="82.6" y="-69.2"/>
			<point x="142.2" y="-128.8" type="curve" smooth="yes"/>
			<point x="171" y="-157.6"/>
			<point x="198.5" y="-150.9"/>
			<point x="221.8" y="-127.3" type="curve"/>
			<point x="131.7" y="-31.8"/>
			<point x="123.4" y="29.1"/>
			<point x="123.4" y="187.7" type="curve" smooth="yes"/>
			<point x="123.4" y="197" type="line" smooth="yes"/>
			<point x="123.4" y="511.4"/>
			<point x="217.3" y="695"/>
			<point x="345" y="695" type="curve" smooth="yes"/>
			<point x="396.5" y="695"/>
			<point x="424.9" y="678.5"/>
			<point x="455.4" y="644.4" type="curve"/>
			<point x="469.6" y="654.8"/>
			<point x="475.2" y="665.9"/>
			<point x="475.2" y="678.9" type="curve" smooth="yes"/>
			<point x="475.2" y="718.5"/>
			<point x="410.4" y="760"/>
			<point x="344.8" y="760" type="curve" smooth="yes"/>
			<point x="160.4" y="760"/>
			<point x="58.4" y="535.9"/>
		</contour>
		<contour>
			<point x="325.1" y="-190" type="curve" smooth="yes"/>
			<point x="388.9" y="-190"/>
			<point x="444.6" y="-179.6"/>
			<point x="461.2" y="-163" type="curve" smooth="yes"/>
			<point x="473.3" y="-150.9"/>
			<point x="478" y="-129.8"/>
			<point x="478" y="-105" type="curve" smooth="yes"/>
			<point x="478" y="-97" type="line"/>
			<point x="474" y="-97" type="line"/>
			<point x="429.2" y="-118.4"/>
			<point x="387.5" y="-125"/>
			<point x="328" y="-125" type="curve" smooth="yes"/>
			<point x="248.3" y="-125"/>
			<point x="187.3" y="-101.3"/>
			<point x="135.1" y="-39.9" type="curve"/>
			<point x="120.8" y="-64"/>
			<point x="120.5" y="-107.1"/>
			<point x="142.2" y="-128.8" type="curve"/>
			<point x="184.2" y="-170.8"/>
			<point x="243.7" y="-190"/>
		</contour>
	</outline>
</glyph>
<glyph name="A" format="2">
	<unicode hex="0041"/>
	<advance width="600"/>
	<outline>
		<contour>
			<point x="147.6" y="-7" type="curve"/>
			<point x="153.6" y="311.1"/>
			<point x="205.9" y="501.9"/>
			<point x="313.8" y="644.4" type="curve" smooth="yes"/>
			<point x="331.2" y="666"/>
			<point x="314.4" y="710"/>
			<point x="283" y="710" type="curve" smooth="yes"/>
			<point x="260.7" y="710" type="line"/>
			<point x="133" y="544.3"/>
			<point x="64.6" y="307.2"/>
			<point x="64.6" y="26.2" type="curve" smooth="yes"/>
			<point x="64.6" y="-1.1"/>
			<point x="91.9" y="-10"/>
			<point x="122.5" y="-10" type="curve"/>
			<point x="134.9" y="-10"/>
			<point x="140.1" y="-9"/>
		</contour>
		<contour>
			<point x="536" y="-6.7" type="curve"/>
			<point x="533" y="256.8"/>
			<point x="469.1" y="487.5"/>
			<point x="398.3" y="618.3" type="curve" smooth="yes"/>
			<point x="376.6" y="658.9"/>
			<point x="359" y="680.7"/>
			<point x="344.1" y="695.6" type="curve" smooth="yes"/>
			<point x="335.7" y="704"/>
			<point x="312.8" y="710"/>
			<point x="283" y="710" type="curve" smooth="yes"/>
			<point x="266" y="710"/>
			<point x="248.3" y="680.1"/>
			<point x="248.3" y="660" type="curve"/>
			<point x="255.1" y="660"/>
			<point x="260.3" y="660"/>
			<point x="265.1" y="660" type="curve" smooth="yes"/>
			<point x="276.7" y="660"/>
			<point x="279.7" y="660.9"/>
			<point x="300.6" y="629.3" type="curve" smooth="yes"/>
			<point x="393.5" y="491.4"/>
			<point x="445.8" y="270.6"/>
			<point x="451.2" y="28.6" type="curve" smooth="yes"/>
			<point x="451.5" y="17.6"/>
			<point x="453.5" y="12.4"/>
			<point x="459.3" y="6.6" type="curve" smooth="yes"/>
			<point x="470.5" y="-4.6"/>
			<point x="492" y="-10"/>
			<point x="512.2" y="-10" type="curve" smooth="yes"/>
			<point x="521.8" y="-10"/>
			<point x="528.9" y="-9"/>
		</contour>
		<contour>
			<point x="42.5" y="276" type="line"/>
			<point x="42.5" y="261.5" type="line" smooth="yes"/>
			<point x="42.5" y="237.1"/>
			<point x="46.7" y="217.1"/>
			<point x="58.9" y="204.9" type="curve" smooth="yes"/>
			<point x="62.8" y="201"/>
			<point x="66.5" y="199"/>
			<point x="72.4" y="199" type="curve"/>
			<point x="457.2" y="199" type="line"/>
			<point x="457.2" y="251.9"/>
			<point x="424.7" y="276"/>
			<point x="359.6" y="276" type="curve" smooth="yes"/>
		</contour>
	</outline>
	<anchor name="top" x="300" y="710.3"/>
	<anchor name="ring" x="298.6" y="703"/>
	<anchor name="ogonek" x="537" y="-6.7"/>
	<anchor name="bottom" x="296.1" y="-1"/>
</glyph>
<glyph name="B" format="2">
	<unicode hex="0042"/>
	<advance width="600"/>
	<outline>
		<contour>
			<point x="175.5" y="20.2" type="curve"/>
			<point x="175.5" y="576.2" type="line" smooth="yes"/>
			<point x="175.5" y="636.6"/>
			<point x="149.4" y="661.5"/>
			<point x="92.5" y="661.5" type="curve"/>
			<point x="92.5" y="45.8" type="line"/>
			<point x="92.5" y="30.3"/>
			<point x="128.5" y="20.2"/>
		</contour>
		<contour>
			<point x="42.8" y="700" type="curve"/>
			<point x="41.6" y="692.8"/>
			<point x="41" y="684.9"/>
			<point x="41" y="675.9" type="curve" smooth="yes"/>
			<point x="41" y="651.1"/>
			<point x="45.2" y="636.3"/>
			<point x="55" y="626.2" type="curve" smooth="yes"/>
			<point x="59.9" y="621.3"/>
			<point x="65.9" y="620"/>
			<point x="71.7" y="620" type="curve" smooth="yes"/>
			<point x="79.6" y="620"/>
			<point x="91" y="621.9"/>
			<point x="110.1" y="624.8" type="curve" smooth="yes"/>
			<point x="159.8" y="632.9"/>
			<point x="230" y="640"/>
			<point x="287.6" y="640" type="curve" smooth="yes"/>
			<point x="373.7" y="640"/>
			<point x="417.3" y="626.5"/>
			<point x="467.3" y="581.2" type="curve"/>
			<point x="524.8" y="638.7"/>
			<point x="420.4" y="720"/>
			<point x="305.5" y="720" type="curve" smooth="yes"/>
			<point x="222.5" y="720"/>
			<point x="141.8" y="716.1"/>
		</contour>
		<contour>
			<point x="529.5" y="506.8" type="curve" smooth="yes"/>
			<point x="529.5" y="532" type="line" smooth="yes"/>
			<point x="529.5" y="631.3"/>
			<point x="454.5" y="720"/>
			<point x="305.5" y="720" type="curve" smooth="yes"/>
			<point x="294.5" y="720"/>
			<point x="284" y="706.9"/>
			<point x="284" y="681.5" type="curve"/>
			<point x="387.6" y="681.5"/>
			<point x="449.5" y="609.9"/>
			<point x="449.5" y="520.5" type="curve" smooth="yes"/>
			<point x="449.5" y="500.8" type="line" smooth="yes"/>
			<point x="449.5" y="404.5"/>
			<point x="363.4" y="351.5"/>
			<point x="219.8" y="351.5" type="curve" smooth="yes"/>
			<point x="188.5" y="351.5"/>
			<point x="174.3" y="354.8"/>
			<point x="154.5" y="365.3" type="curve"/>
			<point x="148.1" y="360.3"/>
			<point x="145.2" y="351.4"/>
			<point x="145.2" y="341.8" type="curve" smooth="yes"/>
			<point x="145.2" y="311.7"/>
			<point x="183.1" y="282"/>
			<point x="216.1" y="282" type="curve" smooth="yes"/>
			<point x="228.4" y="282" type="line" smooth="yes"/>
			<point x="391.8" y="282"/>
			<point x="529.5" y="362.1"/>
		</contour>
		<contour>
			<point x="525.8" y="188.3" type="curve" smooth="yes"/>
			<point x="525.8" y="214.7" type="line" smooth="yes"/>
			<point x="525.8" y="287.3"/>
			<point x="455.9" y="352.1"/>
			<point x="395.3" y="352.1" type="curve"/>
			<point x="390" y="352.1" type="line"/>
			<point x="362.9" y="352.1"/>
			<point x="338.8" y="336"/>
			<point x="338.8" y="323.6" type="curve"/>
			<point x="338.8" y="320.3" type="line"/>
			<point x="345" y="320.3" type="line"/>
			<point x="397.7" y="320.3"/>
			<point x="445.8" y="268.6"/>
			<point x="445.8" y="214" type="curve" smooth="yes"/>
			<point x="445.8" y="195.5" type="line" smooth="yes"/>
			<point x="445.8" y="111.2"/>
			<point x="362.9" y="68.5"/>
			<point x="273.2" y="68.5" type="curve" smooth="yes"/>
			<point x="177.6" y="68.5"/>
			<point x="145.4" y="76.4"/>
			<point x="108.8" y="95.6" type="curve"/>
			<point x="97.3" y="77.1"/>
			<point x="92.5" y="58.2"/>
			<point x="92.5" y="45.8" type="curve" smooth="yes"/>
			<point x="92.5" y="17.7"/>
			<point x="150.5" y="-10"/>
			<point x="268.7" y="-10" type="curve" smooth="yes"/>
			<point x="278.6" y="-10" type="line" smooth="yes"/>
			<point x="411.4" y="-10"/>
			<point x="525.8" y="63"/>
		</contour>
	</outline>
</glyph>
<glyph name="C" format="2">
	<unicode hex="0043"/>
	<advance width="600"/>
	<outline>
		<contour>
			<point x="374.9" y="644.2" type="curve" smooth="yes"/>
			<point x="436.3" y="644.2"/>
			<point x="481.2" y="614.1"/>
			<point x="488.7" y="528" type="curve"/>
			<point x="513.2" y="528"/>
			<point x="521" y="535.8"/>
			<point x="521" y="547.6" type="curve" smooth="yes"/>
			<point x="521" y="607.8"/>
			<point x="506.5" y="651.8"/>
			<point x="478.3" y="680" type="curve" smooth="yes"/>
			<point x="453.3" y="705"/>
			<point x="417.6" y="720"/>
			<point x="368.9" y="720" type="curve" smooth="yes"/>
			<point x="197" y="720"/>
			<point x="76.3" y="536.7"/>
			<point x="76.3" y="284.9" type="curve" smooth="yes"/>
			<point x="76.3" y="258.2" type="line" smooth="yes"/>
			<point x="76.3" y="209.3"/>
			<point x="123.1" y="146.5"/>
			<point x="164.8" y="148.6" type="curve"/>
			<point x="159.3" y="180.6"/>
			<point x="156.5" y="229.4"/>
			<point x="156.5" y="262.6" type="curve" smooth="yes"/>
			<point x="156.5" y="275.7" type="line" smooth="yes"/>
			<point x="156.5" y="488.2"/>
			<point x="254.4" y="644.2"/>
		</contour>
		<contour>
			<point x="328.5" y="-20" type="curve" smooth="yes"/>
			<point x="407.9" y="-20"/>
			<point x="469.5" y="2"/>
			<point x="508" y="40.5" type="curve" smooth="yes"/>
			<point x="528.2" y="60.7"/>
			<point x="536" y="84.1"/>
			<point x="536" y="119.3" type="curve" smooth="yes"/>
			<point x="536" y="131.4"/>
			<point x="534" y="145.6"/>
			<point x="531" y="159.2" type="curve"/>
			<point x="527" y="159.2" type="line"/>
			<point x="480.7" y="92.5"/>
			<point x="420.9" y="60"/>
			<point x="327.9" y="60" type="curve" smooth="yes"/>
			<point x="192.8" y="60"/>
			<point x="150.2" y="172.6"/>
			<point x="150.2" y="309.8" type="curve"/>
			<point x="100" y="310.1"/>
			<point x="76.3" y="295.7"/>
			<point x="76.3" y="258.2" type="curve" smooth="yes"/>
			<point x="76.3" y="102.6"/>
			<point x="166.9" y="-20"/>
		</contour>
		<contour>
			<point x="521" y="421" type="curve"/>
			<point x="521" y="547.6" type="line" smooth="yes"/>
			<point x="521" y="637.4"/>
			<point x="465.3" y="685.6"/>
			<point x="421.2" y="670.2" type="curve"/>
			<point x="436.2" y="620.9"/>
			<point x="438" y="588.9"/>
			<point x="438" y="545" type="curve" smooth="yes"/>
			<point x="438" y="453.9" type="line" smooth="yes"/>
			<point x="438" y="442.9"/>
			<point x="440.9" y="435.9"/>
			<point x="447.8" y="429" type="curve" smooth="yes"/>
			<point x="455.8" y="421"/>
			<point x="471" y="417.1"/>
			<point x="493.1" y="417.1" type="curve" smooth="yes"/>
			<point x="505.6" y="417.1"/>
			<point x="514.4" y="418.4"/>
		</contour>
	</outline>
	<anchor name="top" x="340.1" y="711"/>
	<anchor name="bottom" x="328.7" y="-7.7"/>
</glyph>
<glyph name="D" format="2">
	<unicode hex="0044"/>
	<advance width="600"/>
	<outline>
		<contour>
			<point x="175.5" y="25.3" type="curve"/>
			<point x="175.5" y="576.2" type="line" smooth="yes"/>
			<point x="175.5" y="636.9"/>
			<point x="149.4" y="661.5"/>
			<point x="92.5" y="661.5" type="curve"/>
			<point x="92.5" y="55.8" type="line"/>
			<point x="92.5" y="39.5"/>
			<point x="127.1" y="25.3"/>
		</contour>
		<contour>
			<point x="42.8" y="700" type="curve"/>
			<point x="41.6" y="692.8"/>
			<point x="41" y="684.9"/>
			<point x="41" y="675.9" type="curve" smooth="yes"/>
			<point x="41" y="651.1"/>
			<point x="45.2" y="636.3"/>
			<point x="55" y="626.2" type="curve" smooth="yes"/>
			<point x="59.9" y="621.3"/>
			<point x="65.9" y="620"/>
			<point x="71.7" y="620" type="curve" smooth="yes"/>
			<point x="79.6" y="620"/>
			<point x="91" y="621.9"/>
			<point x="110.1" y="624.8" type="curve" smooth="yes"/>
			<point x="157.7" y="632.9"/>
			<point x="223.7" y="640"/>
			<point x="279.2" y="640" type="curve" smooth="yes"/>
			<point x="362.5" y="640"/>
			<point x="404" y="617.9"/>
			<point x="456.8" y="569.8" type="curve"/>
			<point x="516.4" y="629.4"/>
			<point x="408.5" y="720"/>
			<point x="291.5" y="720" type="curve" smooth="yes"/>
			<point x="212.7" y="720"/>
			<point x="136.2" y="715.4"/>
		</contour>
		<contour>
			<point x="534.9" y="376.4" type="curve" smooth="yes"/>
			<point x="534.9" y="421" type="line" smooth="yes"/>
			<point x="534.9" y="608.8"/>
			<point x="460.3" y="720"/>
			<point x="291.5" y="720" type="curve" smooth="yes"/>
			<point x="275.8" y="720"/>
			<point x="266.1" y="701.3"/>
			<point x="266.1" y="680" type="curve"/>
			<point x="415.5" y="665.6"/>
			<point x="452.5" y="587.5"/>
			<point x="452.5" y="406.5" type="curve" smooth="yes"/>
			<point x="452.5" y="380.4" type="line" smooth="yes"/>
			<point x="452.5" y="197.6"/>
			<point x="370.9" y="71.5"/>
			<point x="232" y="71.5" type="curve" smooth="yes"/>
			<point x="181.6" y="71.5"/>
			<point x="149.6" y="79.4"/>
			<point x="110" y="99.5" type="curve"/>
			<point x="97.7" y="89.8"/>
			<point x="92.5" y="76.9"/>
			<point x="92.5" y="55.8" type="curve" smooth="yes"/>
			<point x="92.5" y="22.7"/>
			<point x="152.6" y="-10"/>
			<point x="230.5" y="-10" type="curve" smooth="yes"/>
			<point x="235.2" y="-10" type="line" smooth="yes"/>
			<point x="416.1" y="-10"/>
			<point x="534.9" y="149.1"/>
		</contour>
	</outline>
	<anchor name="top" x="287.6" y="711"/>
</glyph>
<glyph name="E" format="2">
	<unicode hex="0045"/>
	<advance width="600"/>
	<outline>
		<contour>
			<point x="42.5" y="700" type="line"/>
			<point x="42.5" y="695.5"/>
			<point x="42.5" y="690"/>
			<point x="42.5" y="685.5" type="curve" smooth="yes"/>
			<point x="42.5" y="659.9"/>
			<point x="46.4" y="636.6"/>
			<point x="57.1" y="625.9" type="curve" smooth="yes"/>
			<point x="61" y="622"/>
			<point x="64.7" y="620"/>
			<point x="70.6" y="620" type="curve" smooth="yes"/>
			<point x="531.8" y="620" type="line"/>
			<point x="534.7" y="627.7"/>
			<point x="536" y="637.6"/>
			<point x="536" y="648.1" type="curve" smooth="yes"/>
			<point x="536" y="660.7"/>
			<point x="533.1" y="681.6"/>
			<point x="521.8" y="692.9" type="curve" smooth="yes"/>
			<point x="516.7" y="698"/>
			<point x="511.8" y="700"/>
			<point x="503.2" y="700" type="curve" smooth="yes"/>
		</contour>
		<contour>
			<point x="175.5" y="40.4" type="curve"/>
			<point x="175.5" y="564.5" type="line" smooth="yes"/>
			<point x="175.5" y="623.1"/>
			<point x="154.4" y="647.7"/>
			<point x="92.5" y="647.7" type="curve"/>
			<point x="92.5" y="73" type="line"/>
			<point x="92.5" y="47.5"/>
			<point x="127.9" y="40.4"/>
		</contour>
		<contour>
			<point x="92.5" y="80" type="line"/>
			<point x="92.5" y="67.6" type="line" smooth="yes"/>
			<point x="92.5" y="36.6"/>
			<point x="120.3" y="0"/>
			<point x="145.9" y="0" type="curve" smooth="yes"/>
			<point x="534.5" y="0" type="line"/>
			<point x="535.7" y="6.6"/>
			<point x="536.3" y="15.4"/>
			<point x="536.3" y="24.4" type="curve" smooth="yes"/>
			<point x="536.3" y="63.1"/>
			<point x="525.3" y="80"/>
			<point x="501.6" y="80" type="curve"/>
		</contour>
		<contour>
			<point x="127.5" y="365" type="line"/>
			<point x="127.5" y="312.8"/>
			<point x="134.6" y="291"/>
			<point x="160.1" y="291" type="curve" smooth="yes"/>
			<point x="465" y="291" type="line"/>
			<point x="465" y="294.3"/>
			<point x="465" y="298.9"/>
			<point x="465" y="302.2" type="curve" smooth="yes"/>
			<point x="465" y="322.7"/>
			<point x="459.9" y="343"/>
			<point x="446.8" y="356.1" type="curve" smooth="yes"/>
			<point x="440.2" y="362.7"/>
			<point x="433.8" y="365"/>
			<point x="424.6" y="365" type="curve" smooth="yes"/>
		</contour>
	</outline>
	<anchor name="top" x="300" y="711.3"/>
	<anchor name="ogonek" x="535.5" y="0"/>
	<anchor name="bottom" x="325.9" y="-1"/>
</glyph>
<glyph name="F" format="2">
	<unicode hex="0046"/>
	<advance width="600"/>
	<outline>
		<contour>
			<point x="191.6" y="-6.7" type="curve"/>
			<point x="182.8" y="24.7"/>
			<point x="181.5" y="41.9"/>
			<point x="181.5" y="84.8" type="curve" smooth="yes"/>
			<point x="181.5" y="564.5" type="line" smooth="yes"/>
			<point x="181.5" y="626.6"/>
			<point x="158.9" y="653.3"/>
			<point x="98.5" y="653.3" type="curve"/>
			<point x="98.5" y="44.8" type="line" smooth="yes"/>
			<point x="98.5" y="9.6"/>
			<point x="124.7" y="-6.7"/>
			<point x="182.9" y="-6.7" type="curve" smooth="yes"/>
			<point x="185.8" y="-6.7"/>
			<point x="188.7" y="-6.7"/>
		</contour>
		<contour>
			<point x="42.5" y="700" type="line"/>
			<point x="42.5" y="695.5"/>
			<point x="42.5" y="690"/>
			<point x="42.5" y="685.5" type="curve" smooth="yes"/>
			<point x="42.5" y="654.2"/>
			<point x="47.6" y="637.2"/>
			<point x="57.1" y="627.7" type="curve" smooth="yes"/>
			<point x="62.2" y="622.6"/>
			<point x="67.1" y="620"/>
			<point x="76.6" y="620" type="curve" smooth="yes"/>
			<point x="532.1" y="620" type="line"/>
			<point x="534.7" y="627.4"/>
			<point x="536" y="637"/>
			<point x="536" y="648.1" type="curve" smooth="yes"/>
			<point x="536" y="666.1"/>
			<point x="531.6" y="682.8"/>
			<point x="522.1" y="692.3" type="curve" smooth="yes"/>
			<point x="516.7" y="697.7"/>
			<point x="510.9" y="700"/>
			<point x="501.4" y="700" type="curve" smooth="yes"/>
		</contour>
		<contour>
			<point x="118.5" y="315" type="line"/>
			<point x="118.5" y="263.0211538461"/>
			<point x="125.6" y="235"/>
			<point x="151.1" y="235" type="curve" smooth="yes"/>
			<point x="492.1" y="235" type="line"/>
			<point x="492.7" y="239.8"/>
			<point x="493" y="245.3"/>
			<point x="493" y="250.7" type="curve" smooth="yes"/>
			<point x="493" y="272.4"/>
			<point x="485.8" y="292.4"/>
			<point x="473.3" y="304.9" type="curve" smooth="yes"/>
			<point x="465.2" y="313"/>
			<point x="459.7" y="315"/>
			<point x="447.2" y="315" type="curve" smooth="yes"/>
		</contour>
	</outline>
</glyph>
<glyph name="G" format="2">
	<unicode hex="0047"/>
	<advance width="600"/>
	<outline>
		<contour>
			<point x="372.8" y="643.3" type="curve" smooth="yes"/>
			<point x="447.5" y="643.3"/>
			<point x="476" y="603.3"/>
			<point x="476" y="545.5" type="curve"/>
			<point x="504.9" y="545.5"/>
			<point x="514.5" y="559.2"/>
			<point x="514.5" y="571.4" type="curve" smooth="yes"/>
			<point x="514.5" y="617.8"/>
			<point x="504.9" y="648.6"/>
			<point x="476.3" y="677.2" type="curve" smooth="yes"/>
			<point x="448.4" y="705.1"/>
			<point x="417.1" y="720"/>
			<point x="371" y="720" type="curve" smooth="yes"/>
			<point x="188.2" y="720"/>
			<point x="64" y="550.9"/>
			<point x="64" y="281.9" type="curve" smooth="yes"/>
			<point x="64" y="267.9" type="line" smooth="yes"/>
			<point x="64" y="209.5"/>
			<point x="109.5" y="135.6"/>
			<point x="162.8" y="123" type="curve"/>
			<point x="150.3" y="162"/>
			<point x="145.4" y="212.8"/>
			<point x="145.4" y="266.3" type="curve" smooth="yes"/>
			<point x="145.4" y="278.8" type="line" smooth="yes"/>
			<point x="145.4" y="504"/>
			<point x="244.1" y="643.3"/>
		</contour>
		<contour>
			<point x="313.2" y="60" type="curve" smooth="yes"/>
			<point x="192.7" y="60"/>
			<point x="133.1" y="152.5"/>
			<point x="133.1" y="314" type="curve"/>
			<point x="92.6" y="314.3"/>
			<point x="64" y="298.6"/>
			<point x="64" y="267.9" type="curve" smooth="yes"/>
			<point x="64" y="95.9"/>
			<point x="150.2" y="-20"/>
			<point x="313.2" y="-20" type="curve" smooth="yes"/>
			<point x="439.7" y="-20"/>
			<point x="532.7" y="58.4"/>
			<point x="532.7" y="174.6" type="curve" smooth="yes"/>
			<point x="532.7" y="181.5" type="line" smooth="yes"/>
			<point x="532.7" y="238.7"/>
			<point x="509.5" y="281.1"/>
			<point x="462.3" y="281.1" type="curve"/>
			<point x="467.7" y="259.6"/>
			<point x="470.1" y="237.7"/>
			<point x="470.1" y="205.9" type="curve" smooth="yes"/>
			<point x="470.1" y="115.7"/>
			<point x="405.5" y="60"/>
		</contour>
		<contour>
			<point x="296.6" y="316.5" type="line"/>
			<point x="295.2" y="312.6"/>
			<point x="294.5" y="306.6"/>
			<point x="294.5" y="300.3" type="curve" smooth="yes"/>
			<point x="294.5" y="279.9"/>
			<point x="299.9" y="266.3"/>
			<point x="309.6" y="256.6" type="curve" smooth="yes"/>
			<point x="319.3" y="246.9"/>
			<point x="331.6" y="242.8"/>
			<point x="358.8" y="242.8" type="curve" smooth="yes"/>
			<point x="567.3" y="242.8" type="line"/>
			<point x="567.3" y="252.5" type="line" smooth="yes"/>
			<point x="567.3" y="298.7"/>
			<point x="556.9" y="316.5"/>
			<point x="530.8" y="316.5" type="curve" smooth="yes"/>
		</contour>
		<contour>
			<point x="514.5" y="472.1" type="curve"/>
			<point x="514.5" y="571.4" type="line" smooth="yes"/>
			<point x="514.5" y="639.1"/>
			<point x="470.3" y="678.8"/>
			<point x="425.2" y="669" type="curve"/>
			<point x="432.7" y="636.4"/>
			<point x="434.5" y="599.1"/>
			<point x="434.5" y="571.6" type="curve" smooth="yes"/>
			<point x="434.5" y="506.4" type="line" smooth="yes"/>
			<point x="434.5" y="479.6"/>
			<point x="448.4" y="468.9"/>
			<point x="487.3" y="468.9" type="curve" smooth="yes"/>
			<point x="497.7" y="468.9"/>
			<point x="507.2" y="470.2"/>
		</contour>
	</outline>
	<anchor name="top" x="315.5" y="711"/>
	<anchor name="bottom" x="315.5" y="-1"/>
</glyph>
<glyph name="H" format="2">
	<unicode hex="0048"/>
	<advance width="600"/>
	<outline>
		<contour>
			<point x="76.7" y="705.8" type="curve"/>
			<point x="83.6" y="670.5"/>
			<point x="85.5" y="634.9"/>
			<point x="85.5" y="597" type="curve" smooth="yes"/>
			<point x="85.5" y="26.2" type="line" smooth="yes"/>
			<point x="85.5" y="0.1"/>
			<point x="110.4" y="-10"/>
			<point x="150.4" y="-10" type="curve" smooth="yes"/>
			<point x="157.6" y="-10"/>
			<point x="164" y="-9.7"/>
			<point x="168.5" y="-9.1" type="curve"/>
			<point x="168.5" y="647" type="line" smooth="yes"/>
			<point x="168.5" y="669.9"/>
			<point x="165.9" y="686.1"/>
			<point x="154.2" y="697.8" type="curve" smooth="yes"/>
			<point x="145.9" y="706.1"/>
			<point x="133.5" y="710"/>
			<point x="108.7" y="710" type="curve" smooth="yes"/>
			<point x="97" y="710"/>
			<point x="87.8" y="708.7"/>
		</contour>
		<contour>
			<point x="533.3" y="-5.8" type="curve"/>
			<point x="526.4" y="29.5"/>
			<point x="524.5" y="65.1"/>
			<point x="524.5" y="103" type="curve" smooth="yes"/>
			<point x="524.5" y="673.8" type="line" smooth="yes"/>
			<point x="524.5" y="699.6"/>
			<point x="497.2" y="710"/>
			<point x="453.6" y="710" type="curve" smooth="yes"/>
			<point x="449.1" y="710"/>
			<point x="444.8" y="710"/>
			<point x="441.5" y="710" type="curve"/>
			<point x="441.5" y="53" type="line" smooth="yes"/>
			<point x="441.5" y="30.1"/>
			<point x="444.1" y="13.9"/>
			<point x="455.8" y="2.2" type="curve" smooth="yes"/>
			<point x="464.1" y="-6.1"/>
			<point x="476.5" y="-10"/>
			<point x="501.3" y="-10" type="curve" smooth="yes"/>
			<point x="513" y="-10"/>
			<point x="522.2" y="-8.7"/>
		</contour>
		<contour>
			<point x="42.5" y="330" type="line"/>
			<point x="42.5" y="315.5" type="line" smooth="yes"/>
			<point x="42.5" y="289"/>
			<point x="48.5" y="269"/>
			<point x="61.6" y="255.9" type="curve" smooth="yes"/>
			<point x="65.8" y="251.7"/>
			<point x="69.5" y="250"/>
			<point x="75.1" y="250" type="curve" smooth="yes"/>
			<point x="472.7" y="250" type="line"/>
			<point x="472.7" y="309.5"/>
			<point x="444.6" y="330"/>
			<point x="386" y="330" type="curve" smooth="yes"/>
		</contour>
	</outline>
	<anchor name="top" x="287.4" y="711"/>
</glyph>
<glyph name="I" format="2">
	<unicode hex="0049"/>
	<advance width="600"/>
	<outline>
		<contour>
			<point x="340" y="43.3" type="curve"/>
			<point x="340" y="564.5" type="line" smooth="yes"/>
			<point x="340" y="623.1"/>
			<point x="319.5" y="647.7"/>
			<point x="257" y="647.7" type="curve"/>
			<point x="257" y="137" type="line" smooth="yes"/>
			<point x="257" y="73.8818897638"/>
			<point x="277.5" y="43.3"/>
		</contour>
		<contour>
			<point x="64.9" y="700" type="line"/>
			<point x="62.6" y="694.5"/>
			<point x="61.3" y="686.7"/>
			<point x="61.3" y="678" type="curve" smooth="yes"/>
			<point x="61.3" y="658.2"/>
			<point x="66.1" y="643.2"/>
			<point x="77" y="632.3" type="curve" smooth="yes"/>
			<point x="86.4" y="622.9"/>
			<point x="98.9" y="620"/>
			<point x="125" y="620" type="curve" smooth="yes"/>
			<point x="532.8" y="620" type="line"/>
			<point x="535" y="628.8"/>
			<point x="536.3" y="639"/>
			<point x="536.3" y="647.2" type="curve" smooth="yes"/>
			<point x="536.3" y="679.3"/>
			<point x="528.3" y="700"/>
			<point x="501.6" y="700" type="curve" smooth="yes"/>
		</contour>
		<contour>
			<point x="65.5" y="80" type="line"/>
			<point x="62.4593415414" y="72.2780246241"/>
			<point x="61.3" y="62.7117647059"/>
			<point x="61.3" y="52.9" type="curve" smooth="yes"/>
			<point x="61.3" y="35.4296296296"/>
			<point x="64.5648551387" y="19.9351448613"/>
			<point x="74.9" y="9.6" type="curve" smooth="yes"/>
			<point x="81.9133253776" y="2.5866746224"/>
			<point x="89.0279069767" y="0"/>
			<point x="105.2" y="0" type="curve" smooth="yes"/>
			<point x="534.2" y="0" type="line"/>
			<point x="535.414299313" y="6.6536224238"/>
			<point x="536.3" y="15.4"/>
			<point x="536.3" y="24.4" type="curve" smooth="yes"/>
			<point x="536.3" y="58.6"/>
			<point x="528.3" y="80"/>
			<point x="501.6" y="80" type="curve" smooth="yes"/>
		</contour>
	</outline>
	<anchor name="top" x="300" y="711.3"/>
	<anchor name="ogonek" x="535.2" y="0"/>
	<anchor name="bottom" x="300" y="-1"/>
</glyph>
<glyph name="J" format="2">
	<unicode hex="004A"/>
	<advance width="600"/>
	<outline>
		<contour>
			<point x="142.8" y="700" type="line"/>
			<point x="141.9" y="695.2"/>
			<point x="141.3" y="688.8"/>
			<point x="141.3" y="682.2" type="curve" smooth="yes"/>
			<point x="141.3" y="659.6"/>
			<point x="146.1" y="643.2"/>
			<point x="157.7" y="631.6" type="curve" smooth="yes"/>
			<point x="166.4" y="622.9"/>
			<point x="178.2" y="620"/>
			<point x="203.6" y="620" type="curve"/>
			<point x="462.6" y="620" type="line"/>
			<point x="462.6" y="678.2"/>
			<point x="451.3" y="700"/>
			<point x="424" y="700" type="curve"/>
		</contour>
		<contour>
			<point x="501" y="224" type="curve" smooth="yes"/>
			<point x="501" y="668.9" type="line" smooth="yes"/>
			<point x="501" y="688.1"/>
			<point x="481.1" y="700"/>
			<point x="435.5" y="700" type="curve"/>
			<point x="418.3" y="700" type="line"/>
			<point x="418.3" y="230" type="line" smooth="yes"/>
			<point x="418.3" y="134.0024630542"/>
			<point x="406.3" y="98.9"/>
			<point x="346" y="40.2" type="curve"/>
			<point x="412.9180254689" y="15.5154752841"/>
			<point x="501" y="98.2153846154"/>
		</contour>
		<contour>
			<point x="281.5" y="60" type="curve" smooth="yes"/>
			<point x="203.3" y="60"/>
			<point x="162.6" y="80.1"/>
			<point x="102.2" y="112.9" type="curve"/>
			<point x="98.2" y="112.9" type="line"/>
			<point x="97.3" y="104.6"/>
			<point x="97" y="96.6"/>
			<point x="97" y="88.3" type="curve" smooth="yes"/>
			<point x="97" y="56.7"/>
			<point x="104.5" y="33.9"/>
			<point x="114.6" y="23.8" type="curve" smooth="yes"/>
			<point x="146.9270779506" y="-8.5270779506"/>
			<point x="208.3717948718" y="-20"/>
			<point x="264" y="-20" type="curve" smooth="yes"/>
			<point x="270.5" y="-20" type="line" smooth="yes"/>
			<point x="422.1" y="-20"/>
			<point x="501" y="78.275"/>
			<point x="501" y="224" type="curve" smooth="yes"/>
			<point x="501" y="236.7142857143"/>
			<point x="488.8" y="251.5"/>
			<point x="460.7" y="251.5" type="curve"/>
			<point x="449.3" y="123.6"/>
			<point x="384.2104166667" y="60"/>
		</contour>
	</outline>
	<anchor name="top" x="298.5" y="711"/>
</glyph>
<glyph name="K" format="2">
	<unicode hex="004B"/>
	<advance width="600"/>
	<outline>
		<contour>
			<point x="79.1" y="707" type="curve"/>
			<point x="84.5" y="671.1"/>
			<point x="85.5" y="634.9"/>
			<point x="85.5" y="597" type="curve" smooth="yes"/>
			<point x="85.5" y="26.2" type="line" smooth="yes"/>
			<point x="85.5" y="-1.7"/>
			<point x="114" y="-10"/>
			<point x="150.4" y="-10" type="curve" smooth="yes"/>
			<point x="157.9" y="-10"/>
			<point x="164" y="-9.7"/>
			<point x="168.5" y="-9.1" type="curve"/>
			<point x="168.5" y="650.3" type="line" smooth="yes"/>
			<point x="168.5" y="671.1"/>
			<point x="165.6" y="686.7"/>
			<point x="153.9" y="698.4" type="curve" smooth="yes"/>
			<point x="146.2" y="706.1"/>
			<point x="127.5" y="710"/>
			<point x="103.3" y="710" type="curve" smooth="yes"/>
			<point x="93.7" y="710"/>
			<point x="86.9" y="709"/>
		</contour>
		<contour>
			<point x="476" y="710" type="curve" smooth="yes"/>
			<point x="461.8" y="710" type="line"/>
			<point x="394.2" y="470.6"/>
			<point x="264" y="355.9"/>
			<point x="109.1" y="289.5" type="curve"/>
			<point x="108.5" y="251"/>
			<point x="118.5" y="230.2"/>
			<point x="134.8" y="234.9" type="curve" smooth="yes"/>
			<point x="286.6904302696" y="290.7314472005"/>
			<point x="428.4" y="404.7"/>
			<point x="500.8" y="564.5" type="curve" smooth="yes"/>
			<point x="536.1" y="642.1"/>
			<point x="539.3" y="659.5"/>
			<point x="539.3" y="677.5" type="curve" smooth="yes"/>
			<point x="539.3" y="696.2"/>
			<point x="519.8" y="710"/>
		</contour>
		<contour>
			<point x="293.1" y="363.4" type="line"/>
			<point x="249.5" y="337.2"/>
			<point x="233.2" y="315"/>
			<point x="241.5" y="300.4" type="curve" smooth="yes"/>
			<point x="399.8" y="57.5" type="line" smooth="yes"/>
			<point x="435.3" y="1.2"/>
			<point x="469.6675675676" y="-20"/>
			<point x="510" y="-20" type="curve" smooth="yes"/>
			<point x="513.6" y="-20" type="line" smooth="yes"/>
			<point x="555.1" y="-20"/>
			<point x="572.6" y="1.6"/>
			<point x="572.6" y="40.7" type="curve" smooth="yes"/>
			<point x="572.6" y="57.4"/>
			<point x="571.3" y="70.1"/>
			<point x="568.4" y="82.7" type="curve"/>
			<point x="564.4" y="82.7" type="line"/>
			<point x="552.8441495361" y="71.920890403"/>
			<point x="538.9" y="66"/>
			<point x="521.8" y="66" type="curve" smooth="yes"/>
			<point x="499.7666666667" y="66"/>
			<point x="479.9" y="78.6"/>
			<point x="458.5" y="112.4" type="curve" smooth="yes"/>
		</contour>
	</outline>
	<anchor name="bottom" x="325.5" y="-1"/>
</glyph>
<glyph name="M" format="2">
	<unicode hex="004D"/>
	<advance width="600"/>
	<outline>
		<contour>
			<point x="149.5" y="-9.1" type="curve"/>
			<point x="149.5" y="59.9"/>
			<point x="149.5" y="128.9"/>
			<point x="149.5" y="197.9" type="curve" smooth="yes"/>
			<point x="149.5" y="352.6"/>
			<point x="140.5" y="549.8"/>
			<point x="140.5" y="684.6" type="curve" smooth="yes"/>
			<point x="140.5" y="690.5"/>
			<point x="138.5" y="697.2"/>
			<point x="134.6" y="701.1" type="curve" smooth="yes"/>
			<point x="128.3" y="707.4"/>
			<point x="123.9" y="710"/>
			<point x="112.5" y="710" type="curve"/>
			<point x="99.4" y="710"/>
			<point x="83.9" y="708.3"/>
			<point x="66.4" y="705.3" type="curve"/>
			<point x="70.8" y="670.9"/>
			<point x="72.5" y="636"/>
			<point x="72.5" y="600" type="curve" smooth="yes"/>
			<point x="72.5" y="25.6" type="line" smooth="yes"/>
			<point x="72.5" y="16.7"/>
			<point x="75.1" y="10.9"/>
			<point x="80.5" y="5.5" type="curve" smooth="yes"/>
			<point x="90.9" y="-4.9"/>
			<point x="111.8" y="-10"/>
			<point x="133.2" y="-10" type="curve" smooth="yes"/>
			<point x="138.9" y="-10"/>
			<point x="145" y="-9.7"/>
		</contour>
		<contour>
			<point x="536.5" y="-6.7" type="curve"/>
			<point x="530.2" y="28"/>
			<point x="527.5" y="63"/>
			<point x="527.5" y="100" type="curve" smooth="yes"/>
			<point x="527.5" y="678.6" type="line"/>
			<point x="527.5" y="685.22"/>
			<point x="524.9" y="690.6"/>
			<point x="520.7" y="694.8" type="curve" smooth="yes"/>
			<point x="512.0186931466" y="703.4813068534"/>
			<point x="487.6763636364" y="710"/>
			<point x="452.1" y="710" type="curve" smooth="yes"/>
			<point x="445.5" y="710" type="line"/>
			<point x="457.5" y="699.6"/>
			<point x="461" y="692.3"/>
			<point x="461" y="670" type="curve" smooth="yes"/>
			<point x="461" y="541.6"/>
			<point x="450.5" y="287.7"/>
			<point x="450.5" y="189.5" type="curve" smooth="yes"/>
			<point x="450.5" y="139.4"/>
			<point x="450.5" y="89.7"/>
			<point x="450.5" y="39.6" type="curve" smooth="yes"/>
			<point x="450.5" y="22.3"/>
			<point x="453.1" y="13"/>
			<point x="460.6" y="5.5" type="curve" smooth="yes"/>
			<point x="471" y="-4.9"/>
			<point x="489.8" y="-10"/>
			<point x="511.2" y="-10" type="curve" smooth="yes"/>
			<point x="519.6" y="-10"/>
			<point x="527.8" y="-9"/>
		</contour>
		<contour>
			<point x="112.5" y="710" type="line"/>
			<point x="146.6" y="481.2"/>
			<point x="220.5" y="278.5"/>
			<point x="284" y="215" type="curve" smooth="yes"/>
			<point x="288" y="211"/>
			<point x="295.5" y="208.6"/>
			<point x="300.5" y="208.6" type="curve"/>
			<point x="311" y="208.6"/>
			<point x="315.4537027063" y="246.1796485806"/>
			<point x="314.7" y="280.3" type="curve"/>
			<point x="260.3898151151" y="356.7136687248"/>
			<point x="203.4910271613" y="523.6537288012"/>
			<point x="180.8" y="681.7" type="curve" smooth="yes"/>
			<point x="178.5" y="696.8"/>
			<point x="151.1" y="710"/>
			<point x="115.8" y="710" type="curve"/>
		</contour>
		<contour>
			<point x="445.5" y="710" type="curve"/>
			<point x="435.5" y="710"/>
			<point x="429.2" y="709"/>
			<point x="421.9" y="706.7" type="curve"/>
			<point x="398.2104283786" y="503.8452669203"/>
			<point x="340.7154923134" y="357.810513802"/>
			<point x="285" y="284.2" type="curve" smooth="yes"/>
			<point x="278.3093690406" y="277.9791587209"/>
			<point x="288.2" y="208.6"/>
			<point x="300.5" y="208.6" type="curve"/>
			<point x="309.5" y="208.6" type="line"/>
			<point x="385.3" y="294.5"/>
			<point x="459.9" y="493"/>
			<point x="471" y="665.4" type="curve" smooth="yes"/>
			<point x="473" y="698.4"/>
			<point x="467" y="710"/>
		</contour>
	</outline>
	<guideline x="0" y="0" angle="0" identifier="mOyMquQx0C"/>
	<guideline x="0" y="0" angle="90" identifier="f8eG8dNyzI"/>
	<guideline x="50" y="0" angle="90" identifier="hDS0oODm5f"/>
	<guideline x="100" y="0" angle="90" identifier="2uH6X5gQzu"/>
	<guideline x="150" y="0" angle="90" identifier="doLYu0ykga"/>
	<guideline x="200" y="0" angle="90" identifier="P55HBGYUuG"/>
	<guideline x="250" y="0" angle="90" identifier="GR5kllhmE5"/>
	<guideline x="300" y="0" angle="90" identifier="7oG1eFwmB0"/>
	<guideline x="350" y="0" angle="90" identifier="dBGfPTEpX5"/>
	<guideline x="400" y="0" angle="90" identifier="keBKo9BelH"/>
	<guideline x="450" y="0" angle="90" identifier="7jiK9GC89s"/>
	<guideline x="500" y="0" angle="90" identifier="7u0FRSyqD0"/>
	<guideline x="550" y="0" angle="90" identifier="JRPgEJtAGL"/>
	<guideline x="600" y="0" angle="90" identifier="sRuNRpxcNf"/>
	<guideline x="0" y="-250" angle="0" identifier="UyPjXgPZfY"/>
	<guideline x="0" y="-200" angle="0" identifier="z5DZDoT7Kl"/>
	<guideline x="0" y="-150" angle="0" identifier="7TEnp8TmJc"/>
	<guideline x="0" y="-100" angle="0" identifier="uc1mT3Odqi"/>
	<guideline x="0" y="-50" angle="0" identifier="Ycbxr6oVbF"/>
	<guideline x="0" y="50" angle="0" identifier="ANdzpIcQET"/>
	<guideline x="0" y="100" angle="0" identifier="GL389i6fz1"/>
	<guideline x="0" y="150" angle="0" identifier="oF6lsr5573"/>
	<guideline x="0" y="200" angle="0" identifier="DAIkBZV88q"/>
	<guideline x="0" y="250" angle="0" identifier="74vHtRqn84"/>
	<guideline x="0" y="300" angle="0" identifier="htIGMWvkM6"/>
	<guideline x="0" y="350" angle="0" identifier="tWMR2o3lu0"/>
	<guideline x="0" y="400" angle="0" identifier="1iyFRVYz3X"/>
	<guideline x="0" y="450" angle="0" identifier="hBDkgkNJTK"/>
	<guideline x="0" y="500" angle="0" identifier="PefL58Jdd1"/>
	<guideline x="0" y="550" angle="0" identifier="vDMmhCtMGL"/>
	<guideline x="0" y="600" angle="0" identifier="SXUgezWJu2"/>
	<guideline x="0" y="650" angle="0" identifier="EMSMCeFcci"/>
	<guideline x="196.5" y="699.7" angle="0" identifier="7JDcvaKTH0"/>
</glyph>
<glyph name="N" format="2">
	<unicode hex="004E"/>
	<advance width="600"/>
	<outline>
		<contour>
			<point x="155.5" y="-6.8" type="curve"/>
			<point x="155.5" y="364.9" type="line" smooth="yes"/>
			<point x="155.5" y="533.3"/>
			<point x="141.7" y="691.1816425121"/>
			<point x="130.2" y="702.8" type="curve" smooth="yes"/>
			<point x="126.4" y="706.6"/>
			<point x="121.8042128603" y="710"/>
			<point x="117.4" y="710" type="curve" smooth="yes"/>
			<point x="102.6894028596" y="710"/>
			<point x="89.5023914366" y="709.3003985728"/>
			<point x="69.7" y="705.2" type="curve"/>
			<point x="76.6" y="669.9"/>
			<point x="78.5" y="624.5452830189"/>
			<point x="78.5" y="597" type="curve" smooth="yes"/>
			<point x="78.5" y="26.2" type="line"/>
			<point x="78.5" y="-1.3333333333"/>
			<point x="109.1" y="-9.7"/>
			<point x="133.2" y="-9.7" type="curve" smooth="yes"/>
			<point x="142.2" y="-9.7"/>
			<point x="149.1" y="-8.7"/>
		</contour>
		<contour>
			<point x="524.5" y="-10" type="line"/>
			<point x="524.5" y="676.2" type="line" smooth="yes"/>
			<point x="524.5" y="701.023655914"/>
			<point x="496.6" y="710"/>
			<point x="462" y="710" type="curve"/>
			<point x="447.5" y="710" type="line"/>
			<point x="447.5" y="185.1" type="line"/>
			<point x="447.5" y="100.6578947368"/>
			<point x="460.050949276" y="16.949050724"/>
			<point x="473.1" y="3.9" type="curve" smooth="yes"/>
			<point x="482.8827793594" y="-5.8827793594"/>
			<point x="492.9" y="-10"/>
			<point x="505.1" y="-10" type="curve"/>
		</contour>
		<contour>
			<point x="117.4" y="710" type="line"/>
			<point x="126.9" y="689.3"/>
			<point x="132.7" y="659.9"/>
			<point x="138.2" y="632.9" type="curve" smooth="yes"/>
			<point x="193.7094097116" y="349.3534219276"/>
			<point x="350.3803151716" y="106.3196848284"/>
			<point x="448.3" y="8.4" type="curve" smooth="yes"/>
			<point x="460.5" y="-3.8"/>
			<point x="479.2" y="-10"/>
			<point x="505.1" y="-10" type="curve"/>
			<point x="509.1" y="-10"/>
			<point x="508" y="-10"/>
			<point x="512" y="-10" type="curve" smooth="yes"/>
			<point x="514.9" y="-10"/>
			<point x="517.4414702971" y="12.7535346521"/>
			<point x="516.9" y="38.1" type="curve"/>
			<point x="339.2" y="232.4"/>
			<point x="251.8" y="426.9"/>
			<point x="193.3" y="679.6" type="curve" smooth="yes"/>
			<point x="189.1" y="697.1"/>
			<point x="155.1" y="710"/>
			<point x="120.1" y="710" type="curve"/>
		</contour>
	</outline>
	<anchor name="top" x="300" y="711.3"/>
	<anchor name="bottom" x="296.6" y="-1"/>
</glyph>
<glyph name="O" format="2">
	<unicode hex="004F"/>
	<advance width="600"/>
	<outline>
		<contour>
			<point x="298.8" y="720" type="curve" smooth="yes"/>
			<point x="146.6104" y="720"/>
			<point x="60.5" y="573.3"/>
			<point x="60.5" y="337.1" type="curve" smooth="yes"/>
			<point x="60.5" y="311.3" type="line" smooth="yes"/>
			<point x="60.5" y="102.1"/>
			<point x="138.3" y="-20"/>
			<point x="301.2" y="-20" type="curve" smooth="yes"/>
			<point x="321.68" y="-20"/>
			<point x="335.1" y="2.8"/>
			<point x="335.1" y="36.4" type="curve"/>
			<point x="195.5" y="41.3"/>
			<point x="140.5" y="140.5"/>
			<point x="140.5" y="308.1" type="curve" smooth="yes"/>
			<point x="140.5" y="328.1" type="line" smooth="yes"/>
			<point x="140.5" y="521.3"/>
			<point x="195.4" y="640.3"/>
			<point x="308.7" y="640.3" type="curve" smooth="yes"/>
			<point x="346.9" y="640.3"/>
			<point x="382.2" y="629.5"/>
			<point x="424" y="605.4" type="curve"/>
			<point x="461.6240589544" y="641.637592881"/>
			<point x="383.5790509259" y="720"/>
		</contour>
		<contour>
			<point x="301.2" y="-20" type="curve" smooth="yes"/>
			<point x="453.5" y="-20"/>
			<point x="539.5" y="115.5197183099"/>
			<point x="539.5" y="334.9" type="curve" smooth="yes"/>
			<point x="539.5" y="360.7" type="line" smooth="yes"/>
			<point x="539.5" y="586.7788732394"/>
			<point x="461.7" y="720"/>
			<point x="298.8" y="720" type="curve" smooth="yes"/>
			<point x="278.32" y="720"/>
			<point x="264.9" y="697.2"/>
			<point x="264.9" y="663.6" type="curve"/>
			<point x="404.5156110731" y="658.699246362"/>
			<point x="459.5" y="548.2536144579"/>
			<point x="459.5" y="363.9" type="curve" smooth="yes"/>
			<point x="459.5" y="343.9" type="line" smooth="yes"/>
			<point x="459.5" y="167.568852459"/>
			<point x="404.6" y="59.7"/>
			<point x="291.3" y="59.7" type="curve" smooth="yes"/>
			<point x="253.1" y="59.7"/>
			<point x="216.6" y="69.6"/>
			<point x="176" y="94.6" type="curve"/>
			<point x="138.3320230728" y="58.4295597595"/>
			<point x="216.346875" y="-20"/>
		</contour>
	</outline>
	<anchor name="top" x="300" y="711.3"/>
	<anchor name="ogonek" x="399.1" y="12"/>
	<anchor name="bottom" x="300" y="-1"/>
</glyph>
<glyph name="P" format="2">
	<unicode hex="0050"/>
	<advance width="600"/>
	<outline>
		<contour>
			<point x="184.3" y="-5.8" type="curve"/>
			<point x="177.4" y="29.5"/>
			<point x="175.5" y="65.1"/>
			<point x="175.5" y="103" type="curve" smooth="yes"/>
			<point x="175.5" y="576.2" type="line" smooth="yes"/>
			<point x="175.5" y="636.9"/>
			<point x="149.4" y="661.5"/>
			<point x="92.5" y="661.5" type="curve"/>
			<point x="92.5" y="53" type="line" smooth="yes"/>
			<point x="92.5" y="30.1"/>
			<point x="95.1" y="13.9"/>
			<point x="106.8" y="2.2" type="curve" smooth="yes"/>
			<point x="115.1" y="-6.1"/>
			<point x="127.5" y="-10"/>
			<point x="152.3" y="-10" type="curve" smooth="yes"/>
			<point x="164" y="-10"/>
			<point x="173.2" y="-8.7"/>
		</contour>
		<contour>
			<point x="42.8" y="700" type="curve"/>
			<point x="41.6" y="692.8"/>
			<point x="41" y="684.9"/>
			<point x="41" y="675.9" type="curve" smooth="yes"/>
			<point x="41" y="651.1"/>
			<point x="45.2" y="636.3"/>
			<point x="55" y="626.2" type="curve" smooth="yes"/>
			<point x="59.9" y="621.3"/>
			<point x="65.9" y="620"/>
			<point x="71.7" y="620" type="curve" smooth="yes"/>
			<point x="79.6" y="620"/>
			<point x="91" y="621.9"/>
			<point x="110.1" y="624.8" type="curve" smooth="yes"/>
			<point x="157.7" y="632.9"/>
			<point x="223.7" y="640"/>
			<point x="279.2" y="640" type="curve" smooth="yes"/>
			<point x="369.1" y="640"/>
			<point x="409.6" y="621.5"/>
			<point x="462.9" y="567.6" type="curve"/>
			<point x="525.5" y="630.2"/>
			<point x="409.4" y="720"/>
			<point x="291.5" y="720" type="curve" smooth="yes"/>
			<point x="212.7" y="720"/>
			<point x="136.2" y="715.4"/>
		</contour>
		<contour>
			<point x="532.5" y="472.6" type="curve" smooth="yes"/>
			<point x="532.5" y="522.3" type="line" smooth="yes"/>
			<point x="532.5" y="636.7"/>
			<point x="432.1" y="720"/>
			<point x="291.5" y="720" type="curve" smooth="yes"/>
			<point x="265.1" y="720"/>
			<point x="256.3" y="705.1"/>
			<point x="256.3" y="682.7" type="curve"/>
			<point x="380" y="677.3"/>
			<point x="450.1" y="629.3"/>
			<point x="450.1" y="513.5" type="curve" smooth="yes"/>
			<point x="450.1" y="475.4" type="line" smooth="yes"/>
			<point x="450.1" y="343.9"/>
			<point x="343.3" y="254.5"/>
			<point x="218.7" y="254.5" type="curve" smooth="yes"/>
			<point x="183.9" y="254.5"/>
			<point x="174.4" y="255.4"/>
			<point x="161.7" y="257.5" type="curve"/>
			<point x="157.1" y="252.7"/>
			<point x="154.8" y="248.2"/>
			<point x="154.8" y="240.2" type="curve" smooth="yes"/>
			<point x="154.8" y="212.4"/>
			<point x="196.1" y="176.9"/>
			<point x="231.5" y="176.9" type="curve" smooth="yes"/>
			<point x="235.2" y="176.9" type="line" smooth="yes"/>
			<point x="391.8" y="176.9"/>
			<point x="532.5" y="299.2"/>
		</contour>
	</outline>
</glyph>
<glyph name="Q" format="2">
	<unicode hex="0051"/>
	<advance width="600"/>
	<outline>
		<contour>
			<point x="298.8" y="720" type="curve" smooth="yes"/>
			<point x="146.5" y="720"/>
			<point x="60.5" y="573.3"/>
			<point x="60.5" y="337.1" type="curve" smooth="yes"/>
			<point x="60.5" y="311.3" type="line" smooth="yes"/>
			<point x="60.5" y="102.1"/>
			<point x="138.3" y="-20"/>
			<point x="301.2" y="-20" type="curve" smooth="yes"/>
			<point x="321.8" y="-20"/>
			<point x="335.1" y="2.8"/>
			<point x="335.1" y="36.4" type="curve"/>
			<point x="195.5" y="41.3"/>
			<point x="140.5" y="140.5"/>
			<point x="140.5" y="308.1" type="curve" smooth="yes"/>
			<point x="140.5" y="328.1" type="line" smooth="yes"/>
			<point x="140.5" y="521.3"/>
			<point x="195.4" y="640.3"/>
			<point x="308.7" y="640.3" type="curve" smooth="yes"/>
			<point x="346.9" y="640.3"/>
			<point x="382.2" y="629.5"/>
			<point x="424" y="605.4" type="curve"/>
			<point x="461.6" y="641.5"/>
			<point x="383.5" y="720"/>
		</contour>
		<contour>
			<point x="301.2" y="-20" type="curve" smooth="yes"/>
			<point x="453.5" y="-20"/>
			<point x="539.5" y="115.5"/>
			<point x="539.5" y="334.9" type="curve" smooth="yes"/>
			<point x="539.5" y="360.7" type="line" smooth="yes"/>
			<point x="539.5" y="586.7"/>
			<point x="461.7" y="720"/>
			<point x="298.8" y="720" type="curve" smooth="yes"/>
			<point x="278.2" y="720"/>
			<point x="264.9" y="697.2"/>
			<point x="264.9" y="663.6" type="curve"/>
			<point x="404.5" y="658.7"/>
			<point x="459.5" y="548.3"/>
			<point x="459.5" y="363.9" type="curve" smooth="yes"/>
			<point x="459.5" y="343.9" type="line" smooth="yes"/>
			<point x="459.5" y="167.5"/>
			<point x="404.6" y="59.7"/>
			<point x="291.3" y="59.7" type="curve" smooth="yes"/>
			<point x="253.1" y="59.7"/>
			<point x="216.6" y="69.6"/>
			<point x="176" y="94.6" type="curve"/>
			<point x="138.3" y="58.4"/>
			<point x="216.5" y="-20"/>
		</contour>
		<contour>
			<point x="396" y="68.6" type="line"/>
			<point x="352.4" y="42.4"/>
			<point x="338.5" y="19.8"/>
			<point x="346.8" y="5.6" type="curve" smooth="yes"/>
			<point x="400.9" y="-77.7" type="line" smooth="yes"/>
			<point x="440" y="-137.2"/>
			<point x="473.7" y="-163.6"/>
			<point x="516.2" y="-163.6" type="curve" smooth="yes"/>
			<point x="519.8" y="-163.6" type="line" smooth="yes"/>
			<point x="561.6" y="-163.6"/>
			<point x="580.9" y="-141"/>
			<point x="580.9" y="-94" type="curve" smooth="yes"/>
			<point x="580.9" y="-78.5"/>
			<point x="579.3" y="-65.5"/>
			<point x="576.4" y="-52.9" type="curve"/>
			<point x="572.4" y="-52.9" type="line"/>
			<point x="561.8" y="-62.7"/>
			<point x="548.2" y="-68.2"/>
			<point x="531.9" y="-68.2" type="curve" smooth="yes"/>
			<point x="505.3" y="-68.2"/>
			<point x="484.3" y="-57.9"/>
			<point x="462.7" y="-27.1" type="curve" smooth="yes"/>
		</contour>
	</outline>
</glyph>
<glyph name="R" format="2">
	<unicode hex="0052"/>
	<advance width="600"/>
	<outline>
		<contour>
			<point x="184.3" y="-5.8" type="curve"/>
			<point x="177.4" y="29.5"/>
			<point x="175.5" y="65.1"/>
			<point x="175.5" y="103" type="curve" smooth="yes"/>
			<point x="175.5" y="576.2" type="line" smooth="yes"/>
			<point x="175.5" y="636.9"/>
			<point x="149.4" y="661.5"/>
			<point x="92.5" y="661.5" type="curve"/>
			<point x="92.5" y="53" type="line" smooth="yes"/>
			<point x="92.5" y="30.1"/>
			<point x="95.1" y="13.9"/>
			<point x="106.8" y="2.2" type="curve" smooth="yes"/>
			<point x="115.1" y="-6.1"/>
			<point x="127.5" y="-10"/>
			<point x="152.3" y="-10" type="curve" smooth="yes"/>
			<point x="164" y="-10"/>
			<point x="173.2" y="-8.7"/>
		</contour>
		<contour>
			<point x="42.8" y="700" type="curve"/>
			<point x="41.6" y="692.5"/>
			<point x="41" y="684.6"/>
			<point x="41" y="675.9" type="curve" smooth="yes"/>
			<point x="41" y="651.4"/>
			<point x="45.2" y="636.3"/>
			<point x="55" y="626.2" type="curve" smooth="yes"/>
			<point x="59.9" y="621.3"/>
			<point x="65.9" y="620"/>
			<point x="71.7" y="620" type="curve" smooth="yes"/>
			<point x="79.6" y="620"/>
			<point x="91" y="621.9"/>
			<point x="110.1" y="624.8" type="curve" smooth="yes"/>
			<point x="161.3" y="633.2"/>
			<point x="227.3" y="640"/>
			<point x="279.2" y="640" type="curve" smooth="yes"/>
			<point x="364.3" y="640"/>
			<point x="406.3" y="626"/>
			<point x="468" y="571.2" type="curve"/>
			<point x="516.8" y="620"/>
			<point x="408.2" y="720"/>
			<point x="286.4" y="720" type="curve" smooth="yes"/>
			<point x="209.4" y="720"/>
			<point x="134.7" y="715.1"/>
		</contour>
		<contour>
			<point x="529.5" y="481.2" type="curve" smooth="yes"/>
			<point x="529.5" y="522.3" type="line" smooth="yes"/>
			<point x="529.5" y="632.9875"/>
			<point x="447.176" y="720"/>
			<point x="286.4" y="720" type="curve" smooth="yes"/>
			<point x="263.6" y="720"/>
			<point x="253.9" y="703.9"/>
			<point x="253.9" y="683" type="curve"/>
			<point x="380.6" y="673.1"/>
			<point x="447.1" y="629"/>
			<point x="447.1" y="513.5" type="curve" smooth="yes"/>
			<point x="447.1" y="485.2" type="line" smooth="yes"/>
			<point x="447.1" y="354.9"/>
			<point x="350" y="269.8"/>
			<point x="212.1" y="269.8" type="curve" smooth="yes"/>
			<point x="175.2" y="269.8"/>
			<point x="166.6" y="271"/>
			<point x="154.5" y="275.2" type="curve"/>
			<point x="148.1" y="269.5"/>
			<point x="145.2" y="262"/>
			<point x="145.2" y="253.1" type="curve" smooth="yes"/>
			<point x="145.2" y="222.6"/>
			<point x="181.7" y="194"/>
			<point x="214.7" y="194" type="curve" smooth="yes"/>
			<point x="219.3" y="194" type="line" smooth="yes"/>
			<point x="386.7" y="194"/>
			<point x="529.5" y="315.4"/>
		</contour>
		<contour>
			<point x="321.5" y="271" type="line"/>
			<point x="279.4" y="245.7"/>
			<point x="260.6" y="221.3"/>
			<point x="269.6" y="208" type="curve" smooth="yes"/>
			<point x="381.8" y="57.5" type="line" smooth="yes"/>
			<point x="422.1" y="1.5"/>
			<point x="455.9" y="-20"/>
			<point x="499.1" y="-20" type="curve" smooth="yes"/>
			<point x="502.7" y="-20" type="line" smooth="yes"/>
			<point x="543.4" y="-20"/>
			<point x="559.3" y="0.2"/>
			<point x="559.3" y="43.1" type="curve" smooth="yes"/>
			<point x="559.3" y="57.4"/>
			<point x="558" y="70.1"/>
			<point x="555.1" y="82.7" type="curve"/>
			<point x="551.1" y="82.7" type="line"/>
			<point x="539.8" y="72.2"/>
			<point x="526.9" y="66"/>
			<point x="510.6" y="66" type="curve" smooth="yes"/>
			<point x="485.8" y="66"/>
			<point x="463.1" y="79.3"/>
			<point x="439.6" y="112.4" type="curve" smooth="yes"/>
		</contour>
	</outline>
	<anchor name="top" x="299.8" y="711"/>
	<anchor name="bottom" x="299.8" y="-1"/>
</glyph>
<glyph name="S" format="2">
	<unicode hex="0053"/>
	<advance width="600"/>
	<outline>
		<contour>
			<point x="377.1" y="720" type="curve" smooth="yes"/>
			<point x="228.6" y="720"/>
			<point x="84" y="568.4"/>
			<point x="84" y="440.7" type="curve" smooth="yes"/>
			<point x="84" y="429.8" type="line" smooth="yes"/>
			<point x="84" y="401.4"/>
			<point x="130.4" y="378.6"/>
			<point x="168.8" y="374.4" type="curve"/>
			<point x="164.3" y="396.7"/>
			<point x="164" y="417.4"/>
			<point x="164" y="439.4" type="curve" smooth="yes"/>
			<point x="164" y="530.5"/>
			<point x="279.7" y="640"/>
			<point x="377.7" y="640" type="curve" smooth="yes"/>
			<point x="441.4649484536" y="640"/>
			<point x="468.7" y="610.7647058824"/>
			<point x="468.7" y="548.7" type="curve"/>
			<point x="494.1" y="548.7"/>
			<point x="507.5" y="569.4076923077"/>
			<point x="507.5" y="581.6" type="curve" smooth="yes"/>
			<point x="507.5" y="623.1461538461"/>
			<point x="499.9642289406" y="657.1357710594"/>
			<point x="473.9" y="683.2" type="curve"/>
			<point x="451.9" y="705.2"/>
			<point x="422.6" y="720"/>
		</contour>
		<contour>
			<point x="375.5" y="305.9" type="curve" smooth="yes"/>
			<point x="287.8" y="337.8" type="line" smooth="yes"/>
			<point x="176.7" y="378"/>
			<point x="164" y="402.7"/>
			<point x="164" y="439.4" type="curve" smooth="yes"/>
			<point x="164" y="461.3"/>
			<point x="164.9" y="477.8"/>
			<point x="169.4" y="502.3" type="curve"/>
			<point x="126.5" y="495.7"/>
			<point x="84" y="476.4"/>
			<point x="84" y="429.8" type="curve" smooth="yes"/>
			<point x="84" y="364.2"/>
			<point x="125" y="319"/>
			<point x="265.3" y="266.9" type="curve" smooth="yes"/>
			<point x="353.1" y="234.3" type="line" smooth="yes"/>
			<point x="438.6" y="202.5"/>
			<point x="462.8" y="169.8"/>
			<point x="462.8" y="106.7" type="curve" smooth="yes"/>
			<point x="462.8" y="102.3"/>
			<point x="462.8" y="95.8"/>
			<point x="462.8" y="91.1" type="curve"/>
			<point x="491.7" y="94.6"/>
			<point x="531.8" y="130.6"/>
			<point x="531.8" y="154.2" type="curve"/>
			<point x="531.8" y="212.5"/>
			<point x="487.9" y="264.9"/>
		</contour>
		<contour>
			<point x="300" y="-14.4" type="curve" smooth="yes"/>
			<point x="445" y="-14.4"/>
			<point x="531.8" y="46.8"/>
			<point x="531.8" y="145.9" type="curve" smooth="yes"/>
			<point x="531.8" y="154.2" type="line" smooth="yes"/>
			<point x="531.8" y="180.1"/>
			<point x="500.1" y="199.2"/>
			<point x="477.1" y="201.2" type="curve"/>
			<point x="477.1" y="197.2"/>
			<point x="477.1" y="192.4"/>
			<point x="477.1" y="182.8" type="curve" smooth="yes"/>
			<point x="477.1" y="108.7"/>
			<point x="409.9" y="65.6"/>
			<point x="300" y="65.6" type="curve" smooth="yes"/>
			<point x="197.1" y="65.6"/>
			<point x="129.1" y="93.1"/>
			<point x="79.2" y="152.9" type="curve"/>
			<point x="75.2" y="152.9" type="line"/>
			<point x="71.2" y="140"/>
			<point x="68.9" y="126.7"/>
			<point x="68.9" y="108.4" type="curve" smooth="yes"/>
			<point x="68.9" y="80.1"/>
			<point x="75.1" y="59.8"/>
			<point x="90.5" y="44.4" type="curve" smooth="yes"/>
			<point x="128.8" y="6.1"/>
			<point x="207.1" y="-14.4"/>
		</contour>
		<contour>
			<point x="507.5" y="447.9" type="curve"/>
			<point x="507.5" y="581.6" type="line" smooth="yes"/>
			<point x="507.5" y="663.9"/>
			<point x="455.2" y="677.2"/>
			<point x="419.7" y="663.9" type="curve"/>
			<point x="427.3" y="633.6"/>
			<point x="427.5" y="602.9"/>
			<point x="427.5" y="564.9" type="curve" smooth="yes"/>
			<point x="427.5" y="493.4" type="line" smooth="yes"/>
			<point x="427.5" y="476.8"/>
			<point x="431.1" y="464.9"/>
			<point x="439.4" y="456.6" type="curve" smooth="yes"/>
			<point x="447.8" y="448.2"/>
			<point x="460.4" y="444"/>
			<point x="480.3" y="444" type="curve" smooth="yes"/>
			<point x="491.4" y="444"/>
			<point x="500.2" y="445.3"/>
		</contour>
	</outline>
	<anchor name="top" x="338" y="711"/>
	<anchor name="bottom" x="300" y="-1"/>
</glyph>
<glyph name="T" format="2">
	<unicode hex="0054"/>
	<advance width="600"/>
	<outline>
		<contour>
			<point x="46.7" y="700" type="line"/>
			<point x="44.4" y="694.5"/>
			<point x="43.4" y="686.7"/>
			<point x="43.4" y="679.2" type="curve" smooth="yes"/>
			<point x="43.4" y="662.1"/>
			<point x="47.9" y="643.5"/>
			<point x="59.1" y="632.3" type="curve" smooth="yes"/>
			<point x="68.5" y="622.9"/>
			<point x="82.2" y="620"/>
			<point x="111" y="620" type="curve" smooth="yes"/>
			<point x="551" y="620" type="line"/>
			<point x="552.9" y="627.3"/>
			<point x="554.2" y="636.8"/>
			<point x="554.2" y="647.2" type="curve" smooth="yes"/>
			<point x="554.2" y="679.3"/>
			<point x="546.2" y="700"/>
			<point x="519.5" y="700" type="curve" smooth="yes"/>
		</contour>
		<contour>
			<point x="350.3" y="-5.8" type="curve"/>
			<point x="343.4" y="29.5"/>
			<point x="341.5" y="65.1"/>
			<point x="341.5" y="103" type="curve" smooth="yes"/>
			<point x="341.5" y="568" type="line" smooth="yes"/>
			<point x="341.5" y="628.7"/>
			<point x="320" y="651.2"/>
			<point x="258.5" y="651.2" type="curve"/>
			<point x="258.5" y="53" type="line" smooth="yes"/>
			<point x="258.5" y="30.1"/>
			<point x="261.1" y="13.9"/>
			<point x="272.8" y="2.2" type="curve" smooth="yes"/>
			<point x="281.1" y="-6.1"/>
			<point x="293.5" y="-10"/>
			<point x="318.3" y="-10" type="curve" smooth="yes"/>
			<point x="330" y="-10"/>
			<point x="339.2" y="-8.7"/>
		</contour>
	</outline>
	<anchor name="top" x="298.8" y="711"/>
	<anchor name="bottom" x="300" y="-1"/>
</glyph>
<glyph name="U" format="2">
	<unicode hex="0055"/>
	<advance width="600"/>
	<outline>
		<contour>
			<point x="56.8" y="705.1" type="curve"/>
			<point x="66.5" y="670.1"/>
			<point x="70.5" y="628.9"/>
			<point x="70.5" y="576" type="curve" smooth="yes"/>
			<point x="70.5" y="153.4" type="line"/>
			<point x="70.5" y="113.5"/>
			<point x="95" y="94.9"/>
			<point x="136.3" y="108.9" type="curve"/>
			<point x="152.2" y="285.2"/>
			<point x="159.7" y="394.8"/>
			<point x="159.7" y="545.1" type="curve" smooth="yes"/>
			<point x="159.7" y="550.2" type="line" smooth="yes"/>
			<point x="159.7" y="673.2"/>
			<point x="133.5" y="710"/>
			<point x="90" y="710" type="curve" smooth="yes"/>
			<point x="77.2" y="710"/>
			<point x="68.3" y="708.7"/>
		</contour>
		<contour>
			<point x="224.8" y="-17" type="curve" smooth="yes"/>
			<point x="312.9" y="-17"/>
			<point x="382.2" y="25"/>
			<point x="447.5" y="117.7" type="curve" smooth="yes"/>
			<point x="470.2" y="153.2"/>
			<point x="471.7" y="183.4"/>
			<point x="461.9" y="219.2" type="curve"/>
			<point x="371.1" y="97.2"/>
			<point x="318" y="69"/>
			<point x="237.9" y="69" type="curve" smooth="yes"/>
			<point x="172.6" y="69"/>
			<point x="138.9" y="106.2"/>
			<point x="129.6" y="197.1" type="curve"/>
			<point x="96.1" y="190.1"/>
			<point x="70.5" y="172.3"/>
			<point x="70.5" y="153.4" type="curve" smooth="yes"/>
			<point x="70.5" y="65.7"/>
			<point x="132.1" y="-17"/>
		</contour>
		<contour>
			<point x="534.2" y="-5.8" type="curve"/>
			<point x="527.6" y="28.3"/>
			<point x="526" y="63.3"/>
			<point x="526" y="100.3" type="curve" smooth="yes"/>
			<point x="526" y="676.2" type="line" smooth="yes"/>
			<point x="526" y="701.1"/>
			<point x="502" y="710"/>
			<point x="462.9" y="710" type="curve" smooth="yes"/>
			<point x="455.4" y="710"/>
			<point x="449.3" y="709.7"/>
			<point x="443" y="708.8" type="curve"/>
			<point x="443" y="163.1" type="line" smooth="yes"/>
			<point x="443" y="64.3"/>
			<point x="450.4" y="23.2"/>
			<point x="470.2" y="3.4" type="curve" smooth="yes"/>
			<point x="479.7" y="-6.1"/>
			<point x="490.9" y="-10"/>
			<point x="508.2" y="-10" type="curve" smooth="yes"/>
			<point x="517.8" y="-10"/>
			<point x="525.5" y="-8.7"/>
		</contour>
	</outline>
	<anchor name="top" x="300" y="711.3"/>
	<anchor name="ogonek" x="535.2" y="-5.8"/>
	<anchor name="bottom" x="295.5" y="-1"/>
	<anchor name="ring" x="299.7" y="694.2"/>
</glyph>
<glyph name="V" format="2">
	<unicode hex="0056"/>
	<advance width="600"/>
	<outline>
		<contour>
			<point x="73" y="710" type="curve" smooth="yes"/>
			<point x="58.8" y="710" type="line"/>
			<point x="75.4" y="331"/>
			<point x="116.8" y="142.6"/>
			<point x="238.5" y="20.9" type="curve" smooth="yes"/>
			<point x="262.3" y="-2.9"/>
			<point x="281.6" y="-10"/>
			<point x="302.9" y="-10" type="curve" smooth="yes"/>
			<point x="313.9" y="-10" type="line" smooth="yes"/>
			<point x="332.4" y="-10"/>
			<point x="349.4" y="9.6"/>
			<point x="358.8" y="35" type="curve"/>
			<point x="353" y="35"/>
			<point x="349.6" y="35"/>
			<point x="345.5" y="35" type="curve" smooth="yes"/>
			<point x="339.6" y="35"/>
			<point x="334.3" y="36.3"/>
			<point x="328.3" y="41.1" type="curve" smooth="yes"/>
			<point x="199.5" y="160.6"/>
			<point x="160.5" y="289.5"/>
			<point x="143.2" y="681.7" type="curve" smooth="yes"/>
			<point x="142.2" y="699.2"/>
			<point x="110.7" y="710"/>
		</contour>
		<contour>
			<point x="472.6" y="710" type="curve" smooth="yes"/>
			<point x="458.4" y="710" type="line"/>
			<point x="434.7" y="304.3"/>
			<point x="411.7" y="167.3"/>
			<point x="279.1" y="49.6" type="curve" smooth="yes"/>
			<point x="263.3" y="36"/>
			<point x="270.2" y="-10"/>
			<point x="309" y="-10" type="curve"/>
			<point x="335.9" y="-10" type="line"/>
			<point x="475" y="110.4"/>
			<point x="519.4006185035" y="306.11133923"/>
			<point x="538.9" y="668.9" type="curve" smooth="yes"/>
			<point x="540.2" y="690.9"/>
			<point x="510.3" y="710"/>
		</contour>
	</outline>
	<guideline x="0" y="0" angle="0" identifier="NJakgUwkVG"/>
	<guideline x="0" y="0" angle="90" identifier="MIQeZWJEc8"/>
	<guideline x="50" y="0" angle="90" identifier="QXUsFeP2UE"/>
	<guideline x="100" y="0" angle="90" identifier="85tdgDbp9R"/>
	<guideline x="150" y="0" angle="90" identifier="nFVchs14Es"/>
	<guideline x="200" y="0" angle="90" identifier="C9oil3MzWV"/>
	<guideline x="250" y="0" angle="90" identifier="sEMdL2HR3v"/>
	<guideline x="300" y="0" angle="90" identifier="jz8SAWfSSC"/>
	<guideline x="350" y="0" angle="90" identifier="YNMVYz5yTY"/>
	<guideline x="400" y="0" angle="90" identifier="Zo0pAGYFug"/>
	<guideline x="450" y="0" angle="90" identifier="wxTUSCP6px"/>
	<guideline x="500" y="0" angle="90" identifier="sCMkVdmX3v"/>
	<guideline x="550" y="0" angle="90" identifier="L2JvsmtQPj"/>
	<guideline x="600" y="0" angle="90" identifier="tyLuMq5ohp"/>
	<guideline x="0" y="-250" angle="0" identifier="QE2C3uTlnf"/>
	<guideline x="0" y="-200" angle="0" identifier="mcUkefuOuB"/>
	<guideline x="0" y="-150" angle="0" identifier="VhNJkHrcFX"/>
	<guideline x="0" y="-100" angle="0" identifier="EZVOnq8iVR"/>
	<guideline x="0" y="-50" angle="0" identifier="Mkd3qSX6un"/>
	<guideline x="0" y="50" angle="0" identifier="z1KwBrahCQ"/>
	<guideline x="0" y="100" angle="0" identifier="SDXdCIl6ls"/>
	<guideline x="0" y="150" angle="0" identifier="H6rZDhSUbI"/>
	<guideline x="0" y="200" angle="0" identifier="g4f6vfcin0"/>
	<guideline x="0" y="250" angle="0" identifier="NtSzRq9vmC"/>
	<guideline x="0" y="300" angle="0" identifier="pMedCiNlji"/>
	<guideline x="0" y="350" angle="0" identifier="f173jbowJQ"/>
	<guideline x="0" y="400" angle="0" identifier="cbr0wFgfNz"/>
	<guideline x="0" y="450" angle="0" identifier="6CNKKSabNl"/>
	<guideline x="0" y="500" angle="0" identifier="yPuCqJ2jet"/>
	<guideline x="0" y="550" angle="0" identifier="41JC3bHijr"/>
	<guideline x="0" y="600" angle="0" identifier="sUECn3rirS"/>
	<guideline x="0" y="650" angle="0" identifier="Ml8sZCn1YL"/>
	<guideline x="0" y="700" angle="0" identifier="6p02QtuVGj"/>
</glyph>
<glyph name="W" format="2">
	<unicode hex="0057"/>
	<advance width="600"/>
	<outline>
		<contour>
			<point x="38.5" y="710" type="curve"/>
			<point x="38.5" y="234.9"/>
			<point x="61.2961473146" y="97.5038526854"/>
			<point x="151.7" y="7.1" type="curve" smooth="yes"/>
			<point x="162.9" y="-4.1"/>
			<point x="175.9" y="-10"/>
			<point x="188.6" y="-10" type="curve"/>
			<point x="195.8" y="-10" type="line" smooth="yes"/>
			<point x="204.9" y="-10"/>
			<point x="211.1" y="34.5"/>
			<point x="211.1" y="49.5" type="curve"/>
			<point x="133.976803706" y="137.8428074607"/>
			<point x="121.1" y="215.7"/>
			<point x="121.1" y="679.4" type="curve" smooth="yes"/>
			<point x="121.1" y="686.4"/>
			<point x="119.9" y="688.1"/>
			<point x="112.7" y="696.7" type="curve" smooth="yes"/>
			<point x="106.4" y="703"/>
			<point x="81.4" y="710"/>
			<point x="52.7" y="710" type="curve" smooth="yes"/>
			<point x="48.2" y="710"/>
			<point x="43" y="710"/>
		</contour>
		<contour>
			<point x="480.3" y="710" type="curve"/>
			<point x="480.3" y="203.2"/>
			<point x="459.3239855387" y="155.1001258408"/>
			<point x="397" y="53.9" type="curve"/>
			<point x="399" y="11.7"/>
			<point x="406.8" y="-10"/>
			<point x="419.3" y="-10" type="curve" smooth="yes"/>
			<point x="445.7" y="-10" type="line"/>
			<point x="530.5528612711" y="146.9855920466"/>
			<point x="560.1" y="268.2"/>
			<point x="560.1" y="675.2" type="curve" smooth="yes"/>
			<point x="560.1" y="685.1"/>
			<point x="558.8" y="690.6"/>
			<point x="553.1" y="696.3" type="curve" smooth="yes"/>
			<point x="545.5" y="703.9"/>
			<point x="522.8" y="710"/>
			<point x="494.5" y="710" type="curve" smooth="yes"/>
			<point x="490" y="710"/>
			<point x="484.8" y="710"/>
		</contour>
		<contour>
			<point x="283.3" y="577.5" type="curve" smooth="yes"/>
			<point x="269.6" y="577.5" type="line"/>
			<point x="269.6" y="300.2"/>
			<point x="254.8" y="171.6"/>
			<point x="170.8" y="27" type="curve"/>
			<point x="171.1" y="10.3"/>
			<point x="175" y="-10"/>
			<point x="188.6" y="-10" type="curve" smooth="yes"/>
			<point x="209.6" y="-10" type="line"/>
			<point x="305.2" y="132.9"/>
			<point x="321" y="328.8"/>
			<point x="321" y="540.1" type="curve" smooth="yes"/>
			<point x="321" y="566.1"/>
			<point x="306" y="577.5"/>
		</contour>
		<contour>
			<point x="283.3" y="577.5" type="curve" smooth="yes"/>
			<point x="278.3" y="577.5" type="line"/>
			<point x="281" y="276.7"/>
			<point x="309.6" y="92.4"/>
			<point x="382.2" y="1.7" type="curve" smooth="yes"/>
			<point x="388.7" y="-6.1"/>
			<point x="397.5" y="-10"/>
			<point x="406.3" y="-10" type="curve" smooth="yes"/>
			<point x="426.7" y="-10" type="line" smooth="yes"/>
			<point x="434.6" y="-10"/>
			<point x="442.4" y="11.8"/>
			<point x="442.4" y="30.4" type="curve"/>
			<point x="364.6" y="97.2"/>
			<point x="331" y="289.1"/>
			<point x="331" y="550.1" type="curve" smooth="yes"/>
			<point x="331" y="565.1"/>
			<point x="316.3" y="577.5"/>
		</contour>
	</outline>
	<anchor name="top" x="299.3" y="711"/>
	<guideline x="0" y="0" angle="0" identifier="8UcwaKOf41"/>
	<guideline x="0" y="0" angle="90" identifier="j60lpa45tl"/>
	<guideline x="50" y="0" angle="90" identifier="ApXRI4FiWt"/>
	<guideline x="100" y="0" angle="90" identifier="X3cTnaTqKm"/>
	<guideline x="150" y="0" angle="90" identifier="8qITuOLbo3"/>
	<guideline x="200" y="0" angle="90" identifier="84e4FPo04h"/>
	<guideline x="250" y="0" angle="90" identifier="5Z7L38yIGU"/>
	<guideline x="300" y="0" angle="90" identifier="tcT9m1bn7A"/>
	<guideline x="350" y="0" angle="90" identifier="32zoJVJE50"/>
	<guideline x="400" y="0" angle="90" identifier="4nC7cWNTTV"/>
	<guideline x="450" y="0" angle="90" identifier="Hwr4TTVW6F"/>
	<guideline x="500" y="0" angle="90" identifier="2VErqCGhHr"/>
	<guideline x="550" y="0" angle="90" identifier="qoQel8Gyft"/>
	<guideline x="600" y="0" angle="90" identifier="8sYYBCXRGX"/>
	<guideline x="0" y="-250" angle="0" identifier="XxN8hPOfnt"/>
	<guideline x="0" y="-200" angle="0" identifier="Nj0am9XGhT"/>
	<guideline x="0" y="-150" angle="0" identifier="JMPGVwFkJi"/>
	<guideline x="0" y="-100" angle="0" identifier="Oq0HpWwovA"/>
	<guideline x="0" y="-50" angle="0" identifier="fCdf0V6sFM"/>
	<guideline x="0" y="50" angle="0" identifier="CIVSle646d"/>
	<guideline x="0" y="100" angle="0" identifier="xheMui2cXk"/>
	<guideline x="0" y="150" angle="0" identifier="kV4l2xNzWP"/>
	<guideline x="0" y="200" angle="0" identifier="2dOkogo2XM"/>
	<guideline x="0" y="250" angle="0" identifier="5X2BQbSct6"/>
	<guideline x="0" y="300" angle="0" identifier="zBvkEsdc7D"/>
	<guideline x="0" y="350" angle="0" identifier="9bjUDtrRdO"/>
	<guideline x="0" y="400" angle="0" identifier="aPRdMDyBe8"/>
	<guideline x="0" y="450" angle="0" identifier="GmPeEyCgot"/>
	<guideline x="0" y="500" angle="0" identifier="2hfym0bZ5k"/>
	<guideline x="0" y="550" angle="0" identifier="KZKp50XrpE"/>
	<guideline x="0" y="600" angle="0" identifier="cLNke6cG0E"/>
	<guideline x="0" y="650" angle="0" identifier="A6xhip1Y60"/>
	<guideline x="0" y="700" angle="0" identifier="BMvWHgxa71"/>
</glyph>
<glyph name="Y" format="2">
	<unicode hex="0059"/>
	<advance width="600"/>
	<outline>
		<contour>
			<point x="43.1" y="710" type="line"/>
			<point x="82.5916546409" y="452.6474087421"/>
			<point x="138.1790511017" y="349.3209488983"/>
			<point x="254" y="233.5" type="curve" smooth="yes"/>
			<point x="268.8443707359" y="218.6556292641"/>
			<point x="284.7333333333" y="216.6"/>
			<point x="297.4" y="216.6" type="curve"/>
			<point x="318.6605633803" y="216.6"/>
			<point x="332.5" y="232.0466666667"/>
			<point x="333.2" y="268.4" type="curve"/>
			<point x="217.0608234553" y="371.1088487003"/>
			<point x="165.4092114842" y="447.964793771"/>
			<point x="129.3" y="681.7" type="curve" smooth="yes"/>
			<point x="126.9998530501" y="699.2013715328"/>
			<point x="95.2785714286" y="710"/>
			<point x="57.3" y="710" type="curve" smooth="yes"/>
		</contour>
		<contour>
			<point x="473.7" y="710" type="line"/>
			<point x="445.2005031269" y="480.4052828324"/>
			<point x="395" y="385.1"/>
			<point x="275.7" y="274" type="curve" smooth="yes"/>
			<point x="250.4" y="250.9"/>
			<point x="276.6" y="216.6"/>
			<point x="297.4" y="216.6" type="curve"/>
			<point x="330.4" y="216.6" type="line"/>
			<point x="450.000650391" y="331.700650391"/>
			<point x="525.9246052327" y="456.8079778496"/>
			<point x="552.6" y="668.9" type="curve" smooth="yes"/>
			<point x="555.1997651435" y="690.8974752927"/>
			<point x="525.15" y="710"/>
			<point x="487.9" y="710" type="curve" smooth="yes"/>
		</contour>
		<contour>
			<point x="350.3" y="-5.8" type="curve"/>
			<point x="343.4" y="29.5"/>
			<point x="341.5" y="65.1"/>
			<point x="341.5" y="103" type="curve" smooth="yes"/>
			<point x="341.5" y="245.3" type="line" smooth="yes"/>
			<point x="341.5" y="270.7"/>
			<point x="303.6" y="281.5"/>
			<point x="258.5" y="281.5" type="curve"/>
			<point x="258.5" y="53" type="line" smooth="yes"/>
			<point x="258.5" y="30.1"/>
			<point x="261.1" y="13.9"/>
			<point x="272.8" y="2.2" type="curve" smooth="yes"/>
			<point x="281.1" y="-6.1"/>
			<point x="293.5" y="-10"/>
			<point x="318.3" y="-10" type="curve" smooth="yes"/>
			<point x="330" y="-10"/>
			<point x="339.2" y="-8.7"/>
		</contour>
	</outline>
	<anchor name="top" x="300" y="711.3"/>
	<guideline x="0" y="0" angle="0" identifier="vX0fPGtw9T"/>
	<guideline x="0" y="0" angle="90" identifier="RQrXSEm4on"/>
	<guideline x="50" y="0" angle="90" identifier="I8nZ7kIW01"/>
	<guideline x="100" y="0" angle="90" identifier="IAEXmyArQp"/>
	<guideline x="150" y="0" angle="90" identifier="RV4VR18t24"/>
	<guideline x="200" y="0" angle="90" identifier="LrfqjQTl4n"/>
	<guideline x="250" y="0" angle="90" identifier="6LRxViFaGg"/>
	<guideline x="300" y="0" angle="90" identifier="2BU8pWVvgR"/>
	<guideline x="350" y="0" angle="90" identifier="oohSsxPUcU"/>
	<guideline x="400" y="0" angle="90" identifier="n1kabpyrrP"/>
	<guideline x="450" y="0" angle="90" identifier="0wOw3kkrwT"/>
	<guideline x="500" y="0" angle="90" identifier="BZNoay8kmm"/>
	<guideline x="550" y="0" angle="90" identifier="yLpEKR9xYn"/>
	<guideline x="600" y="0" angle="90" identifier="ThuFs2kKfJ"/>
	<guideline x="0" y="-250" angle="0" identifier="zuwhUF5wWM"/>
	<guideline x="0" y="-200" angle="0" identifier="5GKjs2Rz9l"/>
	<guideline x="0" y="-150" angle="0" identifier="fSjf6jNUSK"/>
	<guideline x="0" y="-100" angle="0" identifier="1NlNcGuwzn"/>
	<guideline x="0" y="-50" angle="0" identifier="ZUV8buqKlq"/>
	<guideline x="0" y="50" angle="0" identifier="dk9zPqGKas"/>
	<guideline x="0" y="100" angle="0" identifier="FIxheyghzj"/>
	<guideline x="0" y="150" angle="0" identifier="YFaWkNSMv7"/>
	<guideline x="0" y="200" angle="0" identifier="YsC9TtPqwL"/>
	<guideline x="0" y="250" angle="0" identifier="YXY6QyUp6o"/>
	<guideline x="0" y="300" angle="0" identifier="G4PDKuarQq"/>
	<guideline x="0" y="350" angle="0" identifier="y2mDEQZ4Kt"/>
	<guideline x="0" y="400" angle="0" identifier="tO2jwCaV8Z"/>
	<guideline x="0" y="450" angle="0" identifier="ddl06KHMHo"/>
	<guideline x="0" y="500" angle="0" identifier="kAZaMbg5X3"/>
	<guideline x="0" y="550" angle="0" identifier="LrCHO3kPZV"/>
	<guideline x="0" y="600" angle="0" identifier="pOAHJDR1pr"/>
	<guideline x="0" y="650" angle="0" identifier="M1Bwkhh8Sm"/>
	<guideline x="0" y="700" angle="0" identifier="bWJwijAq9l"/>
</glyph>
<glyph name="Z" format="2">
	<unicode hex="005A"/>
	<advance width="600"/>
	<outline>
		<contour>
			<point x="109.9" y="700" type="line"/>
			<point x="108.3" y="695.2"/>
			<point x="107" y="687.2"/>
			<point x="107" y="678.8" type="curve" smooth="yes"/>
			<point x="107" y="644.04"/>
			<point x="117.5076923077" y="620"/>
			<point x="144" y="620" type="curve" smooth="yes"/>
			<point x="417.9" y="620" type="line" smooth="yes"/>
			<point x="471" y="620"/>
			<point x="497.9" y="608.4"/>
			<point x="523.6" y="583.1" type="curve"/>
			<point x="536.3" y="596.4"/>
			<point x="543" y="606.2947368421"/>
			<point x="543" y="615.5" type="curve"/>
			<point x="543" y="620.3" type="line" smooth="yes"/>
			<point x="543" y="658.7"/>
			<point x="509.3294117647" y="700"/>
			<point x="463.7" y="700" type="curve" smooth="yes"/>
		</contour>
		<contour>
			<point x="474.8" y="653.8" type="curve"/>
			<point x="413.8" y="432.7"/>
			<point x="265.9" y="248.6"/>
			<point x="57" y="77" type="curve"/>
			<point x="57" y="44.6"/>
			<point x="100.7" y="36.6"/>
			<point x="131.6" y="56.6" type="curve" smooth="yes"/>
			<point x="385.993844986" y="246.7422313616"/>
			<point x="542.7" y="534.9"/>
			<point x="543" y="615.5" type="curve" smooth="yes"/>
			<point x="543" y="640.8"/>
			<point x="518.1" y="651.7"/>
		</contour>
		<contour>
			<point x="542.1" y="0" type="line"/>
			<point x="542.7" y="4.5"/>
			<point x="543" y="10.3"/>
			<point x="543" y="16.3" type="curve" smooth="yes"/>
			<point x="543" y="53.2545"/>
			<point x="534.2904761904" y="80"/>
			<point x="501.4" y="80" type="curve" smooth="yes"/>
			<point x="283.8" y="80" type="line" smooth="yes"/>
			<point x="218.3" y="80"/>
			<point x="123.9" y="78.8"/>
			<point x="57" y="77" type="curve"/>
			<point x="57" y="65.5" type="line" smooth="yes"/>
			<point x="57" y="26"/>
			<point x="66.8" y="0"/>
			<point x="89.6" y="0" type="curve" smooth="yes"/>
		</contour>
		<contour>
			<point x="160.4" y="535" type="curve"/>
			<point x="160.4" y="629.1"/>
			<point x="186.8" y="689.2"/>
			<point x="187.5" y="720.7" type="curve" smooth="yes"/>
			<point x="188.2" y="742"/>
			<point x="157.6" y="753"/>
			<point x="128" y="753" type="curve"/>
			<point x="119.2" y="753" type="line"/>
			<point x="95.1" y="696.6"/>
			<point x="81" y="630.7"/>
			<point x="81" y="567.9" type="curve" smooth="yes"/>
			<point x="81" y="541.5"/>
			<point x="100.5" y="533.2"/>
			<point x="136" y="533.2" type="curve" smooth="yes"/>
			<point x="145" y="533.2"/>
			<point x="153.8" y="533.8"/>
		</contour>
	</outline>
	<anchor name="top" x="300" y="711"/>
	<guideline x="0" y="0" angle="0" identifier="PQdZnbpSt1"/>
	<guideline x="0" y="0" angle="90" identifier="2Ix0ofTgDY"/>
	<guideline x="50" y="0" angle="90" identifier="yJ1CjKMjDH"/>
	<guideline x="100" y="0" angle="90" identifier="ANnG0mhVqB"/>
	<guideline x="150" y="0" angle="90" identifier="ejJIEMvMNZ"/>
	<guideline x="200" y="0" angle="90" identifier="Bko1Sz3Cay"/>
	<guideline x="250" y="0" angle="90" identifier="YqKqzYcTxx"/>
	<guideline x="300" y="0" angle="90" identifier="dzeq1y6XeS"/>
	<guideline x="350" y="0" angle="90" identifier="18gkhYCKph"/>
	<guideline x="400" y="0" angle="90" identifier="5Sohmlf8ek"/>
	<guideline x="450" y="0" angle="90" identifier="tTTBJsIKzg"/>
	<guideline x="500" y="0" angle="90" identifier="i0KTMlhlB9"/>
	<guideline x="550" y="0" angle="90" identifier="WkpGPpAdv7"/>
	<guideline x="600" y="0" angle="90" identifier="NqmP8sbz6z"/>
	<guideline x="0" y="-250" angle="0" identifier="A9fyx7sDx7"/>
	<guideline x="0" y="-200" angle="0" identifier="0D7VArJ5Xo"/>
	<guideline x="0" y="-150" angle="0" identifier="uvDJfwoYMF"/>
	<guideline x="0" y="-100" angle="0" identifier="ccwPcxJ6al"/>
	<guideline x="0" y="-50" angle="0" identifier="vJ7c2MDCRS"/>
	<guideline x="0" y="50" angle="0" identifier="gmeW534Lbf"/>
	<guideline x="0" y="100" angle="0" identifier="VdHb2L964F"/>
	<guideline x="0" y="150" angle="0" identifier="F8PaAayOWj"/>
	<guideline x="0" y="200" angle="0" identifier="U9a6in55hr"/>
	<guideline x="0" y="250" angle="0" identifier="0cJwJHKSgv"/>
	<guideline x="0" y="300" angle="0" identifier="XoOPNrt3iv"/>
	<guideline x="0" y="350" angle="0" identifier="L4w1uIqGeA"/>
	<guideline x="0" y="400" angle="0" identifier="UkQGWsepPm"/>
	<guideline x="0" y="450" angle="0" identifier="klvmfcZFY1"/>
	<guideline x="0" y="500" angle="0" identifier="q8P9ToeyKv"/>
	<guideline x="0" y="550" angle="0" identifier="E7eyQsvA1e"/>
	<guideline x="0" y="600" angle="0" identifier="xJXTj1iZla"/>
	<guideline x="0" y="650" angle="0" identifier="xSZxP2RvPF"/>
	<guideline x="0" y="700" angle="0" identifier="ee1S2YrvF0"/>
</glyph>
<glyph name="a" format="2">
	<unicode hex="0061"/>
	<advance width="600"/>
	<outline>
		<contour>
			<point x="287.9" y="540.2" type="curve" smooth="yes"/>
			<point x="213.6" y="540.2"/>
			<point x="148.256" y="529.5"/>
			<point x="128.6" y="509.7" type="curve" smooth="yes"/>
			<point x="117.3" y="498.4"/>
			<point x="112.5" y="482.8"/>
			<point x="112.5" y="464.2" type="curve" smooth="yes"/>
			<point x="112.5" y="454.6"/>
			<point x="113.8" y="445.7"/>
			<point x="116.1" y="439.5" type="curve"/>
			<point x="122.1" y="439.5" type="line"/>
			<point x="162.1" y="455.5"/>
			<point x="214" y="464.7"/>
			<point x="271.5" y="464.7" type="curve" smooth="yes"/>
			<point x="396.7" y="464.7"/>
			<point x="430" y="427.1"/>
			<point x="457.3" y="323.5" type="curve"/>
			<point x="477.8" y="323.5"/>
			<point x="489.8" y="334.2"/>
			<point x="489.8" y="352.6" type="curve" smooth="yes"/>
			<point x="489.8" y="459.9"/>
			<point x="418.2" y="540.2"/>
		</contour>
		<contour>
			<point x="395.7" y="470.8" type="curve"/>
			<point x="409.574171458" y="397.5045882955"/>
			<point x="406.8" y="360.4"/>
			<point x="406.8" y="245.4" type="curve" smooth="yes"/>
			<point x="406.8" y="201.1"/>
			<point x="406.8" y="157.9666666667"/>
			<point x="406.8" y="115.9" type="curve" smooth="yes"/>
			<point x="406.8" y="43.9"/>
			<point x="441.2" y="-8.8"/>
			<point x="503" y="-8.8" type="curve" smooth="yes"/>
			<point x="521.2" y="-8.8"/>
			<point x="535.8" y="-2.1"/>
			<point x="546" y="8.1" type="curve" smooth="yes"/>
			<point x="560.8" y="22.9"/>
			<point x="566.8" y="48.7"/>
			<point x="566.8" y="74.8" type="curve"/>
			<point x="566.8" y="77.1"/>
			<point x="566.8" y="80.1"/>
			<point x="566.8" y="82.4" type="curve"/>
			<point x="560.8" y="82.4" type="line"/>
			<point x="548.6" y="74.6"/>
			<point x="533" y="70.6"/>
			<point x="517.2" y="70.6" type="curve" smooth="yes"/>
			<point x="509.1" y="70.6"/>
			<point x="500.1" y="72.6"/>
			<point x="493.3" y="76.3" type="curve"/>
			<point x="490.5" y="93.7"/>
			<point x="489.8" y="108.7"/>
			<point x="489.8" y="127.6" type="curve"/>
			<point x="489.8" y="205.3"/>
			<point x="489.8" y="277.6"/>
			<point x="489.8" y="352.6" type="curve"/>
			<point x="489.8" y="410.4"/>
			<point x="434.9" y="474.5"/>
		</contour>
		<contour>
			<point x="432.4" y="270.3" type="curve" smooth="yes"/>
			<point x="414" y="284.5"/>
			<point x="341" y="299.5"/>
			<point x="261.6" y="299.5" type="curve" smooth="yes"/>
			<point x="152.1" y="299.5"/>
			<point x="78" y="228.5"/>
			<point x="76.6" y="140" type="curve" smooth="yes"/>
			<point x="76.6" y="122.6"/>
			<point x="85.5" y="117"/>
			<point x="110.9" y="140.8" type="curve"/>
			<point x="138.3" y="200.8"/>
			<point x="182.9" y="236.9"/>
			<point x="279.3" y="236.9" type="curve" smooth="yes"/>
			<point x="333.4" y="236.9"/>
			<point x="390.5" y="232.7"/>
			<point x="445.9" y="219.7" type="curve"/>
			<point x="446.6" y="246.1"/>
			<point x="443.7" y="261.8"/>
		</contour>
		<contour>
			<point x="159.6" y="138.7" type="curve" smooth="yes"/>
			<point x="159.6" y="141.4" type="line" smooth="yes"/>
			<point x="159.6" y="195.9"/>
			<point x="174.8" y="221"/>
			<point x="191.9" y="245.4" type="curve"/>
			<point x="141.6" y="257.7"/>
			<point x="76.6" y="179.7"/>
			<point x="76.6" y="140" type="curve" smooth="yes"/>
			<point x="76.6" y="134.1" type="line" smooth="yes"/>
			<point x="76.6" y="41"/>
			<point x="131.9" y="-10"/>
			<point x="226.7" y="-10" type="curve" smooth="yes"/>
			<point x="314.5" y="-10"/>
			<point x="384.8" y="55.7"/>
			<point x="409.8" y="106.7" type="curve" smooth="yes"/>
			<point x="418.4" y="125.4"/>
			<point x="425.8" y="138.2"/>
			<point x="423.7" y="173.8" type="curve"/>
			<point x="365.2" y="94.7"/>
			<point x="300.6" y="64.4"/>
			<point x="244" y="64.4" type="curve" smooth="yes"/>
			<point x="186.5" y="64.4"/>
			<point x="159.6" y="87.1"/>
		</contour>
		<contour>
			<point x="424.3" y="164.7" type="line"/>
			<point x="394.4" y="95.3" type="line"/>
			<point x="416.4" y="95.3" type="line"/>
			<point x="447.3" y="162.7" type="line"/>
		</contour>
	</outline>
	<anchor name="top" x="285.8" y="541.2"/>
	<anchor name="ogonek" x="528.2" y="7.5"/>
	<anchor name="bottom" x="317.8" y="-1"/>
</glyph>
<glyph name="b" format="2">
	<unicode hex="0062"/>
	<advance width="600"/>
	<outline>
		<contour>
			<point x="171.4" y="-3.5" type="curve"/>
			<point x="176.5" y="215.9"/>
			<point x="176.5" y="429.1"/>
			<point x="176.5" y="649.7" type="curve" smooth="yes"/>
			<point x="176.5" y="724.4"/>
			<point x="146.6" y="753.9"/>
			<point x="107.5" y="753.9" type="curve" smooth="yes"/>
			<point x="99.5" y="753.9"/>
			<point x="90.8" y="752.3"/>
			<point x="82.8" y="750" type="curve"/>
			<point x="93.3" y="723.9"/>
			<point x="96.5" y="702.2"/>
			<point x="96.5" y="659.4" type="curve"/>
			<point x="96.5" y="453.8"/>
			<point x="96.5" y="268"/>
			<point x="96.5" y="59.1" type="curve"/>
			<point x="96.5" y="22.2"/>
			<point x="116.6" y="-4.4"/>
			<point x="156.9" y="-4.4" type="curve" smooth="yes"/>
			<point x="161.4" y="-4.4"/>
			<point x="166.9" y="-4.4"/>
		</contour>
		<contour>
			<point x="377.7" y="540.8" type="curve" smooth="yes"/>
			<point x="290.2" y="540.8"/>
			<point x="205.9" y="462.4"/>
			<point x="174.2" y="339.2" type="curve" smooth="yes"/>
			<point x="162.9" y="296.1"/>
			<point x="159" y="263.7"/>
			<point x="168.3" y="242.4" type="curve"/>
			<point x="230.3" y="402.5"/>
			<point x="297.3" y="457.5"/>
			<point x="375.5" y="457.5" type="curve" smooth="yes"/>
			<point x="425.4" y="457.5"/>
			<point x="469.7" y="409.9"/>
			<point x="506.4" y="318.3" type="curve"/>
			<point x="524.7" y="319.5"/>
			<point x="535.5" y="327"/>
			<point x="535.5" y="334.9" type="curve" smooth="yes"/>
			<point x="535.5" y="457.4"/>
			<point x="470.4" y="540.8"/>
		</contour>
		<contour>
			<point x="319.9" y="-10.6" type="curve" smooth="yes"/>
			<point x="445.5" y="-10.6"/>
			<point x="535.5" y="87.8"/>
			<point x="535.5" y="316.4" type="curve" smooth="yes"/>
			<point x="535.5" y="334.9" type="line" smooth="yes"/>
			<point x="535.5" y="388.3"/>
			<point x="499.8" y="469.8"/>
			<point x="454.1" y="469.8" type="curve"/>
			<point x="439.7" y="469.8"/>
			<point x="429.6" y="464.3"/>
			<point x="428.2" y="448" type="curve"/>
			<point x="450.4" y="407.6"/>
			<point x="454" y="371.7"/>
			<point x="454" y="319.8" type="curve" smooth="yes"/>
			<point x="454" y="310.2" type="line" smooth="yes"/>
			<point x="454" y="150.4"/>
			<point x="406.8" y="67.6"/>
			<point x="307.6" y="67.6" type="curve" smooth="yes"/>
			<point x="245" y="67.6"/>
			<point x="207.8" y="95.4"/>
			<point x="163.5" y="144.5" type="curve"/>
			<point x="155.4" y="135.5"/>
			<point x="157.7" y="120.1"/>
			<point x="161.6" y="103.9" type="curve"/>
			<point x="175.2" y="61"/>
			<point x="238.6" y="-10.6"/>
		</contour>
		<contour>
			<point x="168.4" y="373.1" type="line"/>
			<point x="147.6" y="296.7" type="line"/>
			<point x="170.3" y="294.4" type="line"/>
			<point x="193.7" y="373.1" type="line"/>
		</contour>
		<contour>
			<point x="163.6" y="67.8" type="line"/>
			<point x="186.6" y="67.8" type="line"/>
			<point x="160.8" y="136.4" type="line"/>
			<point x="139.5" y="133.4" type="line"/>
		</contour>
	</outline>
</glyph>
<glyph name="c" format="2">
	<unicode hex="0063"/>
	<advance width="600"/>
	<outline>
		<contour>
			<point x="344.6" y="540.8" type="curve" smooth="yes"/>
			<point x="186.6932038835" y="540.8"/>
			<point x="69.3" y="430.5308681672"/>
			<point x="69.3" y="236.5" type="curve" smooth="yes"/>
			<point x="69.3" y="223" type="line" smooth="yes"/>
			<point x="69.3" y="84.9"/>
			<point x="171.5653061225" y="-10.6"/>
			<point x="324.7" y="-10.6" type="curve" smooth="yes"/>
			<point x="334.2547169811" y="-10.6"/>
			<point x="345.3000723937" y="2.9029681417"/>
			<point x="346.3" y="28.5" type="curve"/>
			<point x="201.0362843553" y="51.817794631"/>
			<point x="147.8" y="124.6"/>
			<point x="147.8" y="217.2" type="curve" smooth="yes"/>
			<point x="147.8" y="230.8" type="line" smooth="yes"/>
			<point x="147.8" y="363.1"/>
			<point x="218.9" y="459.6"/>
			<point x="336.6" y="459.6" type="curve" smooth="yes"/>
			<point x="411.4" y="459.6"/>
			<point x="448.3" y="439.7"/>
			<point x="495.4" y="394.4" type="curve"/>
			<point x="500" y="394.4" type="line"/>
			<point x="504.3" y="406.8"/>
			<point x="506.5" y="418.4"/>
			<point x="506.5" y="434.5" type="curve" smooth="yes"/>
			<point x="506.5" y="459.6"/>
			<point x="502.3" y="483.2"/>
			<point x="488.9" y="496.6" type="curve" smooth="yes"/>
			<point x="459.9" y="525.6"/>
			<point x="411" y="540.8"/>
		</contour>
		<contour>
			<point x="489.8" y="40.3" type="curve" smooth="yes"/>
			<point x="505.7" y="56.2"/>
			<point x="511" y="84.9"/>
			<point x="511" y="107.1" type="curve" smooth="yes"/>
			<point x="511" y="119.3"/>
			<point x="510" y="126.7"/>
			<point x="508.4" y="134" type="curve"/>
			<point x="503.8" y="134" type="line"/>
			<point x="455.5" y="89.4"/>
			<point x="403.7" y="67.9"/>
			<point x="324.3" y="67.9" type="curve" smooth="yes"/>
			<point x="239.5" y="67.9"/>
			<point x="192.4019137887" y="87.7172878883"/>
			<point x="123.6" y="134.7" type="curve"/>
			<point x="104.6361000528" y="81.8814667371"/>
			<point x="216.6136094675" y="-10.6"/>
			<point x="324.7" y="-10.6" type="curve" smooth="yes"/>
			<point x="401.685" y="-10.6"/>
			<point x="461.2" y="11.7"/>
		</contour>
	</outline>
	<anchor name="top" x="325.8" y="541.2"/>
	<anchor name="bottom" x="324.7" y="-0.7"/>
</glyph>
<glyph name="d" format="2">
	<unicode hex="0064"/>
	<advance width="600"/>
	<outline>
		<contour>
			<point x="280.1" y="540.8" type="curve" smooth="yes"/>
			<point x="154.5" y="540.8"/>
			<point x="64.5" y="442.4"/>
			<point x="64.5" y="213.8" type="curve" smooth="yes"/>
			<point x="64.5" y="195.3" type="line" smooth="yes"/>
			<point x="64.5" y="124.9086206897"/>
			<point x="139.5" y="44.2"/>
			<point x="164.9" y="77.1" type="curve"/>
			<point x="149.3" y="122.6"/>
			<point x="146" y="158.5"/>
			<point x="146" y="210.4" type="curve" smooth="yes"/>
			<point x="146" y="220" type="line" smooth="yes"/>
			<point x="146" y="379.8"/>
			<point x="193.2" y="462.6"/>
			<point x="292.4" y="462.6" type="curve" smooth="yes"/>
			<point x="351.5" y="462.6"/>
			<point x="387.8" y="443"/>
			<point x="433.5" y="389" type="curve"/>
			<point x="441.6" y="398"/>
			<point x="439.3" y="410.6"/>
			<point x="435.4" y="426.8" type="curve"/>
			<point x="424.6" y="487.2"/>
			<point x="355.8" y="540.8"/>
		</contour>
		<contour>
			<point x="222.3" y="-10.6" type="curve" smooth="yes"/>
			<point x="309.8" y="-10.6"/>
			<point x="394.1" y="74.1"/>
			<point x="429.3" y="184.7" type="curve" smooth="yes"/>
			<point x="441.3" y="223.6"/>
			<point x="443.8" y="260.2"/>
			<point x="431.7" y="287.8" type="curve"/>
			<point x="370.4" y="127.7"/>
			<point x="302.7" y="72.7"/>
			<point x="224.5" y="72.7" type="curve" smooth="yes"/>
			<point x="169" y="72.7"/>
			<point x="127.5" y="112.6"/>
			<point x="97.1" y="211.9" type="curve"/>
			<point x="75.3" y="210.7"/>
			<point x="64.5" y="203.2"/>
			<point x="64.5" y="195.3" type="curve" smooth="yes"/>
			<point x="64.5" y="72.8"/>
			<point x="129.6" y="-10.6"/>
		</contour>
		<contour>
			<point x="516.3" y="-0.4" type="curve"/>
			<point x="506.1" y="30.8"/>
			<point x="503.5" y="51.3"/>
			<point x="503.5" y="96.2" type="curve" smooth="yes"/>
			<point x="503.5" y="281.1"/>
			<point x="503.5" y="465.9"/>
			<point x="503.5" y="653.2" type="curve" smooth="yes"/>
			<point x="503.5" y="731.4"/>
			<point x="470.8" y="757.4"/>
			<point x="434.5" y="757.4" type="curve" smooth="yes"/>
			<point x="426.5" y="757.4"/>
			<point x="417.8" y="755.8"/>
			<point x="409.8" y="753.5" type="curve"/>
			<point x="420.3" y="727.4"/>
			<point x="423.5" y="705.7"/>
			<point x="423.5" y="662.9" type="curve" smooth="yes"/>
			<point x="423.5" y="467.8"/>
			<point x="423.5" y="293.2"/>
			<point x="423.5" y="94.8" type="curve" smooth="yes"/>
			<point x="423.5" y="34.8"/>
			<point x="446.9" y="-4.9"/>
			<point x="488.6" y="-4.9" type="curve" smooth="yes"/>
			<point x="498.1" y="-4.9"/>
			<point x="506.8" y="-3"/>
		</contour>
		<contour>
			<point x="438.5" y="398.7" type="line"/>
			<point x="461.2" y="401" type="line"/>
			<point x="430.6" y="469.9" type="line"/>
			<point x="408.3" y="469.9" type="line"/>
		</contour>
		<contour>
			<point x="430.9" y="151.5" type="line"/>
			<point x="461.5" y="222.3" type="line"/>
			<point x="438.8" y="224.6" type="line"/>
			<point x="407.7" y="151.5" type="line"/>
		</contour>
	</outline>
	<anchor name="caronslovak" x="530.8" y="690"/>
</glyph>
<glyph name="e" format="2">
	<unicode hex="0065"/>
	<advance width="600"/>
	<outline>
		<contour>
			<point x="340.1" y="466.1" type="curve" smooth="yes"/>
			<point x="395.1" y="466.1"/>
			<point x="421.460483301" y="458.8078683211"/>
			<point x="457.1" y="431.7" type="curve"/>
			<point x="477.4621241366" y="476.262801968"/>
			<point x="415.7157894737" y="540.8"/>
			<point x="337.6" y="540.8" type="curve"/>
			<point x="195.9" y="540.8"/>
			<point x="74.5" y="449.8"/>
			<point x="74.5" y="238.9" type="curve" smooth="yes"/>
			<point x="74.5" y="225.4" type="line" smooth="yes"/>
			<point x="74.5" y="70.7"/>
			<point x="184.5" y="-11.6"/>
			<point x="325.7" y="-13" type="curve" smooth="yes"/>
			<point x="351.9" y="-13"/>
			<point x="362.9" y="13.7"/>
			<point x="363.2" y="35.4" type="curve"/>
			<point x="214.9" y="35.4"/>
			<point x="153.1" y="95.9"/>
			<point x="153.1" y="211.6" type="curve" smooth="yes"/>
			<point x="153.1" y="224.4" type="line" smooth="yes"/>
			<point x="153.1" y="384.4"/>
			<point x="227.2" y="466.1"/>
		</contour>
		<contour>
			<point x="499" y="36.7" type="curve" smooth="yes"/>
			<point x="512.7" y="50.4"/>
			<point x="518.8" y="72.5"/>
			<point x="518.8" y="101.9" type="curve" smooth="yes"/>
			<point x="518.8" y="113.2"/>
			<point x="517.8" y="121.3"/>
			<point x="516.2" y="128" type="curve"/>
			<point x="510.2" y="128" type="line"/>
			<point x="458" y="82.7"/>
			<point x="404.8777777778" y="64"/>
			<point x="330.6" y="64" type="curve" smooth="yes"/>
			<point x="232.7" y="64"/>
			<point x="191.5" y="85.4"/>
			<point x="130" y="146.2" type="curve"/>
			<point x="96.6" y="72.1"/>
			<point x="228.2" y="-13"/>
			<point x="325.7" y="-13" type="curve" smooth="yes"/>
			<point x="402.6" y="-13"/>
			<point x="469.1" y="6.8"/>
		</contour>
		<contour>
			<point x="309.7" y="207.8" type="curve" smooth="yes"/>
			<point x="480.7" y="207.8"/>
			<point x="525.5" y="278.4932885906"/>
			<point x="525.5" y="366.4" type="curve" smooth="yes"/>
			<point x="525.5" y="370.1" type="line" smooth="yes"/>
			<point x="525.5" y="461.2"/>
			<point x="458.9" y="540.8"/>
			<point x="337.6" y="540.8" type="curve" smooth="yes"/>
			<point x="320.9" y="540.8"/>
			<point x="310.2" y="519.3"/>
			<point x="320.1" y="494.6" type="curve"/>
			<point x="409" y="488.9"/>
			<point x="446.1" y="453.1"/>
			<point x="446.1" y="371.3" type="curve" smooth="yes"/>
			<point x="446.1" y="367.6" type="line" smooth="yes"/>
			<point x="446.1" y="305.8"/>
			<point x="407.1" y="267.6"/>
			<point x="300.6" y="267.6" type="curve" smooth="yes"/>
			<point x="206.9" y="267.6"/>
			<point x="172.473308789" y="276.1620745955"/>
			<point x="135.6" y="292.5" type="curve"/>
			<point x="131.0887395615" y="267.6870632235"/>
			<point x="133.6412550882" y="254.8587449118"/>
			<point x="144.7" y="243.8" type="curve" smooth="yes"/>
			<point x="164.7" y="223.8"/>
			<point x="224.3" y="207.8"/>
		</contour>
	</outline>
	<anchor name="top" x="322.8" y="541.2"/>
	<anchor name="ogonek" x="499.6" y="35.1"/>
	<anchor name="bottom" x="300" y="-1"/>
</glyph>
<glyph name="f" format="2">
	<unicode hex="0066"/>
	<advance width="600"/>
	<outline>
		<contour>
			<point x="245.8" y="637.8" type="curve"/>
			<point x="287.7" y="674.1"/>
			<point x="333.9" y="687.5"/>
			<point x="400" y="687.5" type="curve" smooth="yes"/>
			<point x="460" y="687.5"/>
			<point x="511.4" y="673.4"/>
			<point x="548.5" y="655.5" type="curve"/>
			<point x="554.5" y="655.5" type="line"/>
			<point x="557.1" y="663.5"/>
			<point x="558.1" y="673.5"/>
			<point x="558.1" y="682.5" type="curve" smooth="yes"/>
			<point x="558.1" y="706.1"/>
			<point x="554.2" y="722.6"/>
			<point x="543.9" y="732.9" type="curve" smooth="yes"/>
			<point x="528.8" y="748"/>
			<point x="477.2" y="763"/>
			<point x="397.9" y="763" type="curve" smooth="yes"/>
			<point x="311.1" y="763"/>
			<point x="216.6" y="679.9"/>
		</contour>
		<contour>
			<point x="275.5" y="153.6" type="curve" smooth="yes"/>
			<point x="275.5" y="260.4"/>
			<point x="275.5" y="380.8"/>
			<point x="275.5" y="517" type="curve" smooth="yes"/>
			<point x="275.5" y="601.4"/>
			<point x="282.6" y="660.2"/>
			<point x="297.5" y="683.8" type="curve" smooth="yes"/>
			<point x="325.1" y="708.8"/>
			<point x="365.5" y="725.9"/>
			<point x="421.5" y="730.4" type="curve"/>
			<point x="423.1" y="756.2"/>
			<point x="409.9" y="763"/>
			<point x="397.9" y="763" type="curve" smooth="yes"/>
			<point x="271.9788990826" y="763"/>
			<point x="195.5" y="687.6"/>
			<point x="195.5" y="531.4" type="curve"/>
			<point x="195.5" y="352.8"/>
			<point x="195.5" y="212.1"/>
			<point x="195.5" y="62" type="curve"/>
			<point x="243.09375" y="62"/>
			<point x="275.5" y="83.3"/>
		</contour>
		<contour>
			<point x="59.1" y="80" type="line"/>
			<point x="57.7" y="75.4"/>
			<point x="57" y="70.1"/>
			<point x="57" y="63.1" type="curve" smooth="yes"/>
			<point x="57" y="18.6"/>
			<point x="66.2" y="0"/>
			<point x="109.4" y="0" type="curve" smooth="yes"/>
			<point x="497.5" y="0" type="line"/>
			<point x="499" y="5.6"/>
			<point x="499.6" y="12.3"/>
			<point x="499.6" y="18.5" type="curve" smooth="yes"/>
			<point x="499.6" y="53.5"/>
			<point x="412.1" y="80"/>
			<point x="283.5" y="80" type="curve" smooth="yes"/>
		</contour>
		<contour>
			<point x="64.8" y="521.2" type="line"/>
			<point x="64.8" y="517.3"/>
			<point x="64.8" y="512.7"/>
			<point x="64.8" y="508.5" type="curve" smooth="yes"/>
			<point x="64.8" y="463.1"/>
			<point x="82.7666666667" y="441.2"/>
			<point x="148.7" y="441.2" type="curve" smooth="yes"/>
			<point x="513.5" y="441.2" type="line"/>
			<point x="514.7" y="448.4"/>
			<point x="515.6" y="458.1"/>
			<point x="515.6" y="467.1" type="curve" smooth="yes"/>
			<point x="515.6" y="502.3"/>
			<point x="504.9" y="521.2"/>
			<point x="468.6" y="521.2" type="curve"/>
		</contour>
		<contour>
			<point x="261.8" y="70.4" type="line"/>
			<point x="249.8" y="97.4" type="line"/>
			<point x="226.3" y="77.6" type="line"/>
			<point x="229.3" y="62.6" type="line"/>
		</contour>
	</outline>
</glyph>
<glyph name="g" format="2">
	<unicode hex="0067"/>
	<advance width="600"/>
	<outline>
		<contour>
			<point x="302.9" y="467.5" type="curve" smooth="yes"/>
			<point x="365.8590909091" y="467.5"/>
			<point x="406.5" y="455.5"/>
			<point x="453" y="428" type="curve"/>
			<point x="486.7" y="474.1"/>
			<point x="400.9980769231" y="540.8"/>
			<point x="298.5" y="540.8" type="curve" smooth="yes"/>
			<point x="174.1818604651" y="540.8"/>
			<point x="77.8" y="466.9"/>
			<point x="77.8" y="352.6" type="curve" smooth="yes"/>
			<point x="77.8" y="346.8" type="line" smooth="yes"/>
			<point x="77.8" y="231.5"/>
			<point x="169.3" y="155.7"/>
			<point x="298.2" y="157.7" type="curve" smooth="yes"/>
			<point x="327.7" y="157.7"/>
			<point x="333.1" y="170.9"/>
			<point x="333.1" y="198" type="curve"/>
			<point x="215.6" y="199.5"/>
			<point x="154.8" y="246.7"/>
			<point x="154.8" y="334.3" type="curve" smooth="yes"/>
			<point x="154.8" y="339.5" type="line" smooth="yes"/>
			<point x="154.8" y="425.8"/>
			<point x="211.9574850299" y="467.5"/>
		</contour>
		<contour>
			<point x="300.3" y="223.8" type="curve" smooth="yes"/>
			<point x="236.1745508128" y="223.8"/>
			<point x="196.8195451528" y="240.6067573424"/>
			<point x="143.7" y="273.3" type="curve"/>
			<point x="114.2" y="224.4"/>
			<point x="198.0754716981" y="157.7"/>
			<point x="298.2" y="157.7" type="curve" smooth="yes"/>
			<point x="422.785645933" y="157.7"/>
			<point x="518.9" y="232.3"/>
			<point x="518.9" y="348" type="curve" smooth="yes"/>
			<point x="518.9" y="353.8" type="line" smooth="yes"/>
			<point x="518.9" y="470.5"/>
			<point x="429.365712065" y="542.8200906677"/>
			<point x="298.5" y="540.8" type="curve" smooth="yes"/>
			<point x="269" y="540.8"/>
			<point x="263.6" y="527.6"/>
			<point x="263.6" y="500.5" type="curve"/>
			<point x="380.9966723376" y="498.9005750583"/>
			<point x="448.4" y="446.9205925206"/>
			<point x="448.4" y="359.1" type="curve" smooth="yes"/>
			<point x="448.4" y="353.9" type="line" smooth="yes"/>
			<point x="448.4" y="266.2"/>
			<point x="391.1" y="223.8"/>
		</contour>
		<contour>
			<point x="181.9" y="75.7" type="curve" smooth="yes"/>
			<point x="181.9" y="71" type="line" smooth="yes"/>
			<point x="181.9" y="18.3"/>
			<point x="219.2" y="-17.1"/>
			<point x="291.4" y="-22" type="curve" smooth="yes"/>
			<point x="395.8" y="-28.2" type="line" smooth="yes"/>
			<point x="447.1" y="-31.3"/>
			<point x="471.1" y="-58.1"/>
			<point x="471.1" y="-101.7" type="curve" smooth="yes"/>
			<point x="471.1" y="-105.2" type="line" smooth="yes"/>
			<point x="471.1" y="-172.5103773585"/>
			<point x="448.2" y="-209.9"/>
			<point x="250.2" y="-209.9" type="curve"/>
			<point x="249.9" y="-240.2"/>
			<point x="259.5" y="-247.9"/>
			<point x="279.2" y="-247.9" type="curve" smooth="yes"/>
			<point x="490.6" y="-247.9"/>
			<point x="550.5" y="-171.9566037736"/>
			<point x="550.5" y="-80.8" type="curve" smooth="yes"/>
			<point x="550.5" y="-75.1" type="line" smooth="yes"/>
			<point x="550.5" y="-5.1"/>
			<point x="502.9" y="41.3"/>
			<point x="416.2" y="47" type="curve" smooth="yes"/>
			<point x="304.1" y="54.9" type="line" smooth="yes"/>
			<point x="271.2" y="56.9"/>
			<point x="258.9" y="69.5"/>
			<point x="258.9" y="92.5" type="curve" smooth="yes"/>
			<point x="258.9" y="96.2" type="line" smooth="yes"/>
			<point x="258.9" y="123.6"/>
			<point x="270.5" y="146.3"/>
			<point x="298.3" y="171.1" type="curve"/>
			<point x="297.4174428472" y="178.1032270138"/>
			<point x="294.4272727273" y="180.3"/>
			<point x="286" y="180.3" type="curve" smooth="yes"/>
			<point x="242.295890411" y="180.3"/>
			<point x="181.9" y="126.2372344822"/>
		</contour>
		<contour>
			<point x="502.4" y="-142.1" type="curve"/>
			<point x="443.4" y="-178.2"/>
			<point x="389.1" y="-185"/>
			<point x="296.3" y="-185" type="curve" smooth="yes"/>
			<point x="258.1" y="-185" type="line" smooth="yes"/>
			<point x="175.6" y="-185"/>
			<point x="132.2" y="-160.2"/>
			<point x="132.2" y="-109" type="curve" smooth="yes"/>
			<point x="132.2" y="-103.7" type="line" smooth="yes"/>
			<point x="132.2" y="-43.9"/>
			<point x="167.6" y="-11.9"/>
			<point x="240.5" y="3.4" type="curve"/>
			<point x="237.5867435055" y="20.7945965962"/>
			<point x="226.6" y="24.5"/>
			<point x="208.3" y="24.5" type="curve" smooth="yes"/>
			<point x="118" y="24.5"/>
			<point x="51" y="-29.4"/>
			<point x="51" y="-110.7" type="curve" smooth="yes"/>
			<point x="51" y="-115.9" type="line" smooth="yes"/>
			<point x="51" y="-190.2"/>
			<point x="117.3" y="-247.9"/>
			<point x="243.6" y="-247.9" type="curve" smooth="yes"/>
			<point x="279.2" y="-247.9" type="line" smooth="yes"/>
			<point x="405.5" y="-247.9"/>
			<point x="510.5679061076" y="-178.8810829537"/>
		</contour>
		<contour>
			<point x="449.1" y="485.2" type="curve" smooth="yes"/>
			<point x="493.2" y="519.5" type="line" smooth="yes"/>
			<point x="542.4" y="557.4"/>
			<point x="551.9" y="580.5"/>
			<point x="551.9" y="605.6" type="curve" smooth="yes"/>
			<point x="551.9" y="608.5" type="line" smooth="yes"/>
			<point x="551.9" y="641.5"/>
			<point x="524" y="651.2"/>
			<point x="489.1" y="651.2" type="curve" smooth="yes"/>
			<point x="480.3" y="651.2"/>
			<point x="472.9" y="650.2"/>
			<point x="466.2" y="648.2" type="curve"/>
			<point x="468.8" y="639.4"/>
			<point x="469.8" y="632.7"/>
			<point x="469.8" y="622.6" type="curve" smooth="yes"/>
			<point x="469.8" y="606.5"/>
			<point x="465.3" y="592.4"/>
			<point x="448.7" y="564.9" type="curve" smooth="yes"/>
			<point x="407" y="487.2" type="line"/>
			<point x="414.5" y="476.1"/>
			<point x="435.8" y="475.4"/>
		</contour>
		<contour>
			<point x="442.3" y="466.3" type="line"/>
			<point x="461.3" y="466.3" type="line"/>
			<point x="461.3" y="514.3" type="line"/>
			<point x="442.3" y="514.3" type="line"/>
		</contour>
		<contour>
			<point x="232.8" y="144.4" type="line"/>
			<point x="251.8" y="144.4" type="line"/>
			<point x="251.8" y="185.4" type="line"/>
			<point x="232.8" y="185.4" type="line"/>
		</contour>
		<contour>
			<point x="191.3" y="9" type="line"/>
			<point x="210.3" y="9" type="line"/>
			<point x="210.3" y="57" type="line"/>
			<point x="191.3" y="57" type="line"/>
		</contour>
	</outline>
</glyph>
<glyph name="h" format="2">
	<unicode hex="0068"/>
	<advance width="600"/>
	<outline>
		<contour>
			<point x="169.5" y="-3.5" type="curve"/>
			<point x="169.5" y="215.9"/>
			<point x="169.5" y="429.1"/>
			<point x="169.5" y="649.7" type="curve" smooth="yes"/>
			<point x="169.5" y="725.8"/>
			<point x="135.4" y="753.9"/>
			<point x="100.5" y="753.9" type="curve" smooth="yes"/>
			<point x="92.5" y="753.9"/>
			<point x="83.8" y="752.3"/>
			<point x="75.8" y="750" type="curve"/>
			<point x="86.3" y="723.9"/>
			<point x="89.5" y="702.2"/>
			<point x="89.5" y="659.4" type="curve"/>
			<point x="89.5" y="453.8"/>
			<point x="89.5" y="268"/>
			<point x="89.5" y="59.1" type="curve"/>
			<point x="89.5" y="22.2"/>
			<point x="109.6" y="-4.4"/>
			<point x="149.9" y="-4.4" type="curve" smooth="yes"/>
			<point x="156.5" y="-4.4"/>
			<point x="162" y="-4.4"/>
		</contour>
		<contour>
			<point x="388.5" y="541.5" type="curve" smooth="yes"/>
			<point x="297.4" y="541.5"/>
			<point x="211" y="448.8"/>
			<point x="164.7" y="328.4" type="curve" smooth="yes"/>
			<point x="149.2" y="280.2"/>
			<point x="150.5" y="238.4"/>
			<point x="161.4" y="193.8" type="curve"/>
			<point x="205.8" y="352.6"/>
			<point x="290.3" y="456.4"/>
			<point x="371.4" y="456.4" type="curve" smooth="yes"/>
			<point x="413.9" y="456.4"/>
			<point x="440" y="421.8"/>
			<point x="456.6" y="354.4" type="curve"/>
			<point x="494.3" y="355.8"/>
			<point x="508.7" y="374.2"/>
			<point x="508.7" y="393.1" type="curve" smooth="yes"/>
			<point x="508.7" y="468.7"/>
			<point x="461.2" y="541.5"/>
		</contour>
		<contour>
			<point x="522.7" y="0" type="curve"/>
			<point x="511.6" y="47.8"/>
			<point x="508.7" y="82.4"/>
			<point x="508.7" y="134.5" type="curve"/>
			<point x="508.7" y="220.7"/>
			<point x="508.7" y="306.9"/>
			<point x="508.7" y="393.1" type="curve"/>
			<point x="508.7" y="425"/>
			<point x="489.5" y="443.1"/>
			<point x="450.2" y="442.2" type="curve"/>
			<point x="430.3" y="298.7"/>
			<point x="422.5" y="232.4"/>
			<point x="422.5" y="129.7" type="curve" smooth="yes"/>
			<point x="422.5" y="24.1"/>
			<point x="453.2" y="-3.2"/>
			<point x="496.9" y="-3.2" type="curve" smooth="yes"/>
			<point x="506.7" y="-3.2"/>
			<point x="514.6" y="-1.9"/>
		</contour>
		<contour>
			<point x="161.6" y="355.8" type="line"/>
			<point x="131" y="286.4" type="line"/>
			<point x="153.7" y="284.1" type="line"/>
			<point x="184.8" y="355.8" type="line"/>
		</contour>
	</outline>
	<anchor name="top" x="126.1" y="730"/>
</glyph>
<glyph name="i" format="2">
	<unicode hex="0069"/>
	<advance width="600"/>
	<outline>
		<contour>
			<point x="76.2" y="530.2" type="curve"/>
			<point x="73.3" y="521.9"/>
			<point x="71.4" y="510.5"/>
			<point x="71.4" y="498.7" type="curve" smooth="yes"/>
			<point x="71.4" y="465.3"/>
			<point x="85.8" y="447.3"/>
			<point x="106.5" y="447.3" type="curve" smooth="yes"/>
			<point x="129.5" y="447.3"/>
			<point x="192.9" y="465.2"/>
			<point x="306.6" y="485.3" type="curve"/>
			<point x="307.8" y="521.6"/>
			<point x="302" y="540.2"/>
			<point x="279.5" y="540.2" type="curve" smooth="yes"/>
			<point x="224.1" y="540.2"/>
			<point x="151.7" y="536.6"/>
		</contour>
		<contour>
			<point x="289.5" y="540.2" type="curve" smooth="yes"/>
			<point x="279.5" y="540.2" type="line"/>
			<point x="279.5" y="413.2"/>
			<point x="279.5" y="287.2"/>
			<point x="279.5" y="160.2" type="curve"/>
			<point x="279.5" y="92.7"/>
			<point x="303.6" y="61.7"/>
			<point x="359.5" y="61.7" type="curve"/>
			<point x="359.5" y="205.1"/>
			<point x="359.5" y="347.1"/>
			<point x="359.5" y="490.5" type="curve" smooth="yes"/>
			<point x="359.5" y="529.8"/>
			<point x="333.1" y="540.2"/>
		</contour>
		<contour>
			<point x="63.6" y="80" type="line"/>
			<point x="62.2" y="75.8"/>
			<point x="61.5" y="65.9"/>
			<point x="61.5" y="60.3" type="curve" smooth="yes"/>
			<point x="61.5" y="17.2"/>
			<point x="70.7" y="0"/>
			<point x="113.9" y="0" type="curve" smooth="yes"/>
			<point x="558.6" y="0" type="line"/>
			<point x="560.8" y="5.6"/>
			<point x="562.1" y="11.6"/>
			<point x="562.1" y="18.5" type="curve" smooth="yes"/>
			<point x="562.1" y="53.5"/>
			<point x="477.6" y="80"/>
			<point x="349" y="80" type="curve" smooth="yes"/>
		</contour>
		<contour>
			<point x="289.1" y="462.8" type="line"/>
			<point x="301.8" y="498.1" type="line"/>
			<point x="286.8" y="501.1" type="line"/>
			<point x="265.8" y="485.1" type="line"/>
		</contour>
		<contour>
			<point x="291.9" y="70.4" type="line"/>
			<point x="323.7" y="62.6" type="line"/>
			<point x="326.7" y="77.6" type="line"/>
			<point x="305.3" y="97.4" type="line"/>
		</contour>
		<contour>
			<point x="373.2" y="651" type="curve"/>
			<point x="373.2" y="709.9" type="line" smooth="yes"/>
			<point x="373.2" y="740.6"/>
			<point x="349.4" y="761.4"/>
			<point x="300.4" y="761.4" type="curve" smooth="yes"/>
			<point x="285.1" y="761.4"/>
			<point x="268.8" y="760.1"/>
			<point x="255.7" y="757.5" type="curve"/>
			<point x="255.7" y="720.3" type="line" smooth="yes"/>
			<point x="255.7" y="674.2"/>
			<point x="289.3" y="648.1"/>
			<point x="349.2" y="648.1" type="curve" smooth="yes"/>
			<point x="358.6" y="648.1"/>
			<point x="366.7" y="649.4"/>
		</contour>
	</outline>
	<anchor name="ogonek" x="561" y="0"/>
	<anchor name="bottom" x="310.3" y="-1"/>
</glyph>
<glyph name="j" format="2">
	<unicode hex="006A"/>
	<advance width="600"/>
	<outline>
		<contour>
			<point x="72.1" y="530.2" type="curve"/>
			<point x="69.2" y="521.9"/>
			<point x="67.3" y="510.5"/>
			<point x="67.3" y="498.7" type="curve" smooth="yes"/>
			<point x="67.3" y="465.3"/>
			<point x="81.7" y="447.3"/>
			<point x="102.4" y="447.3" type="curve" smooth="yes"/>
			<point x="134.2211267606" y="447.3"/>
			<point x="220.8450704226" y="466.1"/>
			<point x="380.8" y="485.6" type="curve"/>
			<point x="380.8" y="522.8"/>
			<point x="375" y="540.2"/>
			<point x="352.5" y="540.2" type="curve" smooth="yes"/>
			<point x="275.9358490566" y="540.2"/>
			<point x="176.6545779681" y="539.1312589413"/>
		</contour>
		<contour>
			<point x="432.5" y="-1.8" type="curve"/>
			<point x="432.5" y="163.8"/>
			<point x="432.5" y="329.7"/>
			<point x="432.5" y="495.3" type="curve"/>
			<point x="432.5" y="529.8"/>
			<point x="400.1428571429" y="540.2"/>
			<point x="359" y="540.2" type="curve"/>
			<point x="352.5" y="540.2" type="line"/>
			<point x="352.5" y="360.7"/>
			<point x="352.5" y="179.5"/>
			<point x="352.5" y="0" type="curve" smooth="yes"/>
			<point x="352.5" y="-106.9"/>
			<point x="342.3" y="-140.3"/>
			<point x="300.2" y="-192.8" type="curve"/>
			<point x="349" y="-210.5"/>
			<point x="432.5" y="-122.5"/>
		</contour>
		<contour>
			<point x="206.1" y="-170" type="curve" smooth="yes"/>
			<point x="135.4" y="-170"/>
			<point x="97.1" y="-161"/>
			<point x="47.6" y="-132.6" type="curve"/>
			<point x="43.6" y="-132.6" type="line"/>
			<point x="42" y="-139.7"/>
			<point x="41" y="-149.6"/>
			<point x="41" y="-158.7" type="curve" smooth="yes"/>
			<point x="41" y="-181.7"/>
			<point x="46.4" y="-203.2"/>
			<point x="57.6" y="-214.4" type="curve" smooth="yes"/>
			<point x="77.7" y="-234.5"/>
			<point x="130.3" y="-250"/>
			<point x="202.7" y="-250" type="curve" smooth="yes"/>
			<point x="354.8" y="-250"/>
			<point x="433.1" y="-165.6"/>
			<point x="432.5" y="-1.8" type="curve" smooth="yes"/>
			<point x="432.5" y="6.3"/>
			<point x="414.5" y="19.8"/>
			<point x="404.4" y="19.8" type="curve"/>
			<point x="380.9" y="-140.4"/>
			<point x="314.4" y="-170"/>
		</contour>
		<contour>
			<point x="362.1" y="465.2" type="line"/>
			<point x="374.8" y="500.5" type="line"/>
			<point x="359.8" y="503.5" type="line"/>
			<point x="338.8" y="487.5" type="line"/>
		</contour>
		<contour>
			<point x="445" y="651" type="curve"/>
			<point x="445" y="709.9" type="line" smooth="yes"/>
			<point x="445" y="740.6"/>
			<point x="421.2" y="761.4"/>
			<point x="372.2" y="761.4" type="curve" smooth="yes"/>
			<point x="356.9" y="761.4"/>
			<point x="340.6" y="760.1"/>
			<point x="327.5" y="757.5" type="curve"/>
			<point x="327.5" y="720.3" type="line" smooth="yes"/>
			<point x="327.5" y="674.2"/>
			<point x="361.1" y="648.1"/>
			<point x="421" y="648.1" type="curve" smooth="yes"/>
			<point x="430.4" y="648.1"/>
			<point x="438.5" y="649.4"/>
		</contour>
	</outline>
</glyph>
<glyph name="k" format="2">
	<unicode hex="006B"/>
	<advance width="600"/>
	<outline>
		<contour>
			<point x="169.5" y="-3.5" type="curve"/>
			<point x="169.5" y="215.9"/>
			<point x="169.5" y="429.1"/>
			<point x="169.5" y="649.7" type="curve" smooth="yes"/>
			<point x="169.5" y="725.8"/>
			<point x="135.4" y="753.9"/>
			<point x="100.5" y="753.9" type="curve" smooth="yes"/>
			<point x="92.5" y="753.9"/>
			<point x="83.8" y="752.3"/>
			<point x="75.8" y="750" type="curve"/>
			<point x="86.3" y="723.9"/>
			<point x="89.5" y="702.2"/>
			<point x="89.5" y="659.4" type="curve"/>
			<point x="89.5" y="453.8"/>
			<point x="89.5" y="268"/>
			<point x="89.5" y="59.1" type="curve"/>
			<point x="89.5" y="22.2"/>
			<point x="109.6" y="-4.4"/>
			<point x="149.9" y="-4.4" type="curve" smooth="yes"/>
			<point x="156.5" y="-4.4"/>
			<point x="162" y="-4.4"/>
		</contour>
		<contour>
			<point x="440.8" y="538" type="line"/>
			<point x="365.1" y="361.7"/>
			<point x="263.4" y="267.8"/>
			<point x="125.9" y="222.8" type="curve"/>
			<point x="125.2" y="188"/>
			<point x="133.3" y="184"/>
			<point x="149.9" y="186" type="curve" smooth="yes"/>
			<point x="294.7" y="211.2"/>
			<point x="421.2" y="308.7"/>
			<point x="504.2" y="472" type="curve" smooth="yes"/>
			<point x="513.1" y="488.9"/>
			<point x="516.7" y="498.6"/>
			<point x="516.7" y="506.8" type="curve" smooth="yes"/>
			<point x="516.7" y="523.3"/>
			<point x="496.7" y="538"/>
			<point x="455" y="538" type="curve" smooth="yes"/>
		</contour>
		<contour>
			<point x="517.3" y="-10" type="curve" smooth="yes"/>
			<point x="533.9" y="-10"/>
			<point x="548.7" y="-7.2"/>
			<point x="559.7" y="-1.3" type="curve"/>
			<point x="468.7" y="83.9"/>
			<point x="387.2" y="186.3"/>
			<point x="322.6" y="296.2" type="curve"/>
			<point x="286" y="288"/>
			<point x="255.2" y="265.9"/>
			<point x="269.2" y="239.7" type="curve" smooth="yes"/>
			<point x="312.9" y="160.4"/>
			<point x="384.9" y="67.4"/>
			<point x="432.1" y="20.2" type="curve" smooth="yes"/>
			<point x="454.8" y="-2.5"/>
			<point x="478.5" y="-10"/>
		</contour>
	</outline>
	<anchor name="bottom" x="319.2" y="-1"/>
</glyph>
<glyph name="l" format="2">
	<unicode hex="006C"/>
	<advance width="600"/>
	<outline>
		<contour>
			<point x="76.2" y="750" type="curve"/>
			<point x="73.3" y="741.7"/>
			<point x="71.4" y="730.3"/>
			<point x="71.4" y="718.5" type="curve" smooth="yes"/>
			<point x="71.4" y="685.1"/>
			<point x="85.8" y="667.1"/>
			<point x="106.5" y="667.1" type="curve" smooth="yes"/>
			<point x="129.5" y="667.1"/>
			<point x="192.9" y="685"/>
			<point x="306.6" y="705.1" type="curve"/>
			<point x="307.8" y="741.4"/>
			<point x="302" y="760"/>
			<point x="279.5" y="760" type="curve" smooth="yes"/>
			<point x="224.1" y="760"/>
			<point x="151.7" y="756.4"/>
		</contour>
		<contour>
			<point x="289.5" y="760" type="curve" smooth="yes"/>
			<point x="279.5" y="760" type="line"/>
			<point x="279.5" y="559.5339893048"/>
			<point x="279.5" y="360.6660106952"/>
			<point x="279.5" y="160.2" type="curve"/>
			<point x="279.5" y="92.7"/>
			<point x="303.6" y="61.7"/>
			<point x="359.5" y="61.7" type="curve"/>
			<point x="359.5" y="278.5867368421"/>
			<point x="359.5" y="493.4132631579"/>
			<point x="359.5" y="710.3" type="curve" smooth="yes"/>
			<point x="359.5" y="749.6"/>
			<point x="333.1" y="760"/>
		</contour>
		<contour>
			<point x="63.6" y="80" type="line"/>
			<point x="62.2" y="75.8"/>
			<point x="61.5" y="65.9"/>
			<point x="61.5" y="60.3" type="curve" smooth="yes"/>
			<point x="61.5" y="17.2"/>
			<point x="70.7" y="0"/>
			<point x="113.9" y="0" type="curve" smooth="yes"/>
			<point x="558.6" y="0" type="line"/>
			<point x="560.8" y="5.6"/>
			<point x="562.1" y="11.6"/>
			<point x="562.1" y="18.5" type="curve" smooth="yes"/>
			<point x="562.1" y="53.5"/>
			<point x="477.6" y="80"/>
			<point x="349" y="80" type="curve" smooth="yes"/>
		</contour>
		<contour>
			<point x="289.1" y="682.6" type="line"/>
			<point x="301.8" y="717.9" type="line"/>
			<point x="286.8" y="720.9" type="line"/>
			<point x="265.8" y="704.9" type="line"/>
		</contour>
		<contour>
			<point x="291.9" y="70.4" type="line"/>
			<point x="323.7" y="62.6" type="line"/>
			<point x="326.7" y="77.6" type="line"/>
			<point x="305.3" y="97.4" type="line"/>
		</contour>
	</outline>
	<anchor name="caronslovak" x="511.5" y="669.2"/>
	<anchor name="bottom" x="310.3" y="-1"/>
	<anchor name="top" x="314.8" y="739.3"/>
	<anchor name="dot" x="475.3" y="400"/>
</glyph>
<glyph name="n" format="2">
	<unicode hex="006E"/>
	<advance width="600"/>
	<outline>
		<contour>
			<point x="169.8" y="-3.5" type="curve"/>
			<point x="169.8" y="136.2"/>
			<point x="169.8" y="285.1"/>
			<point x="169.8" y="432" type="curve" smooth="yes"/>
			<point x="169.8" y="508.1"/>
			<point x="137.8" y="536.2"/>
			<point x="100.8" y="536.2" type="curve" smooth="yes"/>
			<point x="92.8" y="536.2"/>
			<point x="84.1" y="534.6"/>
			<point x="76.1" y="532.3" type="curve"/>
			<point x="86.6" y="506.2"/>
			<point x="89.8" y="484.5"/>
			<point x="89.8" y="441.7" type="curve"/>
			<point x="89.8" y="309.7"/>
			<point x="89.8" y="177.9"/>
			<point x="89.8" y="39.3" type="curve"/>
			<point x="89.8" y="10.2"/>
			<point x="109.6" y="-4.4"/>
			<point x="149.6" y="-4.4" type="curve" smooth="yes"/>
			<point x="156.2" y="-4.4"/>
			<point x="162.3" y="-4.4"/>
		</contour>
		<contour>
			<point x="388.5" y="541.5" type="curve" smooth="yes"/>
			<point x="297.4" y="541.5"/>
			<point x="211.6" y="448.8"/>
			<point x="165.3" y="328.4" type="curve" smooth="yes"/>
			<point x="149.8" y="280.2"/>
			<point x="149.9" y="245.9"/>
			<point x="156.9" y="200.4" type="curve"/>
			<point x="206.4" y="352.6"/>
			<point x="290.3" y="456.4"/>
			<point x="371.4" y="456.4" type="curve" smooth="yes"/>
			<point x="413.9" y="456.4"/>
			<point x="440" y="421.8"/>
			<point x="456.6" y="354.4" type="curve"/>
			<point x="494.3" y="355.8"/>
			<point x="508.7" y="374.2"/>
			<point x="508.7" y="393.1" type="curve" smooth="yes"/>
			<point x="508.7" y="468.7"/>
			<point x="461.2" y="541.5"/>
		</contour>
		<contour>
			<point x="524.8" y="0" type="curve"/>
			<point x="512.3" y="47.8"/>
			<point x="508.7" y="82.4"/>
			<point x="508.7" y="134.5" type="curve"/>
			<point x="508.7" y="220.7"/>
			<point x="508.7" y="306.9"/>
			<point x="508.7" y="393.1" type="curve"/>
			<point x="508.7" y="425"/>
			<point x="489.5" y="443.1"/>
			<point x="450.2" y="442.2" type="curve"/>
			<point x="430.3" y="298.7"/>
			<point x="422.5" y="232.4"/>
			<point x="422.5" y="129.7" type="curve" smooth="yes"/>
			<point x="422.5" y="24.1"/>
			<point x="453.2" y="-3.2"/>
			<point x="496.9" y="-3.2" type="curve" smooth="yes"/>
			<point x="506.7" y="-3.2"/>
			<point x="515.3" y="-1.9"/>
		</contour>
		<contour>
			<point x="162.2" y="355.8" type="line"/>
			<point x="131" y="285.7" type="line"/>
			<point x="154.3" y="283.4" type="line"/>
			<point x="185.4" y="355.8" type="line"/>
		</contour>
	</outline>
	<anchor name="top" x="300" y="541.2"/>
	<anchor name="bottom" x="300.9" y="-1"/>
	<anchor name="caronslovak" x="78.4" y="711"/>
</glyph>
<glyph name="p" format="2">
	<unicode hex="0070"/>
	<advance width="600"/>
	<outline>
		<contour>
			<point x="176.5" y="-214.5" type="curve"/>
			<point x="176.5" y="2.8585492228"/>
			<point x="176.5" y="214.1829015544"/>
			<point x="176.5" y="432.7" type="curve" smooth="yes"/>
			<point x="176.5" y="507.4"/>
			<point x="146.6" y="536.9"/>
			<point x="107.5" y="536.9" type="curve" smooth="yes"/>
			<point x="99.5" y="536.9"/>
			<point x="90.8" y="535.3"/>
			<point x="82.8" y="533" type="curve"/>
			<point x="93.3" y="506.9"/>
			<point x="96.5" y="485.2"/>
			<point x="96.5" y="442.4" type="curve"/>
			<point x="96.5" y="239.05"/>
			<point x="96.5" y="54.6169354839"/>
			<point x="96.5" y="-151.9" type="curve"/>
			<point x="96.5" y="-188.8"/>
			<point x="116.6" y="-215.4"/>
			<point x="156.9" y="-215.4" type="curve" smooth="yes"/>
			<point x="163.5" y="-215.4"/>
			<point x="169" y="-215.4"/>
		</contour>
		<contour>
			<point x="377.7" y="540.8" type="curve" smooth="yes"/>
			<point x="290.2" y="540.8"/>
			<point x="205.9" y="462.4"/>
			<point x="174.2" y="339.2" type="curve" smooth="yes"/>
			<point x="162.9" y="296.1"/>
			<point x="159" y="263.7"/>
			<point x="168.3" y="242.4" type="curve"/>
			<point x="230.3" y="402.5"/>
			<point x="297.3" y="457.5"/>
			<point x="375.5" y="457.5" type="curve" smooth="yes"/>
			<point x="425.4" y="457.5"/>
			<point x="469.7" y="409.9"/>
			<point x="506.4" y="318.3" type="curve"/>
			<point x="524.7" y="319.5"/>
			<point x="535.5" y="327"/>
			<point x="535.5" y="334.9" type="curve" smooth="yes"/>
			<point x="535.5" y="457.4"/>
			<point x="470.4" y="540.8"/>
		</contour>
		<contour>
			<point x="319.9" y="-10.6" type="curve" smooth="yes"/>
			<point x="445.5" y="-10.6"/>
			<point x="535.5" y="87.8"/>
			<point x="535.5" y="316.4" type="curve" smooth="yes"/>
			<point x="535.5" y="334.9" type="line" smooth="yes"/>
			<point x="535.5" y="388.3"/>
			<point x="499.8" y="469.8"/>
			<point x="454.1" y="469.8" type="curve"/>
			<point x="439.7" y="469.8"/>
			<point x="429.6" y="464.3"/>
			<point x="428.2" y="448" type="curve"/>
			<point x="450.4" y="407.6"/>
			<point x="454" y="371.7"/>
			<point x="454" y="319.8" type="curve" smooth="yes"/>
			<point x="454" y="310.2" type="line" smooth="yes"/>
			<point x="454" y="150.4"/>
			<point x="406.8" y="67.6"/>
			<point x="307.6" y="67.6" type="curve" smooth="yes"/>
			<point x="245" y="67.6"/>
			<point x="210.8" y="92.1"/>
			<point x="166.5" y="141.2" type="curve"/>
			<point x="158.4" y="132.2"/>
			<point x="160.7" y="116.8"/>
			<point x="164.6" y="100.6" type="curve"/>
			<point x="178.2" y="57.7"/>
			<point x="238.6" y="-10.6"/>
		</contour>
		<contour>
			<point x="168.4" y="373.1" type="line"/>
			<point x="147.6" y="296.7" type="line"/>
			<point x="170.3" y="294.4" type="line"/>
			<point x="193.7" y="373.1" type="line"/>
		</contour>
		<contour>
			<point x="166.6" y="64.5" type="line"/>
			<point x="189.6" y="64.5" type="line"/>
			<point x="160.8" y="136.4" type="line"/>
			<point x="139.5" y="133.4" type="line"/>
		</contour>
	</outline>
</glyph>
<glyph name="q" format="2">
	<unicode hex="0071"/>
	<advance width="600"/>
	<outline>
		<contour>
			<point x="280.1" y="540.8" type="curve" smooth="yes"/>
			<point x="154.5" y="540.8"/>
			<point x="64.5" y="442.4"/>
			<point x="64.5" y="213.8" type="curve" smooth="yes"/>
			<point x="64.5" y="195.3" type="line" smooth="yes"/>
			<point x="64.5" y="125.1586206897"/>
			<point x="130.8" y="46.9"/>
			<point x="166.1" y="74.1" type="curve"/>
			<point x="149.6" y="122.6"/>
			<point x="146" y="158.5"/>
			<point x="146" y="210.4" type="curve" smooth="yes"/>
			<point x="146" y="220" type="line" smooth="yes"/>
			<point x="146" y="379.8"/>
			<point x="193.2" y="462.6"/>
			<point x="292.4" y="462.6" type="curve" smooth="yes"/>
			<point x="351.5" y="462.6"/>
			<point x="387.8" y="443"/>
			<point x="433.5" y="389" type="curve"/>
			<point x="441.6" y="398"/>
			<point x="439.3" y="410.6"/>
			<point x="435.4" y="426.8" type="curve"/>
			<point x="424.6" y="487.2"/>
			<point x="355.8" y="540.8"/>
		</contour>
		<contour>
			<point x="222.3" y="-10.6" type="curve" smooth="yes"/>
			<point x="309.8" y="-10.6"/>
			<point x="394.1" y="74.1"/>
			<point x="429.3" y="184.7" type="curve" smooth="yes"/>
			<point x="441.3" y="223.6"/>
			<point x="443.8" y="260.2"/>
			<point x="431.7" y="287.8" type="curve"/>
			<point x="370.4" y="127.7"/>
			<point x="302.7" y="72.7"/>
			<point x="224.5" y="72.7" type="curve" smooth="yes"/>
			<point x="169" y="72.7"/>
			<point x="127.5" y="112.6"/>
			<point x="97.1" y="211.9" type="curve"/>
			<point x="75.3" y="210.7"/>
			<point x="64.5" y="203.2"/>
			<point x="64.5" y="195.3" type="curve" smooth="yes"/>
			<point x="64.5" y="72.8"/>
			<point x="129.6" y="-10.6"/>
		</contour>
		<contour>
			<point x="511.2" y="-211.1" type="curve"/>
			<point x="504.9" y="-181.1"/>
			<point x="503.5" y="-161.2"/>
			<point x="503.5" y="-117.8" type="curve" smooth="yes"/>
			<point x="503.5" y="71.4"/>
			<point x="503.5" y="259.2"/>
			<point x="503.5" y="450.5" type="curve" smooth="yes"/>
			<point x="503.5" y="512.8"/>
			<point x="481.7" y="534.1"/>
			<point x="454.5" y="534.1" type="curve" smooth="yes"/>
			<point x="446.6" y="534.1"/>
			<point x="439.2" y="533.1"/>
			<point x="431.6" y="531.1" type="curve"/>
			<point x="425.8" y="506"/>
			<point x="423.5" y="482.7"/>
			<point x="423.5" y="437.2" type="curve" smooth="yes"/>
			<point x="423.5" y="246.6"/>
			<point x="423.5" y="78.3"/>
			<point x="423.5" y="-115.6" type="curve" smooth="yes"/>
			<point x="423.5" y="-175.6"/>
			<point x="445.7" y="-214.1"/>
			<point x="487.4" y="-214.1" type="curve" smooth="yes"/>
			<point x="495.4" y="-214.1"/>
			<point x="502.3" y="-213.4"/>
		</contour>
		<contour>
			<point x="430.6" y="469.9" type="line"/>
			<point x="408.3" y="469.9" type="line"/>
			<point x="438.5" y="398.7" type="line"/>
			<point x="461.2" y="401" type="line"/>
		</contour>
		<contour>
			<point x="430.9" y="151.5" type="line"/>
			<point x="461.5" y="222.3" type="line"/>
			<point x="438.8" y="224.6" type="line"/>
			<point x="407.7" y="151.5" type="line"/>
		</contour>
	</outline>
</glyph>
<glyph name="r" format="2">
	<unicode hex="0072"/>
	<advance width="600"/>
	<outline>
		<contour>
			<point x="63.5" y="530.2" type="curve"/>
			<point x="60.6" y="521.9"/>
			<point x="58.7" y="510.5"/>
			<point x="58.7" y="498.7" type="curve" smooth="yes"/>
			<point x="58.7" y="465.3"/>
			<point x="73.1" y="445.8"/>
			<point x="91.7" y="445.8" type="curve" smooth="yes"/>
			<point x="109" y="445.8"/>
			<point x="154.1" y="464.3"/>
			<point x="226.8" y="498.8" type="curve"/>
			<point x="226.5" y="522.9"/>
			<point x="219.6" y="540.2"/>
			<point x="201.5" y="540.2" type="curve" smooth="yes"/>
			<point x="163.8" y="540.2"/>
			<point x="114.0225359365" y="536.7684699928"/>
		</contour>
		<contour>
			<point x="201.5" y="160.2" type="curve"/>
			<point x="201.5" y="92.7"/>
			<point x="225.6" y="61.7"/>
			<point x="281.5" y="61.7" type="curve"/>
			<point x="281.5" y="188.3"/>
			<point x="281.5" y="313.4"/>
			<point x="281.5" y="440.8" type="curve" smooth="yes"/>
			<point x="281.5" y="508.6"/>
			<point x="256.51" y="540.2"/>
			<point x="207.3" y="540.2" type="curve" smooth="yes"/>
			<point x="201.5" y="540.2" type="line"/>
			<point x="201.5" y="413.2"/>
			<point x="201.5" y="287.2"/>
		</contour>
		<contour>
			<point x="59.1" y="80" type="line"/>
			<point x="57.7" y="74"/>
			<point x="57" y="68"/>
			<point x="57" y="60.3" type="curve" smooth="yes"/>
			<point x="57" y="17.2"/>
			<point x="66.2" y="0"/>
			<point x="109.4" y="0" type="curve" smooth="yes"/>
			<point x="482.5" y="0" type="line"/>
			<point x="484.7" y="5.6"/>
			<point x="486" y="11.6"/>
			<point x="486" y="18.5" type="curve" smooth="yes"/>
			<point x="486" y="53.5"/>
			<point x="404.1" y="80"/>
			<point x="285" y="80" type="curve" smooth="yes"/>
		</contour>
		<contour>
			<point x="274.5" y="210.5" type="curve"/>
			<point x="324.1" y="386.5"/>
			<point x="392.1" y="452.6"/>
			<point x="471.2" y="452.6" type="curve" smooth="yes"/>
			<point x="501.2" y="452.6"/>
			<point x="519.1109620222" y="446.8512303822"/>
			<point x="541.7" y="435.5" type="curve"/>
			<point x="547.7" y="435.5" type="line"/>
			<point x="552.6" y="449.9"/>
			<point x="555.2" y="466.3"/>
			<point x="555.2" y="484.6" type="curve"/>
			<point x="555.2" y="528.8"/>
			<point x="536" y="546"/>
			<point x="491.2" y="546" type="curve" smooth="yes"/>
			<point x="488.5" y="546" type="line" smooth="yes"/>
			<point x="395" y="546"/>
			<point x="317.8" y="473.6"/>
			<point x="278.9" y="323.9" type="curve" smooth="yes"/>
			<point x="268.3" y="284.9"/>
			<point x="260.2" y="254.8"/>
		</contour>
		<contour>
			<point x="211.4" y="463.1" type="line"/>
			<point x="223.8" y="496.6" type="line"/>
			<point x="208.8" y="499.6" type="line"/>
			<point x="187.5" y="482.7" type="line"/>
		</contour>
		<contour>
			<point x="273.5" y="356.4" type="line"/>
			<point x="249.9" y="280" type="line"/>
			<point x="270.5" y="267.9" type="line"/>
			<point x="297.4" y="356.4" type="line"/>
		</contour>
		<contour>
			<point x="214.2" y="70.4" type="line"/>
			<point x="245.7" y="62.6" type="line"/>
			<point x="248.7" y="77.6" type="line"/>
			<point x="228.2" y="97.4" type="line"/>
		</contour>
	</outline>
	<anchor name="top" x="305.2" y="541.2"/>
	<anchor name="bottom" x="305.2" y="-1"/>
</glyph>
<glyph name="s" format="2">
	<unicode hex="0073"/>
	<advance width="600"/>
	<outline>
		<contour>
			<point x="360.9" y="542.9" type="curve" smooth="yes"/>
			<point x="218.7" y="542.9"/>
			<point x="99.5" y="465.9"/>
			<point x="99.5" y="365.1" type="curve" smooth="yes"/>
			<point x="99.5" y="326.7"/>
			<point x="153.1" y="316.8"/>
			<point x="188.9" y="316.8" type="curve"/>
			<point x="181.0804912561" y="338.452712486"/>
			<point x="179.5" y="352.7"/>
			<point x="179.5" y="366.8" type="curve" smooth="yes"/>
			<point x="179.5" y="418.8"/>
			<point x="257.9989189189" y="462.9"/>
			<point x="357.6" y="462.9" type="curve" smooth="yes"/>
			<point x="419.95" y="462.9"/>
			<point x="456.0138640961" y="454.8376220947"/>
			<point x="485.3" y="438.5" type="curve"/>
			<point x="489.9" y="438.5" type="line"/>
			<point x="492.2" y="445.9"/>
			<point x="493.5" y="453.3"/>
			<point x="493.5" y="461.4" type="curve" smooth="yes"/>
			<point x="493.5" y="488.6"/>
			<point x="490.6" y="505"/>
			<point x="475.2" y="520.4" type="curve" smooth="yes"/>
			<point x="460.0654767039" y="535.5345232961"/>
			<point x="421.176923077" y="542.9"/>
		</contour>
		<contour>
			<point x="374.8" y="276.4" type="curve" smooth="yes"/>
			<point x="282.2" y="294.3" type="line" smooth="yes"/>
			<point x="192.0366023737" y="311.7411484311"/>
			<point x="179.5" y="340.35"/>
			<point x="179.5" y="366.8" type="curve" smooth="yes"/>
			<point x="179.5" y="378.238028169"/>
			<point x="180.1529464479" y="397.2529528489"/>
			<point x="188.8" y="420.4" type="curve"/>
			<point x="133.6" y="408"/>
			<point x="99.5" y="391.1"/>
			<point x="99.5" y="365.1" type="curve"/>
			<point x="99.5" y="301.1993006993"/>
			<point x="138.0064225796" y="262.505401641"/>
			<point x="245.9" y="240.5" type="curve" smooth="yes"/>
			<point x="345.8" y="219.8" type="line" smooth="yes"/>
			<point x="427.6354285125" y="203.5822709497"/>
			<point x="447.2" y="174.3631578947"/>
			<point x="447.2" y="125.6" type="curve" smooth="yes"/>
			<point x="447.2" y="115.1"/>
			<point x="444.8" y="106"/>
			<point x="440.9" y="98.3" type="curve"/>
			<point x="490.3" y="102.5"/>
			<point x="517.8" y="129.2"/>
			<point x="517.8" y="148.6" type="curve"/>
			<point x="517.8" y="208.9357615894"/>
			<point x="476.8943807658" y="256.9714083477"/>
		</contour>
		<contour>
			<point x="300" y="69.4" type="curve" smooth="yes"/>
			<point x="192.7" y="69.4"/>
			<point x="147.4" y="81.3"/>
			<point x="83.4" y="127.9" type="curve"/>
			<point x="78.8" y="127.9" type="line"/>
			<point x="77.2" y="121.3"/>
			<point x="75.9" y="113"/>
			<point x="75.9" y="100.5" type="curve" smooth="yes"/>
			<point x="75.9" y="71.4"/>
			<point x="80.9" y="49.6"/>
			<point x="95.9" y="34.6" type="curve" smooth="yes"/>
			<point x="121.2" y="8.6"/>
			<point x="194.1" y="-10.6"/>
			<point x="292.9" y="-10.6" type="curve" smooth="yes"/>
			<point x="438.8" y="-10.6"/>
			<point x="517.8" y="42.7"/>
			<point x="517.8" y="148.6" type="curve"/>
			<point x="517.8" y="175.5"/>
			<point x="498.2" y="183"/>
			<point x="467.9" y="186.6" type="curve"/>
			<point x="469.4" y="176.4"/>
			<point x="469.4" y="170.6"/>
			<point x="469.4" y="165.5" type="curve" smooth="yes"/>
			<point x="469.4" y="115.18"/>
			<point x="414.1" y="69.4"/>
		</contour>
	</outline>
	<anchor name="top" x="315.2" y="541.2"/>
	<anchor name="bottom" x="314" y="-1"/>
</glyph>
<glyph name="t" format="2">
	<unicode hex="0074"/>
	<advance width="600"/>
	<outline>
		<contour>
			<point x="181.6" y="700" type="curve"/>
			<point x="189.5" y="676.7"/>
			<point x="192.5" y="646.7"/>
			<point x="192.5" y="609.4" type="curve"/>
			<point x="192.5" y="456.5"/>
			<point x="192.5" y="302.6"/>
			<point x="192.5" y="149.7" type="curve" smooth="yes"/>
			<point x="192.5" y="69.9"/>
			<point x="257.5" y="6.9"/>
			<point x="310.6" y="24.2" type="curve"/>
			<point x="281.1" y="63.8"/>
			<point x="272.5" y="100.5"/>
			<point x="272.5" y="165.9" type="curve" smooth="yes"/>
			<point x="272.5" y="329.5"/>
			<point x="272.5" y="494.8"/>
			<point x="272.5" y="624.8" type="curve"/>
			<point x="272.5" y="682.2"/>
			<point x="247.3" y="705.1"/>
			<point x="215.9" y="705.1" type="curve" smooth="yes"/>
			<point x="205.5" y="705.1"/>
			<point x="194.4" y="703.2"/>
		</contour>
		<contour>
			<point x="529.9" y="120.1" type="curve"/>
			<point x="525.3" y="120.1" type="line"/>
			<point x="469.5641602639" y="76.4708142315"/>
			<point x="431.7401273885" y="62.4"/>
			<point x="364" y="62.4" type="curve" smooth="yes"/>
			<point x="299.3" y="62.4"/>
			<point x="256.7" y="85.6"/>
			<point x="219.9" y="160.9" type="curve"/>
			<point x="200.3" y="167.2"/>
			<point x="192.5" y="163.4"/>
			<point x="192.5" y="149.7" type="curve" smooth="yes"/>
			<point x="192.5" y="52.7"/>
			<point x="259" y="-17.6"/>
			<point x="366.9" y="-17.6" type="curve" smooth="yes"/>
			<point x="434.6" y="-17.6"/>
			<point x="481.4" y="2.6"/>
			<point x="506.8" y="28" type="curve" smooth="yes"/>
			<point x="524.1" y="45.3"/>
			<point x="531.1" y="68.1"/>
			<point x="531.1" y="97.5" type="curve" smooth="yes"/>
			<point x="531.1" y="104.6"/>
			<point x="530.8" y="112.7"/>
		</contour>
		<contour>
			<point x="56.6" y="530.2" type="line"/>
			<point x="55.3" y="526"/>
			<point x="54.3" y="520.2"/>
			<point x="54.3" y="513" type="curve" smooth="yes"/>
			<point x="54.3" y="471.5"/>
			<point x="81.5" y="450.2"/>
			<point x="165.2" y="450.2" type="curve"/>
			<point x="531" y="450.2" type="line"/>
			<point x="532.2" y="457.4"/>
			<point x="533.1" y="467.1"/>
			<point x="533.1" y="476.1" type="curve" smooth="yes"/>
			<point x="533.1" y="513.4"/>
			<point x="520.3" y="530.2"/>
			<point x="490.9" y="530.2" type="curve"/>
		</contour>
	</outline>
	<anchor name="bottom" x="362" y="-1"/>
	<anchor name="caronslovak" x="445.5" y="700"/>
</glyph>
<glyph name="v" format="2">
	<unicode hex="0076"/>
	<advance width="600"/>
	<outline>
		<contour>
			<point x="475.9" y="535.7" type="curve"/>
			<point x="465.1" y="535.7"/>
			<point x="454.7" y="534.4"/>
			<point x="446" y="531.6" type="curve"/>
			<point x="431.9" y="270.4"/>
			<point x="390.9" y="145.6"/>
			<point x="282.2" y="40.9" type="curve" smooth="yes"/>
			<point x="265.4" y="23.7"/>
			<point x="275.9" y="-10"/>
			<point x="303.7" y="-10" type="curve" smooth="yes"/>
			<point x="335.3" y="-10" type="line"/>
			<point x="452.4" y="83.4"/>
			<point x="507.5" y="238.1"/>
			<point x="527.9" y="484" type="curve" smooth="yes"/>
			<point x="531.1" y="518.2"/>
			<point x="513.6" y="535.7"/>
		</contour>
		<contour>
			<point x="95.7" y="535.7" type="curve"/>
			<point x="86.4" y="535.7"/>
			<point x="74.8" y="534.1"/>
			<point x="67.6" y="531.6" type="curve"/>
			<point x="90.2" y="266.9"/>
			<point x="136.8" y="119.9"/>
			<point x="235.8" y="20.9" type="curve" smooth="yes"/>
			<point x="259.6" y="-2.9"/>
			<point x="279.4" y="-10"/>
			<point x="300.7" y="-10" type="curve" smooth="yes"/>
			<point x="308.2" y="-10" type="line" smooth="yes"/>
			<point x="331.0904761905" y="-10"/>
			<point x="339.5" y="1.7"/>
			<point x="351.4" y="27.9" type="curve"/>
			<point x="342.3" y="27.9"/>
			<point x="333.7" y="27.9"/>
			<point x="329.5" y="27.9" type="curve" smooth="yes"/>
			<point x="323.6" y="27.9"/>
			<point x="316.1" y="29.6"/>
			<point x="310.1" y="35.6" type="curve" smooth="yes"/>
			<point x="209.3" y="130.1"/>
			<point x="173.3" y="254"/>
			<point x="154.1" y="498.7" type="curve" smooth="yes"/>
			<point x="151.9" y="527.3"/>
			<point x="129.5" y="535.7"/>
		</contour>
		<contour>
			<point x="274" y="25.4" type="line"/>
			<point x="317" y="25.4" type="line"/>
			<point x="317" y="59.4" type="line"/>
			<point x="274" y="59.4" type="line"/>
		</contour>
	</outline>
</glyph>
<glyph name="w" format="2">
	<unicode hex="0077"/>
	<advance width="600"/>
	<outline>
		<contour>
			<point x="56.2" y="538.5" type="curve"/>
			<point x="56.2" y="208.7"/>
			<point x="80.1537443144" y="81.0462556856"/>
			<point x="154.1" y="7.1" type="curve" smooth="yes"/>
			<point x="165.3" y="-4.1"/>
			<point x="176.2" y="-10"/>
			<point x="191" y="-10" type="curve" smooth="yes"/>
			<point x="202.8" y="-10"/>
			<point x="213.5" y="17.9"/>
			<point x="213.5" y="40.5" type="curve"/>
			<point x="150.7665055632" y="104.3092419346"/>
			<point x="132.8" y="191.2"/>
			<point x="132.8" y="498.5" type="curve" smooth="yes"/>
			<point x="132.8" y="525.9"/>
			<point x="113.8" y="540.8"/>
			<point x="74.8" y="540.8" type="curve"/>
			<point x="67.3" y="540.8"/>
			<point x="60.7" y="539.8"/>
		</contour>
		<contour>
			<point x="284.4" y="442.5" type="curve" smooth="yes"/>
			<point x="271.7" y="442.5" type="line"/>
			<point x="271.7" y="256.1"/>
			<point x="240.1" y="130.9"/>
			<point x="168.5" y="27" type="curve"/>
			<point x="169.5" y="7.5"/>
			<point x="177.4" y="-10"/>
			<point x="191" y="-10" type="curve" smooth="yes"/>
			<point x="201" y="-10"/>
			<point x="208" y="-9"/>
			<point x="214.7" y="-6" type="curve"/>
			<point x="280.3" y="90.7"/>
			<point x="307.4" y="238"/>
			<point x="318.6" y="405.1" type="curve" smooth="yes"/>
			<point x="320" y="431.1"/>
			<point x="307.1" y="442.5"/>
		</contour>
		<contour>
			<point x="284.4" y="442.5" type="curve" smooth="yes"/>
			<point x="279.4" y="442.5" type="line"/>
			<point x="286.4" y="265.9"/>
			<point x="312.9" y="99.5"/>
			<point x="384.4" y="5.2" type="curve" smooth="yes"/>
			<point x="393" y="-6.1"/>
			<point x="401.8" y="-10"/>
			<point x="417.7" y="-10" type="curve"/>
			<point x="438.9" y="-10"/>
			<point x="441.1" y="10"/>
			<point x="441.1" y="30.4" type="curve"/>
			<point x="375.5" y="93"/>
			<point x="330.1" y="240.1"/>
			<point x="330.1" y="407.2" type="curve"/>
			<point x="330.1" y="429.5"/>
			<point x="319.2" y="442.5"/>
		</contour>
		<contour>
			<point x="469.1" y="538.5" type="curve"/>
			<point x="469.1" y="189.4"/>
			<point x="448.2" y="129"/>
			<point x="390.3" y="28.1" type="curve"/>
			<point x="390.9" y="6.2"/>
			<point x="404.2" y="-10"/>
			<point x="417.7" y="-10" type="curve" smooth="yes"/>
			<point x="429.9" y="-10"/>
			<point x="436.279338007" y="-8.8419987254"/>
			<point x="445.8" y="-6.3" type="curve"/>
			<point x="517" y="107.4"/>
			<point x="542.9" y="222.1"/>
			<point x="542.9" y="495.5" type="curve" smooth="yes"/>
			<point x="542.9" y="527.3"/>
			<point x="520.3" y="540.8"/>
			<point x="488" y="540.8" type="curve"/>
			<point x="480.2" y="540.8"/>
			<point x="473.6" y="539.8"/>
		</contour>
		<contour>
			<point x="286.3" y="227.8" type="line"/>
			<point x="313.5" y="227.8" type="line"/>
			<point x="313.5" y="289.1" type="line"/>
			<point x="286.3" y="289.1" type="line"/>
		</contour>
		<contour>
			<point x="179.3" y="23.7" type="line"/>
			<point x="206.5" y="23.7" type="line"/>
			<point x="206.5" y="71" type="line"/>
			<point x="179.3" y="71" type="line"/>
		</contour>
		<contour>
			<point x="396.8" y="23.7" type="line"/>
			<point x="424" y="23.7" type="line"/>
			<point x="424" y="71" type="line"/>
			<point x="396.8" y="71" type="line"/>
		</contour>
	</outline>
	<anchor name="top" x="299.4" y="541.2"/>
</glyph>
<glyph name="x" format="2">
	<unicode hex="0078"/>
	<advance width="600"/>
	<outline>
		<contour>
			<point x="491.4" y="-10" type="curve" smooth="yes"/>
			<point x="518.4" y="-10"/>
			<point x="532.6" y="-6.5"/>
			<point x="549.2" y="5.4" type="curve"/>
			<point x="471.2740263225" y="72.7856788702"/>
			<point x="399.8534897459" y="147.0266827432"/>
			<point x="338.1" y="225.1" type="curve" smooth="yes"/>
			<point x="330.4" y="235.9"/>
			<point x="322.7" y="246.7"/>
			<point x="315" y="257.5" type="curve" smooth="yes"/>
			<point x="256.1959940615" y="334.5272929449"/>
			<point x="205.5829025955" y="418.1358512128"/>
			<point x="164.1" y="509.9" type="curve" smooth="yes"/>
			<point x="155.6" y="528.2"/>
			<point x="134.2" y="535.3"/>
			<point x="102.3" y="535.3" type="curve" smooth="yes"/>
			<point x="84.3" y="535.3"/>
			<point x="70.2" y="533.7"/>
			<point x="56.4" y="530.8" type="curve"/>
			<point x="112.3723427995" y="408.1450926797"/>
			<point x="183.8346103123" y="295.0469147799"/>
			<point x="262.5" y="194.6" type="curve" smooth="yes"/>
			<point x="271.2" y="183.7"/>
			<point x="279.9" y="172.8"/>
			<point x="288.2" y="161.9" type="curve" smooth="yes"/>
			<point x="332.8257607726" y="109.7220965269"/>
			<point x="381.1328005086" y="58.7196565616"/>
			<point x="429.1" y="14.4" type="curve" smooth="yes"/>
			<point x="445" y="-2.3"/>
			<point x="462.7" y="-10"/>
		</contour>
		<contour>
			<point x="471.4" y="536.6" type="curve" smooth="yes"/>
			<point x="458.6" y="536.6" type="line"/>
			<point x="411.4803363276" y="424.7385438573"/>
			<point x="354.6273902387" y="336.1953341402"/>
			<point x="291.7" y="257.9" type="curve" smooth="yes"/>
			<point x="282.3" y="247"/>
			<point x="272.9" y="235.4"/>
			<point x="262.9" y="223.8" type="curve" smooth="yes"/>
			<point x="209.1256124491" y="162.6906903972"/>
			<point x="151.2049408381" y="104.4804702903"/>
			<point x="80.7" y="46.2" type="curve" smooth="yes"/>
			<point x="66.9" y="35.2"/>
			<point x="64.6" y="29.7"/>
			<point x="64.6" y="22.4" type="curve" smooth="yes"/>
			<point x="64.6" y="4.2"/>
			<point x="95.4" y="-10"/>
			<point x="133.4" y="-10" type="curve" smooth="yes"/>
			<point x="138.7" y="-10" type="line"/>
			<point x="199.384032116" y="43.5602860365"/>
			<point x="255.8102912405" y="101.3759190148"/>
			<point x="310" y="161.7" type="curve" smooth="yes"/>
			<point x="320" y="172.3"/>
			<point x="329.7" y="183.6"/>
			<point x="338.4" y="193.9" type="curve" smooth="yes"/>
			<point x="414.8216754469" y="284.3935189385"/>
			<point x="479.1766821525" y="377.7187619045"/>
			<point x="528.8" y="489" type="curve" smooth="yes"/>
			<point x="532.4" y="497.5"/>
			<point x="533.7" y="502.6"/>
			<point x="533.7" y="509.5" type="curve" smooth="yes"/>
			<point x="533.7" y="528"/>
			<point x="511.1" y="536.6"/>
		</contour>
	</outline>
</glyph>
<glyph name="y" format="2">
	<unicode hex="0079"/>
	<advance width="600"/>
	<outline>
		<contour>
			<point x="481.9" y="534.7" type="curve" smooth="yes"/>
			<point x="472.6" y="534.7"/>
			<point x="463.7" y="533.4"/>
			<point x="453.1" y="530.2" type="curve"/>
			<point x="429" y="169.6"/>
			<point x="362" y="-10.5"/>
			<point x="272.7" y="-99.8" type="curve" smooth="yes"/>
			<point x="223.4" y="-149.1"/>
			<point x="163.588" y="-173.8"/>
			<point x="105.2" y="-173.8" type="curve" smooth="yes"/>
			<point x="87.2" y="-173.8" type="line"/>
			<point x="87.2" y="-177.1" type="line"/>
			<point x="87.2" y="-220.9"/>
			<point x="102.8" y="-250"/>
			<point x="130.9" y="-250" type="curve" smooth="yes"/>
			<point x="135" y="-250" type="line" smooth="yes"/>
			<point x="199.1606741573" y="-250"/>
			<point x="259.3" y="-218.1"/>
			<point x="314.3" y="-163.1" type="curve" smooth="yes"/>
			<point x="420.6" y="-56.8"/>
			<point x="504.5" y="149.3"/>
			<point x="536.4" y="487.4" type="curve" smooth="yes"/>
			<point x="539.3" y="522.1"/>
			<point x="519.5" y="534.7"/>
		</contour>
		<contour>
			<point x="86.8" y="534.4" type="curve" smooth="yes"/>
			<point x="76.9" y="534.4"/>
			<point x="68.3" y="533.1"/>
			<point x="59.7" y="530.2" type="curve"/>
			<point x="90.8" y="229.6"/>
			<point x="140.5" y="141.6"/>
			<point x="202.4" y="74.1" type="curve" smooth="yes"/>
			<point x="240.8" y="32.2"/>
			<point x="300.5" y="3"/>
			<point x="361.7" y="3" type="curve" smooth="yes"/>
			<point x="368.7" y="3" type="line" smooth="yes"/>
			<point x="386.7" y="3"/>
			<point x="390.6" y="2.8"/>
			<point x="395.1" y="41.3" type="curve"/>
			<point x="378.2" y="46.4" type="line" smooth="yes"/>
			<point x="323.2" y="52.7"/>
			<point x="281" y="88.1"/>
			<point x="259" y="116.9" type="curve" smooth="yes"/>
			<point x="199.9" y="191.4"/>
			<point x="167.7" y="318.5"/>
			<point x="152.8" y="482.5" type="curve" smooth="yes"/>
			<point x="149.1" y="525.9"/>
			<point x="127.3" y="534.4"/>
		</contour>
	</outline>
	<anchor name="top" x="300" y="541.2"/>
</glyph>
<glyph name="z" format="2">
	<unicode hex="007A"/>
	<advance width="600"/>
	<outline>
		<contour>
			<point x="78.1" y="530.2" type="line"/>
			<point x="76.9" y="524.5"/>
			<point x="76.6" y="517.8"/>
			<point x="76.6" y="511.2" type="curve"/>
			<point x="76.6" y="473.8551470588"/>
			<point x="85.5166666667" y="450.2"/>
			<point x="114.3" y="450.2" type="curve"/>
			<point x="335.8" y="450.2" type="line"/>
			<point x="392.9" y="450.2"/>
			<point x="458.5" y="458.8"/>
			<point x="520.6" y="462.3" type="curve"/>
			<point x="520.6" y="466.1" type="line" smooth="yes"/>
			<point x="520.6" y="493.4"/>
			<point x="511.5" y="508.3"/>
			<point x="498.2" y="521.6" type="curve" smooth="yes"/>
			<point x="492.2" y="527.6"/>
			<point x="485.8" y="530.2"/>
			<point x="475.1" y="530.2" type="curve"/>
		</contour>
		<contour>
			<point x="455" y="492.2" type="curve"/>
			<point x="380.8513378033" y="350.060265813"/>
			<point x="232.0537558044" y="184.2963269437"/>
			<point x="76.6" y="72.1" type="curve"/>
			<point x="76.6" y="43"/>
			<point x="116.2" y="44.1"/>
			<point x="150.3" y="61.1" type="curve" smooth="yes"/>
			<point x="336" y="178.6"/>
			<point x="520.6" y="424.2225806452"/>
			<point x="520.6" y="462.3" type="curve" smooth="yes"/>
			<point x="520.6" y="484"/>
			<point x="496.6" y="492.2"/>
		</contour>
		<contour>
			<point x="518.5" y="0" type="line"/>
			<point x="519.7" y="7.2"/>
			<point x="520.6" y="16.9"/>
			<point x="520.6" y="25.9" type="curve" smooth="yes"/>
			<point x="520.6" y="61.8"/>
			<point x="512" y="80"/>
			<point x="482" y="80" type="curve" smooth="yes"/>
			<point x="290.8" y="80" type="line"/>
			<point x="222.1545454545" y="80"/>
			<point x="150.0636363636" y="71.2"/>
			<point x="76.6" y="72.1" type="curve"/>
			<point x="76.6" y="65.5" type="line" smooth="yes"/>
			<point x="76.6" y="29.7288043478"/>
			<point x="84.2541666667" y="0"/>
			<point x="112.2" y="0" type="curve" smooth="yes"/>
		</contour>
		<contour>
			<point x="437.9" y="429.9" type="line"/>
			<point x="456.9" y="436.9" type="line"/>
			<point x="430.5" y="489.6" type="line"/>
			<point x="411.5" y="481.6" type="line"/>
		</contour>
		<contour>
			<point x="176.4" y="44.9" type="line"/>
			<point x="195.4" y="48.9" type="line"/>
			<point x="180.9" y="111.5" type="line"/>
			<point x="160.9" y="106.5" type="line"/>
		</contour>
	</outline>
	<anchor name="top" x="300" y="541.2"/>
</glyph>
<glyph name="bar" format="2">
	<unicode hex="007C"/>
	<advance width="600"/>
	<outline>
		<contour>
			<point x="249.7" y="759.4" type="curve"/>
			<point x="256.6" y="724.1"/>
			<point x="258.5" y="688.5"/>
			<point x="258.5" y="650.6" type="curve" smooth="yes"/>
			<point x="258.5" y="-125" type="line" smooth="yes"/>
			<point x="258.5" y="-151.1"/>
			<point x="283.4" y="-161.2"/>
			<point x="323.4" y="-161.2" type="curve" smooth="yes"/>
			<point x="330.6" y="-161.2"/>
			<point x="337" y="-160.9"/>
			<point x="341.5" y="-160.3" type="curve"/>
			<point x="341.5" y="700.6" type="line" smooth="yes"/>
			<point x="341.5" y="723.5"/>
			<point x="338.9" y="739.7"/>
			<point x="327.2" y="751.4" type="curve" smooth="yes"/>
			<point x="318.9" y="759.7"/>
			<point x="306.5" y="763.6"/>
			<point x="281.7" y="763.6" type="curve" smooth="yes"/>
			<point x="270" y="763.6"/>
			<point x="260.8" y="762.3"/>
		</contour>
	</outline>
</glyph>
<glyph name="asciitilde" format="2">
	<unicode hex="007E"/>
	<advance width="600"/>
	<outline>
		<contour>
			<point x="426" y="290" type="curve"/>
			<point x="336.2" y="290"/>
			<point x="258.3" y="397.5"/>
			<point x="167.5" y="397.5" type="curve" smooth="yes"/>
			<point x="114.5" y="397.5"/>
			<point x="80.7" y="373.7"/>
			<point x="64.4" y="342.3" type="curve" smooth="yes"/>
			<point x="58.1" y="329.9"/>
			<point x="54" y="314.4"/>
			<point x="54" y="291.2" type="curve" smooth="yes"/>
			<point x="54" y="278.8"/>
			<point x="56" y="264.1"/>
			<point x="60.9" y="254.5" type="curve"/>
			<point x="64.9" y="254.5" type="line"/>
			<point x="99.9" y="292.6"/>
			<point x="130.6" y="310"/>
			<point x="174" y="310" type="curve" smooth="yes"/>
			<point x="263.8" y="310"/>
			<point x="341.7" y="202.5"/>
			<point x="432.5" y="202.5" type="curve" smooth="yes"/>
			<point x="485.5" y="202.5"/>
			<point x="519.3" y="226.3"/>
			<point x="535.6" y="257.7" type="curve" smooth="yes"/>
			<point x="541.9" y="270.1"/>
			<point x="546" y="285.6"/>
			<point x="546" y="308.8" type="curve" smooth="yes"/>
			<point x="546" y="321.2"/>
			<point x="544" y="335.9"/>
			<point x="539.1" y="345.5" type="curve"/>
			<point x="535.1" y="345.5" type="line"/>
			<point x="500.1" y="307.4"/>
			<point x="469.4" y="290"/>
		</contour>
	</outline>
</glyph>
<glyph name="sterling" format="2">
	<unicode hex="00A3"/>
	<advance width="600"/>
	<outline>
		<contour>
			<point x="313.6" y="639.3" type="curve" smooth="yes"/>
			<point x="406.8" y="639.3"/>
			<point x="467.121096658" y="611.9175618474"/>
			<point x="514.2" y="548.6" type="curve"/>
			<point x="518.2" y="548.6" type="line"/>
			<point x="523.5" y="564.3"/>
			<point x="524.8" y="576.7"/>
			<point x="524.8" y="594.9" type="curve" smooth="yes"/>
			<point x="524.8" y="625.2102564103"/>
			<point x="520.0404512974" y="642.2595487026"/>
			<point x="498.9" y="663.4" type="curve" smooth="yes"/>
			<point x="468.2894284608" y="694.0105715393"/>
			<point x="402.2370967742" y="719.3"/>
			<point x="313.3" y="719.3" type="curve" smooth="yes"/>
			<point x="171.3" y="719.3"/>
			<point x="85.5" y="647"/>
			<point x="85.5" y="544.5" type="curve" smooth="yes"/>
			<point x="85.5" y="535.8" type="line" smooth="yes"/>
			<point x="85.5" y="500.9258893281"/>
			<point x="114.25" y="492.5"/>
			<point x="153.3" y="491" type="curve"/>
			<point x="153.3" y="584.68"/>
			<point x="201.511384096" y="639.3"/>
		</contour>
		<contour>
			<point x="85.5" y="535.8" type="curve" smooth="yes"/>
			<point x="85.5" y="403.9"/>
			<point x="192.1" y="299.9"/>
			<point x="192.1" y="167" type="curve" smooth="yes"/>
			<point x="192.1" y="100.2"/>
			<point x="156.3" y="66.5"/>
			<point x="93" y="66.5" type="curve" smooth="yes"/>
			<point x="76.3" y="66.5"/>
			<point x="65.2" y="67.9"/>
			<point x="54.1" y="75.6" type="curve"/>
			<point x="50.1" y="75.6" type="line"/>
			<point x="46.8" y="64.7"/>
			<point x="45.5" y="57.4"/>
			<point x="45.5" y="45.6" type="curve" smooth="yes"/>
			<point x="45.5" y="6.7"/>
			<point x="62.5" y="-14.4"/>
			<point x="105.5" y="-14.4" type="curve" smooth="yes"/>
			<point x="111.4" y="-14.4" type="line" smooth="yes"/>
			<point x="211" y="-14.4"/>
			<point x="266.8" y="55.8"/>
			<point x="266.8" y="157" type="curve" smooth="yes"/>
			<point x="266.8" y="296.1"/>
			<point x="165.1" y="405.4"/>
			<point x="165.1" y="540.3" type="curve" smooth="yes"/>
			<point x="165.1" y="567.3"/>
			<point x="169.2" y="591.8"/>
			<point x="183.7" y="619.4" type="curve"/>
			<point x="112.3" y="619.4"/>
			<point x="85.5" y="581.9"/>
		</contour>
		<contour>
			<point x="203.3" y="81.5" type="curve"/>
			<point x="293.1" y="17.4"/>
			<point x="365.8" y="-14.4"/>
			<point x="450.9" y="-14.4" type="curve" smooth="yes"/>
			<point x="460.1" y="-14.4" type="line" smooth="yes"/>
			<point x="526" y="-14.4"/>
			<point x="555" y="21.4"/>
			<point x="555" y="70.8" type="curve" smooth="yes"/>
			<point x="555" y="91.4"/>
			<point x="549.9" y="109"/>
			<point x="543.8" y="122" type="curve"/>
			<point x="539.8" y="122" type="line"/>
			<point x="520.3" y="83.8"/>
			<point x="495.2" y="68.9"/>
			<point x="444.5" y="68.9" type="curve" smooth="yes"/>
			<point x="373.1" y="68.9"/>
			<point x="307.2" y="92"/>
			<point x="223.4" y="139.7" type="curve" smooth="yes"/>
			<point x="207.6" y="131.2"/>
			<point x="197.6" y="105.5"/>
		</contour>
		<contour>
			<point x="50" y="365" type="line"/>
			<point x="50" y="361.1"/>
			<point x="50" y="356.5"/>
			<point x="50" y="352.3" type="curve" smooth="yes"/>
			<point x="50" y="323.4"/>
			<point x="54.5" y="305.5"/>
			<point x="65.5" y="294.5" type="curve" smooth="yes"/>
			<point x="72.1" y="287.9"/>
			<point x="80.9" y="285"/>
			<point x="98.2" y="285" type="curve" smooth="yes"/>
			<point x="447.5" y="285" type="line"/>
			<point x="448.7" y="293.4"/>
			<point x="449.6" y="303.1"/>
			<point x="449.6" y="310.9" type="curve" smooth="yes"/>
			<point x="449.6" y="346.1"/>
			<point x="441" y="365"/>
			<point x="411.6" y="365" type="curve" smooth="yes"/>
		</contour>
	</outline>
</glyph>
<glyph name="yen" format="2">
	<unicode hex="00A5"/>
	<advance width="600"/>
	<outline>
		<contour>
			<point x="29.5" y="395" type="line"/>
			<point x="29.5" y="391.1"/>
			<point x="29.5" y="386.5"/>
			<point x="29.5" y="382.3" type="curve" smooth="yes"/>
			<point x="29.5" y="356.7"/>
			<point x="34.6" y="340.9"/>
			<point x="45" y="330.5" type="curve" smooth="yes"/>
			<point x="51.6" y="323.9"/>
			<point x="60.4" y="321"/>
			<point x="77.7" y="321" type="curve" smooth="yes"/>
			<point x="198.5" y="321" type="line"/>
			<point x="199.7" y="329.4"/>
			<point x="200.6" y="339.1"/>
			<point x="200.6" y="346.9" type="curve" smooth="yes"/>
			<point x="200.6" y="377.3"/>
			<point x="192" y="395"/>
			<point x="162.6" y="395" type="curve" smooth="yes"/>
		</contour>
		<contour>
			<point x="388.9" y="395" type="line"/>
			<point x="382.9" y="383.1"/>
			<point x="378.9" y="372.7"/>
			<point x="378.9" y="357.5" type="curve" smooth="yes"/>
			<point x="378.9" y="338.8692307692"/>
			<point x="389.7363636364" y="321"/>
			<point x="411.5" y="321" type="curve" smooth="yes"/>
			<point x="568.4" y="321" type="line"/>
			<point x="569.6" y="329.4"/>
			<point x="570.5" y="339.1"/>
			<point x="570.5" y="346.9" type="curve" smooth="yes"/>
			<point x="570.5" y="377.3"/>
			<point x="561.9" y="395"/>
			<point x="532.5" y="395" type="curve" smooth="yes"/>
		</contour>
		<contour>
			<point x="566.6" y="119.5" type="line"/>
			<point x="567.2" y="124.3"/>
			<point x="567.5" y="130.7"/>
			<point x="567.5" y="136.1" type="curve" smooth="yes"/>
			<point x="567.5" y="159"/>
			<point x="562.4" y="173.6"/>
			<point x="552" y="184" type="curve" smooth="yes"/>
			<point x="545.4" y="190.6"/>
			<point x="536.6" y="193.5"/>
			<point x="519.3" y="193.5" type="curve" smooth="yes"/>
			<point x="34.6" y="193.5" type="line"/>
			<point x="33.4" y="185.1"/>
			<point x="32.5" y="175.4"/>
			<point x="32.5" y="167.6" type="curve" smooth="yes"/>
			<point x="32.5" y="136.9"/>
			<point x="41.1" y="119.5"/>
			<point x="70.5" y="119.5" type="curve" smooth="yes"/>
		</contour>
		<component base="Y"/>
	</outline>
</glyph>
<glyph name="ordmasculine" format="2">
	<unicode hex="00BA"/>
	<advance width="600"/>
	<outline>
		<contour>
			<point x="300.5" y="762.7" type="curve" smooth="yes"/>
			<point x="188.0370370371" y="762.7"/>
			<point x="103.5" y="664.7280334728"/>
			<point x="103.5" y="508.2" type="curve" smooth="yes"/>
			<point x="103.5" y="498.4" type="line" smooth="yes"/>
			<point x="103.5" y="358.6927038626"/>
			<point x="183.6703703704" y="283.9"/>
			<point x="297.8" y="283.9" type="curve" smooth="yes"/>
			<point x="322" y="283.9"/>
			<point x="331.4" y="304.3"/>
			<point x="331.4" y="324.1" type="curve"/>
			<point x="216.3568053763" y="335.6228329311"/>
			<point x="176" y="398.6414634146"/>
			<point x="176" y="496.2" type="curve" smooth="yes"/>
			<point x="176" y="502.8" type="line" smooth="yes"/>
			<point x="176" y="614.5814814815"/>
			<point x="216.1091549296" y="695.6"/>
			<point x="301.1" y="695.6" type="curve" smooth="yes"/>
			<point x="344.2" y="695.6"/>
			<point x="373.3" y="683.5"/>
			<point x="407.1" y="662.6" type="curve"/>
			<point x="444.5" y="687.7"/>
			<point x="376.6" y="762.7"/>
		</contour>
		<contour>
			<point x="297.8" y="283.9" type="curve" smooth="yes"/>
			<point x="417.3756218906" y="283.9"/>
			<point x="496.5" y="364.4576271187"/>
			<point x="496.5" y="499.9" type="curve" smooth="yes"/>
			<point x="496.5" y="509.7" type="line" smooth="yes"/>
			<point x="496.5" y="667.0050847458"/>
			<point x="410.8800995025" y="762.7"/>
			<point x="300.5" y="762.7" type="curve" smooth="yes"/>
			<point x="278.1" y="762.7"/>
			<point x="269.2" y="742.3"/>
			<point x="269.2" y="718.3" type="curve"/>
			<point x="369.8044631536" y="710.8104242109"/>
			<point x="423.1" y="641.7465346535"/>
			<point x="423.1" y="509.8" type="curve" smooth="yes"/>
			<point x="423.1" y="502.6" type="line" smooth="yes"/>
			<point x="423.1" y="411.4784946237"/>
			<point x="382.7909090909" y="351.9"/>
			<point x="294.5" y="351.9" type="curve" smooth="yes"/>
			<point x="256.2" y="351.9"/>
			<point x="229.5" y="366.6"/>
			<point x="197.9" y="386.5" type="curve"/>
			<point x="167.3" y="355.9"/>
			<point x="228" y="283.9"/>
		</contour>
	</outline>
	<guideline x="0" y="0" angle="0" identifier="PFs3LW0ZqI"/>
	<guideline x="0" y="0" angle="90" identifier="MLS7uD2D7y"/>
	<guideline x="50" y="0" angle="90" identifier="ytpzmlsJW8"/>
	<guideline x="100" y="0" angle="90" identifier="gPwbVuqhQx"/>
	<guideline x="150" y="0" angle="90" identifier="0x3cglH3fb"/>
	<guideline x="200" y="0" angle="90" identifier="7sQmWQ1siw"/>
	<guideline x="250" y="0" angle="90" identifier="5WhwDqW0HG"/>
	<guideline x="300" y="0" angle="90" identifier="68xHgrg5OE"/>
	<guideline x="350" y="0" angle="90" identifier="kQPxfNh0sl"/>
	<guideline x="400" y="0" angle="90" identifier="EoqTUW5kfA"/>
	<guideline x="450" y="0" angle="90" identifier="OWUZssPl1X"/>
	<guideline x="500" y="0" angle="90" identifier="bMRbpEkQGT"/>
	<guideline x="550" y="0" angle="90" identifier="bKObKiBPfn"/>
	<guideline x="600" y="0" angle="90" identifier="qxb4Uk4GmY"/>
	<guideline x="0" y="-250" angle="0" identifier="aX7yW0EQR3"/>
	<guideline x="0" y="-200" angle="0" identifier="2VvmTBjz1v"/>
	<guideline x="0" y="-150" angle="0" identifier="gBJp0xhUSN"/>
	<guideline x="0" y="-100" angle="0" identifier="8fp9vOvvSx"/>
	<guideline x="0" y="-50" angle="0" identifier="nU2TUkWrGF"/>
	<guideline x="0" y="50" angle="0" identifier="P3jy5bhwno"/>
	<guideline x="0" y="100" angle="0" identifier="1RxY9IKnDC"/>
	<guideline x="0" y="150" angle="0" identifier="7h88J2CN6W"/>
	<guideline x="0" y="200" angle="0" identifier="fycH2LgAUW"/>
	<guideline x="0" y="250" angle="0" identifier="xWkgl5M9oO"/>
	<guideline x="0" y="300" angle="0" identifier="iSSOBGhk6x"/>
	<guideline x="0" y="350" angle="0" identifier="gMoV90XHT7"/>
	<guideline x="0" y="400" angle="0" identifier="LOmnyna6x6"/>
	<guideline x="0" y="450" angle="0" identifier="81RSVUwnsa"/>
	<guideline x="0" y="500" angle="0" identifier="681AxmoRRL"/>
	<guideline x="0" y="550" angle="0" identifier="gKO68IYjRF"/>
	<guideline x="0" y="600" angle="0" identifier="94vbD0nuhd"/>
	<guideline x="0" y="650" angle="0" identifier="3me6syLoVU"/>
	<guideline x="0" y="700" angle="0" identifier="byDY7A0y09"/>
</glyph>
<glyph name="multiply" format="2">
	<unicode hex="00D7"/>
	<advance width="600"/>
	<outline>
		<contour>
			<point x="100.7" y="155.2" type="curve"/>
			<point x="103.3" y="152.6"/>
			<point x="106.6" y="149.3"/>
			<point x="109.5" y="146.4" type="curve" smooth="yes"/>
			<point x="129.8" y="126.1"/>
			<point x="145.5" y="117.4"/>
			<point x="160.7" y="117.4" type="curve" smooth="yes"/>
			<point x="169.8" y="117.4"/>
			<point x="177.1" y="120.3"/>
			<point x="190.4" y="132.1" type="curve" smooth="yes"/>
			<point x="298.3" y="223.2"/>
			<point x="403" y="325.9"/>
			<point x="501.4" y="443.3" type="curve"/>
			<point x="496.4" y="450.1"/>
			<point x="490.4" y="457.6"/>
			<point x="484.8" y="463.2" type="curve" smooth="yes"/>
			<point x="470" y="478.7"/>
			<point x="456.3" y="488.2"/>
			<point x="443.3" y="488.2" type="curve" smooth="yes"/>
			<point x="435" y="488.2"/>
			<point x="427.4" y="483.8"/>
			<point x="419.8" y="474.3" type="curve" smooth="yes"/>
			<point x="319.8" y="352.9"/>
			<point x="215.9" y="244.9"/>
		</contour>
		<contour>
			<point x="502.9" y="155.2" type="curve"/>
			<point x="386.3" y="250.2"/>
			<point x="280.6" y="358.2"/>
			<point x="183.8" y="474.3" type="curve" smooth="yes"/>
			<point x="176.2" y="483.8"/>
			<point x="168.6" y="488.2"/>
			<point x="160.3" y="488.2" type="curve" smooth="yes"/>
			<point x="147.3" y="488.2"/>
			<point x="133.6" y="478.4"/>
			<point x="118.8" y="463.2" type="curve" smooth="yes"/>
			<point x="113.5" y="457.6"/>
			<point x="107.2" y="450.1"/>
			<point x="102.2" y="443.3" type="curve"/>
			<point x="197.4" y="330.3"/>
			<point x="303.5" y="224.4"/>
			<point x="410.5" y="133.6" type="curve" smooth="yes"/>
			<point x="425.2" y="120.8"/>
			<point x="435" y="117.4"/>
			<point x="444.1" y="117.4" type="curve" smooth="yes"/>
			<point x="459.3" y="117.4"/>
			<point x="473.8" y="126.1"/>
			<point x="494.1" y="146.4" type="curve" smooth="yes"/>
			<point x="497" y="149.3"/>
			<point x="500.3" y="152.6"/>
		</contour>
	</outline>
</glyph>
